<svg width="24" height="25" viewBox="0 0 24 25" fill="none" xmlns="http://www.w3.org/2000/svg">
<path d="M3.5625 12.3125H20.4375V21.65H3.5625V12.3125Z" fill="#4D4D4D"/>
<path d="M0.75 23.0371H23.25V23.7496H0.75V23.0371ZM3.5625 21.6496H20.4375V22.3621H3.5625V21.6496ZM6.375 20.2246H17.625V20.9371H6.375V20.2246Z" fill="#ACB8BF"/>
<path d="M15.375 14.3379H18V18.8379H15.375V14.3379Z" fill="#89664C"/>
<path d="M15.75 14.7129H17.625V18.4629H15.75V14.7129Z" fill="#B4D7EE"/>
<path d="M16.5 14.5254H16.875V18.6504H16.5V14.5254ZM6 14.3379H8.625V18.8379H6V14.3379Z" fill="#89664C"/>
<path d="M6.375 14.7129H8.25V18.4629H6.375V14.7129Z" fill="#B4D7EE"/>
<path d="M7.125 14.5254H7.5V18.6504H7.125V14.5254Z" fill="#89664C"/>
<path d="M2.1748 22.325H21.8623V23.0375H2.1748V22.325ZM4.9498 20.9375H19.0123V21.65H4.9498V20.9375Z" fill="#DAE3EA"/>
<path d="M1.7998 10.9258H22.1998V11.6383H1.7998V10.9258Z" fill="#94989B"/>
<path d="M0.75 11.5996H23.25V12.3121H0.75V11.5996Z" fill="#DAE3EA"/>
<path d="M12 2.30078L0.75 8.45078L1.6875 9.87578L12 3.01328L22.3125 9.87578L23.25 8.45078L12 2.30078Z" fill="#94989B"/>
<path d="M12 1.25L0.75 8.45V9.5375L12 2.3L23.25 9.5375V8.45L12 1.25Z" fill="#DAE3EA"/>
<path d="M12 3.01172L0.75 10.2117V10.9242H23.25V10.2117L12 3.01172Z" fill="#DAE3EA"/>
<path d="M12.0001 4.0625L2.6626 10.2125H21.3376L12.0001 4.0625Z" fill="#ACB8BF"/>
<path d="M11.9999 7.02539C11.6249 7.02539 11.3249 6.76289 11.3249 6.42539C11.3249 6.08789 11.6249 5.82539 11.9999 5.82539C12.3749 5.82539 12.6749 6.08789 12.6749 6.42539H13.3499C13.3499 5.86289 12.9374 5.41289 12.3374 5.30039V4.96289H11.6624V5.30039C11.0999 5.45039 10.6499 5.90039 10.6499 6.42539C10.6499 7.06289 11.2499 7.58789 11.9999 7.58789C12.3749 7.58789 12.6749 7.85039 12.6749 8.18789C12.6749 8.52539 12.3749 8.78789 11.9999 8.78789C11.6249 8.78789 11.3249 8.52539 11.3249 8.18789H10.6499C10.6499 8.75039 11.0624 9.20039 11.6624 9.31289V9.65039H12.3374V9.31289C12.8999 9.16289 13.3499 8.71289 13.3499 8.18789C13.3499 7.55039 12.7499 7.02539 11.9999 7.02539Z" fill="white"/>
<path d="M2.4375 13.0625H4.6875V21.575H2.4375V13.0625Z" fill="#DAE3EA"/>
<path d="M2.1748 21.575H4.9873V22.325H2.1748V21.575ZM2.1748 12.3125H4.9873V13.0625H2.1748V12.3125Z" fill="#94989B"/>
<path d="M2.6626 13.4004H2.9251V21.2754H2.6626V13.4004ZM4.2001 13.4004H4.4626V21.2754H4.2001V13.4004ZM3.6751 13.4004H3.9376V21.2754H3.6751V13.4004ZM3.1876 13.4004H3.4501V21.2754H3.1876V13.4004Z" fill="#C8D0D6"/>
<path d="M19.3125 13.0625H21.5625V21.575H19.3125V13.0625Z" fill="#DAE3EA"/>
<path d="M19.0498 21.575H21.8623V22.325H19.0498V21.575ZM19.0498 12.3125H21.8623V13.0625H19.0498V12.3125Z" fill="#94989B"/>
<path d="M19.5376 13.4004H19.8001V21.2754H19.5376V13.4004ZM21.0751 13.4004H21.3376V21.2754H21.0751V13.4004ZM20.5501 13.4004H20.8126V21.2754H20.5501V13.4004ZM20.0626 13.4004H20.3251V21.2754H20.0626V13.4004Z" fill="#C8D0D6"/>
<path d="M9.9751 16.363V20.038H13.9876V16.363C14.0251 13.6255 9.9751 13.7005 9.9751 16.363Z" fill="#89664C"/>
<path d="M10.2749 16.5129V20.0379H13.7249V16.5129C13.7249 14.0004 10.2749 14.0379 10.2749 16.5129Z" fill="#594640"/>
<path d="M10.3501 16.55V20.0375H13.6876V16.55C13.6501 14.0375 10.3501 14.075 10.3501 16.55Z" fill="#A37D64"/>
<path d="M9.7876 20.0371H14.2501V20.2621H9.7876V20.0371Z" fill="#94989B"/>
<path d="M12.225 16.4383H13.3875C13.35 15.6133 12.825 15.1633 12.225 15.0508V16.4383ZM11.85 16.4383V15.0508C11.2875 15.1258 10.725 15.6133 10.6875 16.4383H11.85Z" fill="#594640"/>
<path d="M12.1874 16.4383H13.3499C13.3124 15.6133 12.7874 15.1633 12.1874 15.0508V16.4383ZM11.8124 16.4383V15.0508C11.2499 15.1258 10.6874 15.6133 10.6499 16.4383H11.8124Z" fill="#89664C"/>
<path d="M12.225 16.8125H13.3875V17.9375H12.225V16.8125ZM10.6875 16.8125H11.85V17.9375H10.6875V16.8125Z" fill="#594640"/>
<path d="M12.1874 16.8125H13.3499V17.9375H12.1874V16.8125ZM10.6499 16.8125H11.8124V17.9375H10.6499V16.8125Z" fill="#89664C"/>
<path d="M12.225 18.4629H13.3875V19.5879H12.225V18.4629ZM10.6875 18.4629H11.85V19.5879H10.6875V18.4629Z" fill="#594640"/>
<path d="M12.1874 18.4258H13.3499V19.5508H12.1874V18.4258ZM10.6499 18.4258H11.8124V19.5508H10.6499V18.4258Z" fill="#89664C"/>
<path d="M13.0874 17.3008H13.5749V18.2758H13.0874V17.3008Z" fill="#DAE3EA"/>
<path d="M13.125 17.3379H13.5375V18.2379H13.125V17.3379Z" fill="#ACB8BF"/>
<path d="M13.3873 18.1633L13.3498 17.9758L13.3873 17.9383C13.3873 17.9008 13.3498 17.8633 13.3123 17.8633C13.2748 17.8633 13.2373 17.9008 13.2373 17.9383C13.2373 17.9758 13.2373 17.9758 13.2748 17.9758L13.2373 18.1633H13.3873Z" fill="#3E4347"/>
<path d="M13.3125 17.7871C13.4161 17.7871 13.5 17.7032 13.5 17.5996C13.5 17.4961 13.4161 17.4121 13.3125 17.4121C13.2089 17.4121 13.125 17.4961 13.125 17.5996C13.125 17.7032 13.2089 17.7871 13.3125 17.7871Z" fill="#94989B"/>
<path d="M13.3125 17.75C13.4161 17.75 13.5 17.6661 13.5 17.5625C13.5 17.4589 13.4161 17.375 13.3125 17.375C13.2089 17.375 13.125 17.4589 13.125 17.5625C13.125 17.6661 13.2089 17.75 13.3125 17.75Z" fill="#DAE3EA"/>
</svg>
