<svg width="24" height="24" viewBox="0 0 24 24" fill="none" xmlns="http://www.w3.org/2000/svg">
<g clip-path="url(#clip0_810_9715)">
<path d="M11.999 23.998C18.6265 23.998 23.999 18.6255 23.999 11.998C23.999 5.37055 18.6265 -0.00195312 11.999 -0.00195312C5.37152 -0.00195312 -0.000976562 5.37105 -0.000976562 11.998C-0.000976562 18.6255 5.37152 23.998 11.999 23.998Z" fill="#DEEEFF"/>
<path d="M11.3511 17.6718C11.2044 17.6711 11.0589 17.6658 10.9146 17.6558V18.1083H12.2236V17.6133C11.9376 17.6508 11.6466 17.6718 11.3511 17.6718Z" fill="#6BAFFF"/>
<path d="M14.1967 18.1078H8.94266C8.46566 18.1078 8.07866 18.4943 8.07866 18.9718V18.9803H15.0607V18.9713C15.0607 18.4943 14.6737 18.1078 14.1967 18.1078ZM16.5002 6.5293L15.8617 7.1688C16.7358 8.21856 17.2139 9.54174 17.2127 10.9078C17.2127 14.1398 14.5837 16.7698 11.3512 16.7698C9.98487 16.771 8.66148 16.2927 7.61166 15.4183L6.97266 16.0573C8.19318 17.0999 9.74595 17.6723 11.3512 17.6713C15.0807 17.6713 18.1147 14.6373 18.1147 10.9078C18.1147 9.2388 17.5062 7.7103 16.5007 6.5298" fill="#6BAFFF"/>
<path d="M6.82826 16.2024C6.72595 16.3047 6.58719 16.3621 6.44251 16.3621C6.29782 16.3621 6.15906 16.3047 6.05676 16.2024C5.95445 16.1001 5.89697 15.9613 5.89697 15.8166C5.89697 15.6719 5.95445 15.5332 6.05676 15.4309L15.8723 5.61486C15.9229 5.5642 15.9831 5.52402 16.0492 5.4966C16.1154 5.46919 16.1864 5.45508 16.258 5.45508C16.3296 5.45508 16.4006 5.46919 16.4668 5.4966C16.533 5.52402 16.5931 5.5642 16.6438 5.61486C16.6944 5.66552 16.7346 5.72566 16.762 5.79184C16.7894 5.85803 16.8035 5.92897 16.8035 6.00061C16.8035 6.07225 16.7894 6.14319 16.762 6.20938C16.7346 6.27556 16.6944 6.3357 16.6438 6.38636L6.82826 16.2024Z" fill="#6BAFFF"/>
<path d="M11.3512 16.1449C14.2432 16.1449 16.5877 13.7999 16.5877 10.9079C16.5877 8.01588 14.2432 5.67188 11.3512 5.67188C8.45923 5.67188 6.11523 8.01638 6.11523 10.9079C6.11523 13.7994 8.45923 16.1449 11.3512 16.1449Z" fill="#2E3ECD"/>
<path d="M14.895 14.7592C15.0042 14.6629 15.1072 14.5599 15.2035 14.4507L13.7375 12.9847C14.3046 12.379 14.7463 11.6672 15.0375 10.8902L16.4095 12.2627C16.4552 12.0944 16.4912 11.9247 16.5175 11.7537L15.1895 10.4257C15.5715 9.09523 15.4225 7.59773 15.328 7.50323C15.2416 7.39899 15.15 7.29919 15.0535 7.20423C14.9586 7.10756 14.8588 7.01578 14.7545 6.92923C14.66 6.83523 13.163 6.68623 11.8325 7.06823L10.504 5.74023C10.3326 5.76738 10.1627 5.80342 9.99502 5.84823L11.3675 7.22023C10.5906 7.51141 9.87877 7.9532 9.27302 8.52023L7.80752 7.05473C7.69837 7.15105 7.59534 7.25409 7.49902 7.36323L8.96452 8.82923C8.26452 9.57923 7.77952 10.4582 7.51252 11.3882L6.18402 10.0597C6.15363 10.2441 6.1336 10.4301 6.12402 10.6167L7.39202 11.8847C7.16102 13.0322 7.31302 14.2497 7.37352 14.3097C7.45852 14.4137 7.55102 14.5122 7.64852 14.6097C7.74552 14.7067 7.84402 14.7997 7.94752 14.8842C8.00802 14.9442 9.22552 15.0967 10.3725 14.8657L11.641 16.1337C11.8277 16.1242 12.0136 16.1041 12.198 16.0737L10.8695 14.7452C11.8255 14.4707 12.7025 13.973 13.4285 13.2932L14.895 14.7592ZM14.8565 7.40173C15.0488 8.2792 15.0382 9.18899 14.8255 10.0617L12.196 7.43173C13.0688 7.21937 13.9791 7.20911 14.8565 7.40173ZM11.716 7.56923L14.688 10.5412C14.4228 11.333 13.9911 12.0587 13.422 12.6697L9.58752 8.83473C10.1986 8.26603 10.9244 7.8342 11.716 7.56923ZM7.84552 14.4122C7.6903 13.7074 7.66572 12.98 7.77302 12.2662L9.99102 14.4847C9.27902 14.5912 8.55102 14.5672 7.84552 14.4122ZM10.5055 14.3817L7.87552 11.7522C8.11191 10.7769 8.59523 9.87879 9.27902 9.14423L13.114 12.9787C12.3793 13.6624 11.481 14.1456 10.5055 14.3817Z" fill="#6BAFFF"/>
</g>
<defs>
<clipPath id="clip0_810_9715">
<rect width="24" height="24" fill="white"/>
</clipPath>
</defs>
</svg>
