<svg width="24" height="24" viewBox="0 0 24 24" fill="none" xmlns="http://www.w3.org/2000/svg">
<g clip-path="url(#clip0_810_9789)">
<path d="M7.75042 4.99122C7.67623 5.06812 7.6158 5.1572 7.57176 5.25455L7.56642 5.24922L0.0890901 22.0932L0.0964234 22.1006C-0.0422433 22.3692 0.189757 22.9159 0.66509 23.3919C1.14042 23.8672 1.68709 24.0992 1.95576 23.9606L1.96242 23.9672L18.8064 16.4892L18.8011 16.4832C18.8991 16.4366 18.9891 16.3799 19.0644 16.3039C20.1058 15.2626 18.4171 11.8859 15.2938 8.76189C12.1691 5.63789 8.79242 3.94989 7.75042 4.99122Z" fill="#DD2E44"/>
<path d="M8.66642 8L0.27709 21.6707L0.0890901 22.094L0.0964234 22.1013C-0.0422433 22.37 0.189757 22.9167 0.66509 23.3927C0.819757 23.5473 0.980423 23.6647 1.13776 23.764L11.3331 11.3333L8.66642 8Z" fill="#EA596E"/>
<path d="M15.3413 8.71021C18.4546 11.8249 20.1833 15.1449 19.2006 16.1262C18.2186 17.1089 14.8986 15.3809 11.7833 12.2675C8.66928 9.15288 6.94128 5.83154 7.92328 4.84954C8.90594 3.86754 12.2259 5.59554 15.3413 8.71021Z" fill="#A0041E"/>
<path d="M12.3932 9.07208C12.2556 9.18281 12.0796 9.23436 11.9039 9.21541C11.3252 9.15274 10.8386 8.95141 10.4979 8.63341C10.1372 8.29674 9.95923 7.84474 10.0079 7.39208C10.0932 6.59741 10.8906 5.86808 12.2499 6.01474C12.7786 6.07141 13.0146 5.90141 13.0226 5.82008C13.0319 5.73941 12.8379 5.52274 12.3092 5.46541C11.7306 5.40274 11.2439 5.20141 10.9026 4.88341C10.5419 4.54674 10.3632 4.09474 10.4126 3.64208C10.4992 2.84741 11.2959 2.11808 12.6539 2.26541C13.0392 2.30674 13.2426 2.22741 13.3286 2.17608C13.3972 2.13408 13.4246 2.09408 13.4272 2.07074C13.4352 1.99008 13.2439 1.77341 12.7139 1.71608C12.5382 1.69695 12.3772 1.60882 12.2664 1.47105C12.1557 1.33328 12.1042 1.15715 12.1232 0.981409C12.1324 0.894352 12.1588 0.809974 12.2007 0.733119C12.2426 0.656264 12.2993 0.588447 12.3675 0.533563C12.4357 0.478679 12.5141 0.437809 12.5981 0.413299C12.6822 0.38879 12.7702 0.381124 12.8572 0.390743C14.2152 0.536743 14.8392 1.41874 14.7532 2.21408C14.6666 3.01008 13.8699 3.73808 12.5106 3.59208C12.1252 3.55008 11.9239 3.63008 11.8372 3.68141C11.7686 3.72274 11.7406 3.76341 11.7379 3.78608C11.7292 3.86741 11.9219 4.08341 12.4519 4.14074C13.8099 4.28741 14.4339 5.16874 14.3479 5.96408C14.2619 6.75941 13.4652 7.48808 12.1066 7.34074C11.7212 7.29941 11.5186 7.37941 11.4319 7.43008C11.3626 7.47274 11.3359 7.51274 11.3332 7.53541C11.3246 7.61608 11.5172 7.83274 12.0466 7.89008C12.1776 7.90422 12.3016 7.95692 12.4027 8.0415C12.5039 8.12609 12.5776 8.23876 12.6147 8.36527C12.6518 8.49179 12.6506 8.62646 12.6112 8.75227C12.5717 8.87808 12.4959 8.98937 12.3932 9.07208Z" fill="#AA8DD8"/>
<path d="M20.4406 15.2374C21.7559 14.8661 22.6633 15.4528 22.8793 16.2228C23.0953 16.9921 22.6273 17.9661 21.3126 18.3361C20.7993 18.4801 20.6453 18.7254 20.6659 18.8034C20.6886 18.8821 20.9493 19.0114 21.4613 18.8668C22.7759 18.4968 23.6833 19.0834 23.8993 19.8528C24.1166 20.6228 23.6473 21.5954 22.3319 21.9661C21.8193 22.1101 21.6646 22.3561 21.6873 22.4341C21.7099 22.5121 21.9693 22.6414 22.4819 22.4974C22.567 22.4711 22.6565 22.4621 22.745 22.471C22.8336 22.4798 22.9195 22.5063 22.9977 22.5489C23.0759 22.5915 23.1448 22.6493 23.2002 22.7189C23.2557 22.7885 23.2967 22.8686 23.3207 22.9543C23.3448 23.04 23.3514 23.1297 23.3402 23.218C23.3291 23.3063 23.3003 23.3915 23.2557 23.4685C23.2111 23.5456 23.1515 23.6129 23.0804 23.6665C23.0093 23.7201 22.9283 23.759 22.8419 23.7808C21.5279 24.1508 20.6199 23.5654 20.4026 22.7948C20.1866 22.0254 20.6553 21.0528 21.9713 20.6821C22.4846 20.5374 22.6386 20.2928 22.6159 20.2141C22.5946 20.1361 22.3346 20.0061 21.8226 20.1501C20.5066 20.5208 19.5999 19.9354 19.3833 19.1641C19.1666 18.3948 19.6353 17.4221 20.9506 17.0508C21.4626 16.9074 21.6166 16.6608 21.5953 16.5834C21.5726 16.5048 21.3133 16.3754 20.8006 16.5194C20.7149 16.5483 20.6243 16.5594 20.5341 16.5522C20.444 16.5449 20.3563 16.5193 20.2763 16.4771C20.1964 16.4349 20.1259 16.3768 20.0691 16.3065C20.0123 16.2361 19.9704 16.1549 19.9459 16.0679C19.9215 15.9808 19.915 15.8897 19.9269 15.8001C19.9388 15.7104 19.9687 15.6242 20.015 15.5465C20.0613 15.4688 20.1229 15.4013 20.196 15.3482C20.2692 15.2951 20.3524 15.2574 20.4406 15.2374Z" fill="#77B255"/>
<path d="M15.3339 13.4391C15.1958 13.4389 15.0612 13.3959 14.9487 13.3161C14.8361 13.2362 14.751 13.1233 14.7052 12.9931C14.6595 12.8629 14.6552 12.7216 14.693 12.5889C14.7309 12.4561 14.809 12.3383 14.9166 12.2518C15.0619 12.1351 18.5286 9.41247 23.4279 10.1131C23.5165 10.1232 23.6023 10.1509 23.68 10.1946C23.7577 10.2384 23.8259 10.2973 23.8804 10.3678C23.935 10.4384 23.9748 10.5192 23.9976 10.6055C24.0204 10.6917 24.0256 10.7817 24.013 10.87C24.0003 10.9583 23.9701 11.0431 23.9241 11.1195C23.8781 11.196 23.8172 11.2624 23.745 11.3148C23.6729 11.3673 23.5909 11.4047 23.5041 11.4249C23.4172 11.4451 23.3271 11.4477 23.2392 11.4325C18.9106 10.8178 15.7812 13.2685 15.7506 13.2931C15.6323 13.3877 15.4853 13.4392 15.3339 13.4391Z" fill="#AA8DD8"/>
<path d="M3.83582 10.6667C3.73191 10.6667 3.62943 10.6425 3.53657 10.5958C3.44371 10.5492 3.36304 10.4815 3.301 10.3981C3.23895 10.3148 3.19725 10.2181 3.17922 10.1157C3.16119 10.0134 3.16733 9.90827 3.19715 9.80873C3.95248 7.29339 4.63715 3.27939 3.79582 2.23273C3.70182 2.11406 3.55982 1.99739 3.23448 2.02206C2.60915 2.07006 2.66848 3.38939 2.66915 3.40273C2.67762 3.49105 2.66837 3.58017 2.64195 3.66487C2.61553 3.74957 2.57247 3.82815 2.51529 3.89599C2.45811 3.96383 2.38796 4.01958 2.30896 4.05996C2.22995 4.10035 2.14368 4.12455 2.05521 4.13116C1.96673 4.13778 1.87782 4.12666 1.79369 4.09847C1.70956 4.07027 1.63191 4.02557 1.56528 3.96698C1.49865 3.90839 1.44439 3.83708 1.40568 3.75725C1.36696 3.67742 1.34457 3.59066 1.33982 3.50206C1.27115 2.58273 1.55715 0.81206 3.13448 0.692727C3.83848 0.639394 4.42315 0.88406 4.83582 1.39739C6.41648 3.36473 4.81182 9.06806 4.47448 10.1921C4.4332 10.3293 4.34878 10.4496 4.23374 10.5351C4.11869 10.6206 3.97916 10.6668 3.83582 10.6667Z" fill="#77B255"/>
<path d="M17 7.33398C17.5523 7.33398 18 6.88627 18 6.33398C18 5.7817 17.5523 5.33398 17 5.33398C16.4477 5.33398 16 5.7817 16 6.33398C16 6.88627 16.4477 7.33398 17 7.33398Z" fill="#5C913B"/>
<path d="M1.33333 13.3327C2.06971 13.3327 2.66667 12.7357 2.66667 11.9993C2.66667 11.263 2.06971 10.666 1.33333 10.666C0.596954 10.666 0 11.263 0 11.9993C0 12.7357 0.596954 13.3327 1.33333 13.3327Z" fill="#9266CC"/>
<path d="M21.6665 14C22.2188 14 22.6665 13.5523 22.6665 13C22.6665 12.4477 22.2188 12 21.6665 12C21.1142 12 20.6665 12.4477 20.6665 13C20.6665 13.5523 21.1142 14 21.6665 14Z" fill="#5C913B"/>
<path d="M15.6665 22C16.2188 22 16.6665 21.5523 16.6665 21C16.6665 20.4477 16.2188 20 15.6665 20C15.1142 20 14.6665 20.4477 14.6665 21C14.6665 21.5523 15.1142 22 15.6665 22Z" fill="#5C913B"/>
<path d="M18.6668 4.00065C19.4032 4.00065 20.0002 3.4037 20.0002 2.66732C20.0002 1.93094 19.4032 1.33398 18.6668 1.33398C17.9304 1.33398 17.3335 1.93094 17.3335 2.66732C17.3335 3.4037 17.9304 4.00065 18.6668 4.00065Z" fill="#FFCC4D"/>
<path d="M21.6665 6.66602C22.2188 6.66602 22.6665 6.2183 22.6665 5.66602C22.6665 5.11373 22.2188 4.66602 21.6665 4.66602C21.1142 4.66602 20.6665 5.11373 20.6665 5.66602C20.6665 6.2183 21.1142 6.66602 21.6665 6.66602Z" fill="#FFCC4D"/>
<path d="M19.6665 9.33398C20.2188 9.33398 20.6665 8.88627 20.6665 8.33398C20.6665 7.7817 20.2188 7.33398 19.6665 7.33398C19.1142 7.33398 18.6665 7.7817 18.6665 8.33398C18.6665 8.88627 19.1142 9.33398 19.6665 9.33398Z" fill="#FFCC4D"/>
<path d="M5 16.666C5.55228 16.666 6 16.2183 6 15.666C6 15.1137 5.55228 14.666 5 14.666C4.44772 14.666 4 15.1137 4 15.666C4 16.2183 4.44772 16.666 5 16.666Z" fill="#FFCC4D"/>
</g>
<defs>
<clipPath id="clip0_810_9789">
<rect width="24" height="24" fill="white"/>
</clipPath>
</defs>
</svg>
