<svg width="32" height="32" viewBox="0 0 32 32" fill="none" xmlns="http://www.w3.org/2000/svg">
<path fill-rule="evenodd" clip-rule="evenodd" d="M4.3335 13.3733C4.3335 9.77333 7.4935 7 11.2002 7C13.1108 7 14.7935 7.896 16.0002 9.056C17.2068 7.896 18.8882 7 20.8002 7C24.5068 7 27.6668 9.77333 27.6668 13.3733C27.6668 15.84 26.6148 18.008 25.1575 19.8427C23.7042 21.672 21.8002 23.2253 19.9788 24.488C19.2815 24.9707 18.5788 25.4147 17.9335 25.7427C17.3295 26.0507 16.6335 26.3333 16.0002 26.3333C15.3668 26.3333 14.6722 26.0507 14.0668 25.7427C13.3593 25.3687 12.6766 24.9496 12.0228 24.488C10.2002 23.2253 8.2975 21.672 6.84283 19.8427C5.3855 18.008 4.3335 15.84 4.3335 13.3733ZM11.2002 9C8.42683 9 6.3335 11.04 6.3335 13.3733C6.3335 15.244 7.12816 16.9867 8.40816 18.5973C9.69083 20.2107 11.4175 21.636 13.1615 22.844C13.8215 23.3013 14.4415 23.6893 14.9748 23.9613C15.5455 24.252 15.8762 24.3333 16.0002 24.3333C16.1242 24.3333 16.4548 24.252 17.0268 23.96C17.6554 23.6287 18.2612 23.2558 18.8402 22.844C20.5828 21.636 22.3095 20.212 23.5922 18.5973C24.8722 16.9867 25.6668 15.244 25.6668 13.3733C25.6668 11.04 23.5735 9 20.8002 9C19.2082 9 17.7202 9.95067 16.7935 11.1587C16.7001 11.2804 16.58 11.3789 16.4424 11.4468C16.3049 11.5146 16.1535 11.5499 16.0002 11.5499C15.8468 11.5499 15.6955 11.5146 15.5579 11.4468C15.4203 11.3789 15.3002 11.2804 15.2068 11.1587C14.2802 9.95067 12.7935 9 11.2002 9Z" fill="#161616"/>
</svg>
