<svg width="25" height="24" viewBox="0 0 25 24" fill="none" xmlns="http://www.w3.org/2000/svg">
<path d="M2.5 14C2.5 10.2288 2.5 8.34315 3.67157 7.17157C4.84315 6 6.72876 6 10.5 6H14.5C18.2712 6 20.1569 6 21.3284 7.17157C22.5 8.34315 22.5 10.2288 22.5 14C22.5 17.7712 22.5 19.6569 21.3284 20.8284C20.1569 22 18.2712 22 14.5 22H10.5C6.72876 22 4.84315 22 3.67157 20.8284C2.5 19.6569 2.5 17.7712 2.5 14Z" stroke="#ACACAC" stroke-width="2"/>
<path d="M4.50049 7L4.48828 6C4.60071 5.06898 4.83543 4.42559 5.32547 3.93726C6.26602 3 7.77981 3 10.8074 3H14.0186C17.0462 3 18.56 3 19.5005 3.93726C19.9906 4.42559 20.2253 5.06898 20.3377 6V7" stroke="#ACACAC" stroke-width="2"/>
<path d="M18 12C18.8284 12 19.5 11.3284 19.5 10.5C19.5 9.67157 18.8284 9 18 9C17.1716 9 16.5 9.67157 16.5 10.5C16.5 11.3284 17.1716 12 18 12Z" stroke="#ACACAC" stroke-width="2"/>
<path d="M2.5 14.5001L4.25159 12.9675C5.16286 12.1702 6.53628 12.2159 7.39249 13.0721L11.6822 17.3618C12.3694 18.0491 13.4512 18.1428 14.2464 17.5839L14.5446 17.3744C15.6888 16.5702 17.2369 16.6634 18.2765 17.599L21.5 20.5001" stroke="#ACACAC" stroke-width="2" stroke-linecap="round"/>
</svg>
