<svg width="25" height="25" viewBox="0 0 25 25" fill="none" xmlns="http://www.w3.org/2000/svg">
<circle cx="3.40426" cy="3.40426" r="3.40426" transform="matrix(-1 0 0 1 16.1162 5.17969)" stroke="#8F07E7" stroke-width="1.5"/>
<path d="M6.75488 17.0401C6.75488 16.3078 7.21518 15.6547 7.90475 15.4084V15.4084C11.0136 14.2981 14.411 14.2981 17.5199 15.4084V15.4084C18.2095 15.6547 18.6698 16.3078 18.6698 17.0401V18.1596C18.6698 19.1702 17.7747 19.9465 16.7743 19.8036L16.4407 19.7559C13.9677 19.4027 11.457 19.4027 8.98393 19.7559L8.65038 19.8036C7.64995 19.9465 6.75488 19.1702 6.75488 18.1596V17.0401Z" stroke="#8F07E7" stroke-width="1.5"/>
<path d="M17.8194 12.082C19.2966 12.082 20.4941 10.8844 20.4941 9.40719C20.4941 7.92996 19.2966 6.73242 17.8194 6.73242" stroke="#8F07E7" stroke-width="1.5" stroke-linecap="round"/>
<path d="M20.7491 18.1833L21.0111 18.2207C21.7972 18.333 22.5005 17.7231 22.5005 16.929V16.0494C22.5005 15.474 22.1388 14.9608 21.597 14.7673C21.0565 14.5743 20.505 14.424 19.9473 14.3164" stroke="#8F07E7" stroke-width="1.5" stroke-linecap="round"/>
<path d="M7.18063 12.082C5.7034 12.082 4.50586 10.8844 4.50586 9.40719C4.50586 7.92996 5.7034 6.73242 7.18063 6.73242" stroke="#8F07E7" stroke-width="1.5" stroke-linecap="round"/>
<path d="M4.25094 18.1833L3.98886 18.2207C3.20281 18.333 2.49954 17.7231 2.49954 16.929V16.0494C2.49954 15.474 2.86121 14.9608 3.40301 14.7673C3.94346 14.5743 4.495 14.424 5.05273 14.3164" stroke="#8F07E7" stroke-width="1.5" stroke-linecap="round"/>
</svg>
