<svg width="25" height="24" viewBox="0 0 25 24" fill="none" xmlns="http://www.w3.org/2000/svg">
<path d="M20.5 11.943C20.5 7.562 16.924 4 12.5 4C8.076 4 4.5 7.562 4.5 11.943C4.5 13.133 4.647 13.898 4.828 14.459C4.95 14.831 5.241 14.464 5.385 14.329C5.85747 13.8859 6.48345 13.6435 7.1311 13.6529C7.77874 13.6622 8.39749 13.9225 8.857 14.379C10.278 15.791 11.589 17.749 9.778 19.549C8.806 20.515 7.342 20.917 6.228 19.877C4.79 18.533 3.541 16.969 2.926 15.077C2.67 14.283 2.5 13.304 2.5 11.942C2.5 6.445 6.983 2 12.5 2C18.017 2 22.5 6.445 22.5 11.943C22.5 13.305 22.331 14.284 22.074 15.076C21.459 16.969 20.21 18.533 18.772 19.876C17.658 20.917 16.194 20.516 15.222 19.549C13.412 17.749 14.722 15.791 16.142 14.379C16.6016 13.9222 17.2205 13.6617 17.8684 13.6524C18.5163 13.6431 19.1425 13.8856 19.615 14.329C19.892 14.589 20.029 14.899 20.172 14.459C20.353 13.899 20.5 13.132 20.5 11.943Z" fill="#F2F2F2"/>
</svg>
