<svg width="24" height="24" viewBox="0 0 24 24" fill="none" xmlns="http://www.w3.org/2000/svg">
<path d="M11.9783 11.5313C9.9233 11.5313 8.0033 12.3263 6.5708 13.6613V22.4738H17.3558V13.6388C15.8933 12.2831 13.9725 11.5303 11.9783 11.5313Z" fill="url(#paint0_radial_810_9820)"/>
<path d="M11.9783 11.5313C9.9233 11.5313 8.0033 12.3263 6.5708 13.6613V22.4738H17.3558V13.6388C15.8933 12.2831 13.9725 11.5303 11.9783 11.5313Z" fill="url(#paint1_linear_810_9820)"/>
<path d="M11.9783 11.5313C9.9233 11.5313 8.0033 12.3263 6.5708 13.6613V22.4738H17.3558V13.6388C15.8933 12.2831 13.9725 11.5303 11.9783 11.5313Z" fill="url(#paint2_linear_810_9820)"/>
<path d="M11.9783 11.5313C9.9233 11.5313 8.0033 12.3263 6.5708 13.6613V22.4738H17.3558V13.6388C15.8933 12.2831 13.9725 11.5303 11.9783 11.5313Z" fill="url(#paint3_linear_810_9820)"/>
<path d="M11.9783 11.5313C9.9233 11.5313 8.0033 12.3263 6.5708 13.6613V22.4738H17.3558V13.6388C15.8933 12.2831 13.9725 11.5303 11.9783 11.5313Z" fill="url(#paint4_radial_810_9820)"/>
<path d="M11.9783 11.5313C9.9233 11.5313 8.0033 12.3263 6.5708 13.6613V22.4738H17.3558V13.6388C15.8933 12.2831 13.9725 11.5303 11.9783 11.5313Z" fill="url(#paint5_radial_810_9820)"/>
<path d="M11.9783 11.5313C9.9233 11.5313 8.0033 12.3263 6.5708 13.6613V22.4738H17.3558V13.6388C15.8933 12.2831 13.9725 11.5303 11.9783 11.5313Z" fill="url(#paint6_radial_810_9820)"/>
<path d="M12.2549 11.5312C12.4424 11.5387 12.6374 11.5537 12.8324 11.5687C12.6374 11.5537 12.4499 11.5387 12.2549 11.5312Z" fill="url(#paint7_linear_810_9820)"/>
<path d="M12.0075 11.5313H11.9775C12.0525 11.5313 12.12 11.5312 12.195 11.5387C12.135 11.5312 12.0675 11.5313 12.0075 11.5313Z" fill="url(#paint8_linear_810_9820)"/>
<path d="M4.43238 17.0521L4.40988 17.1121C4.01988 18.3496 3.81738 19.6321 3.81738 20.9296V22.4746H6.56988V13.6621C5.57854 14.5902 4.84248 15.7575 4.43238 17.0521Z" fill="url(#paint9_radial_810_9820)"/>
<path d="M4.43238 17.0521L4.40988 17.1121C4.01988 18.3496 3.81738 19.6321 3.81738 20.9296V22.4746H6.56988V13.6621C5.57854 14.5902 4.84248 15.7575 4.43238 17.0521Z" fill="url(#paint10_radial_810_9820)"/>
<path d="M4.43238 17.0521L4.40988 17.1121C4.01988 18.3496 3.81738 19.6321 3.81738 20.9296V22.4746H6.56988V13.6621C5.57854 14.5902 4.84248 15.7575 4.43238 17.0521Z" fill="url(#paint11_linear_810_9820)"/>
<path d="M20.108 20.9512C20.1155 19.6387 19.9205 18.3337 19.5305 17.0812C19.1105 15.7312 18.3455 14.5537 17.3555 13.6387V22.4737H20.093L20.108 20.9512Z" fill="url(#paint12_radial_810_9820)"/>
<path d="M20.108 20.9512C20.1155 19.6387 19.9205 18.3337 19.5305 17.0812C19.1105 15.7312 18.3455 14.5537 17.3555 13.6387V22.4737H20.093L20.108 20.9512Z" fill="url(#paint13_radial_810_9820)"/>
<path d="M20.108 20.9512C20.1155 19.6387 19.9205 18.3337 19.5305 17.0812C19.1105 15.7312 18.3455 14.5537 17.3555 13.6387V22.4737H20.093L20.108 20.9512Z" fill="url(#paint14_linear_810_9820)"/>
<path d="M12.3583 16.8592C12.3583 16.8292 12.3508 16.707 12.3583 16.677L14.3548 11.9587C14.3623 11.9362 14.3773 11.9137 14.3848 11.8987C13.6273 11.6587 12.8248 11.5312 11.9998 11.5312C11.1673 11.5312 10.3573 11.6663 9.59229 11.9062C9.59979 11.9212 9.61479 11.9437 9.62229 11.9587L11.6023 16.7295C11.6098 16.752 11.6428 16.767 11.6428 16.797L11.6848 19.4963H11.6923V22.4737H12.2848V19.4963L12.3433 16.935L12.3583 16.8592Z" fill="url(#paint15_radial_810_9820)"/>
<path d="M12.3583 16.8592C12.3583 16.8292 12.3508 16.707 12.3583 16.677L14.3548 11.9587C14.3623 11.9362 14.3773 11.9137 14.3848 11.8987C13.6273 11.6587 12.8248 11.5312 11.9998 11.5312C11.1673 11.5312 10.3573 11.6663 9.59229 11.9062C9.59979 11.9212 9.61479 11.9437 9.62229 11.9587L11.6023 16.7295C11.6098 16.752 11.6428 16.767 11.6428 16.797L11.6848 19.4963H11.6923V22.4737H12.2848V19.4963L12.3433 16.935L12.3583 16.8592Z" fill="url(#paint16_radial_810_9820)"/>
<path d="M12.2549 11.5312C12.4424 11.5387 12.6374 11.5537 12.8324 11.5687C12.6374 11.5537 12.4499 11.5387 12.2549 11.5312Z" fill="url(#paint17_linear_810_9820)"/>
<path d="M12.0075 11.5313H11.9775C12.0525 11.5313 12.12 11.5312 12.195 11.5387C12.135 11.5312 12.0675 11.5313 12.0075 11.5313Z" fill="url(#paint18_linear_810_9820)"/>
<g filter="url(#filter0_f_810_9820)">
<path d="M7.64379 15.0893L8.19279 15.1868C8.22089 15.1918 8.24713 15.2043 8.26878 15.2229C8.29043 15.2415 8.30669 15.2656 8.31588 15.2926C8.32507 15.3196 8.32684 15.3486 8.32103 15.3766C8.31521 15.4045 8.30201 15.4304 8.28279 15.4515L7.75479 16.029C7.72752 16.06 7.71311 16.1002 7.71451 16.1415C7.7159 16.1828 7.73299 16.2219 7.76229 16.251L11.141 19.7003C11.2243 19.7835 11.3705 19.728 11.3705 19.6103V17.1128C11.3705 17.0858 11.363 17.0648 11.357 17.037L9.45204 12.621C9.44684 12.6026 9.43703 12.5858 9.42354 12.5723C8.79725 12.7714 8.20082 13.0545 7.65054 13.4138L7.51104 14.916C7.50703 14.9563 7.5184 14.9967 7.54289 15.0289C7.56737 15.0612 7.60315 15.083 7.64304 15.09" fill="#A49EA5"/>
</g>
<g filter="url(#filter1_f_810_9820)">
<path d="M16.4084 15.0893L15.8594 15.1868C15.8313 15.1918 15.8051 15.2043 15.7834 15.2229C15.7618 15.2415 15.7455 15.2656 15.7363 15.2926C15.7271 15.3196 15.7253 15.3486 15.7312 15.3766C15.737 15.4045 15.7502 15.4304 15.7694 15.4515L16.2974 16.029C16.3247 16.06 16.3391 16.1002 16.3377 16.1415C16.3363 16.1828 16.3192 16.2219 16.2899 16.251L12.9111 19.7003C12.8271 19.7835 12.6816 19.728 12.6816 19.6103V17.1128C12.6816 17.0858 12.6884 17.0648 12.6951 17.037L14.6001 12.621C14.6053 12.6026 14.6151 12.5858 14.6286 12.5723C15.2549 12.7714 15.8514 13.0545 16.4016 13.4138L16.5411 14.916C16.5451 14.9564 16.5337 14.9969 16.509 15.0292C16.4844 15.0614 16.4484 15.0824 16.4084 15.0893Z" fill="url(#paint19_linear_810_9820)"/>
</g>
<path d="M12.4753 16.2419C12.2788 16.6289 12.2788 16.9484 12.2788 17.2214V19.4647C12.2788 19.5922 12.4348 19.6597 12.5241 19.5622L16.1376 15.8422C16.2051 15.7747 16.2051 15.6697 16.1451 15.6022L15.5803 14.9797C15.5598 14.9569 15.5457 14.9291 15.5396 14.899C15.5334 14.869 15.5353 14.8379 15.5452 14.8088C15.555 14.7798 15.5725 14.7539 15.5956 14.7339C15.6188 14.7138 15.6469 14.7003 15.6771 14.6947L16.2643 14.5897C16.3071 14.582 16.3454 14.5584 16.3716 14.5236C16.3977 14.4888 16.4098 14.4455 16.4053 14.4022L16.2651 12.8572C16.2623 12.8292 16.2532 12.8022 16.2385 12.7781C16.2238 12.7541 16.2039 12.7337 16.1803 12.7184C15.6126 12.3582 15.0012 12.0721 14.3608 11.8672C14.3479 11.8856 14.3378 11.9058 14.3308 11.9272L12.4753 16.2419Z" fill="url(#paint20_linear_810_9820)"/>
<path d="M12.4753 16.2419C12.2788 16.6289 12.2788 16.9484 12.2788 17.2214V19.4647C12.2788 19.5922 12.4348 19.6597 12.5241 19.5622L16.1376 15.8422C16.2051 15.7747 16.2051 15.6697 16.1451 15.6022L15.5803 14.9797C15.5598 14.9569 15.5457 14.9291 15.5396 14.899C15.5334 14.869 15.5353 14.8379 15.5452 14.8088C15.555 14.7798 15.5725 14.7539 15.5956 14.7339C15.6188 14.7138 15.6469 14.7003 15.6771 14.6947L16.2643 14.5897C16.3071 14.582 16.3454 14.5584 16.3716 14.5236C16.3977 14.4888 16.4098 14.4455 16.4053 14.4022L16.2651 12.8572C16.2623 12.8292 16.2532 12.8022 16.2385 12.7781C16.2238 12.7541 16.2039 12.7337 16.1803 12.7184C15.6126 12.3582 15.0012 12.0721 14.3608 11.8672C14.3479 11.8856 14.3378 11.9058 14.3308 11.9272L12.4753 16.2419Z" fill="url(#paint21_linear_810_9820)"/>
<path d="M12.4753 16.2419C12.2788 16.6289 12.2788 16.9484 12.2788 17.2214V19.4647C12.2788 19.5922 12.4348 19.6597 12.5241 19.5622L16.1376 15.8422C16.2051 15.7747 16.2051 15.6697 16.1451 15.6022L15.5803 14.9797C15.5598 14.9569 15.5457 14.9291 15.5396 14.899C15.5334 14.869 15.5353 14.8379 15.5452 14.8088C15.555 14.7798 15.5725 14.7539 15.5956 14.7339C15.6188 14.7138 15.6469 14.7003 15.6771 14.6947L16.2643 14.5897C16.3071 14.582 16.3454 14.5584 16.3716 14.5236C16.3977 14.4888 16.4098 14.4455 16.4053 14.4022L16.2651 12.8572C16.2623 12.8292 16.2532 12.8022 16.2385 12.7781C16.2238 12.7541 16.2039 12.7337 16.1803 12.7184C15.6126 12.3582 15.0012 12.0721 14.3608 11.8672C14.3479 11.8856 14.3378 11.9058 14.3308 11.9272L12.4753 16.2419Z" fill="url(#paint22_linear_810_9820)"/>
<path d="M12.4753 16.2419C12.2788 16.6289 12.2788 16.9484 12.2788 17.2214V19.4647C12.2788 19.5922 12.4348 19.6597 12.5241 19.5622L16.1376 15.8422C16.2051 15.7747 16.2051 15.6697 16.1451 15.6022L15.5803 14.9797C15.5598 14.9569 15.5457 14.9291 15.5396 14.899C15.5334 14.869 15.5353 14.8379 15.5452 14.8088C15.555 14.7798 15.5725 14.7539 15.5956 14.7339C15.6188 14.7138 15.6469 14.7003 15.6771 14.6947L16.2643 14.5897C16.3071 14.582 16.3454 14.5584 16.3716 14.5236C16.3977 14.4888 16.4098 14.4455 16.4053 14.4022L16.2651 12.8572C16.2623 12.8292 16.2532 12.8022 16.2385 12.7781C16.2238 12.7541 16.2039 12.7337 16.1803 12.7184C15.6126 12.3582 15.0012 12.0721 14.3608 11.8672C14.3479 11.8856 14.3378 11.9058 14.3308 11.9272L12.4753 16.2419Z" fill="url(#paint23_radial_810_9820)"/>
<path d="M12.4753 16.2419C12.2788 16.6289 12.2788 16.9484 12.2788 17.2214V19.4647C12.2788 19.5922 12.4348 19.6597 12.5241 19.5622L16.1376 15.8422C16.2051 15.7747 16.2051 15.6697 16.1451 15.6022L15.5803 14.9797C15.5598 14.9569 15.5457 14.9291 15.5396 14.899C15.5334 14.869 15.5353 14.8379 15.5452 14.8088C15.555 14.7798 15.5725 14.7539 15.5956 14.7339C15.6188 14.7138 15.6469 14.7003 15.6771 14.6947L16.2643 14.5897C16.3071 14.582 16.3454 14.5584 16.3716 14.5236C16.3977 14.4888 16.4098 14.4455 16.4053 14.4022L16.2651 12.8572C16.2623 12.8292 16.2532 12.8022 16.2385 12.7781C16.2238 12.7541 16.2039 12.7337 16.1803 12.7184C15.6126 12.3582 15.0012 12.0721 14.3608 11.8672C14.3479 11.8856 14.3378 11.9058 14.3308 11.9272L12.4753 16.2419Z" fill="url(#paint24_radial_810_9820)"/>
<path d="M12.4753 16.2419C12.2788 16.6289 12.2788 16.9484 12.2788 17.2214V19.4647C12.2788 19.5922 12.4348 19.6597 12.5241 19.5622L16.1376 15.8422C16.2051 15.7747 16.2051 15.6697 16.1451 15.6022L15.5803 14.9797C15.5598 14.9569 15.5457 14.9291 15.5396 14.899C15.5334 14.869 15.5353 14.8379 15.5452 14.8088C15.555 14.7798 15.5725 14.7539 15.5956 14.7339C15.6188 14.7138 15.6469 14.7003 15.6771 14.6947L16.2643 14.5897C16.3071 14.582 16.3454 14.5584 16.3716 14.5236C16.3977 14.4888 16.4098 14.4455 16.4053 14.4022L16.2651 12.8572C16.2623 12.8292 16.2532 12.8022 16.2385 12.7781C16.2238 12.7541 16.2039 12.7337 16.1803 12.7184C15.6126 12.3582 15.0012 12.0721 14.3608 11.8672C14.3479 11.8856 14.3378 11.9058 14.3308 11.9272L12.4753 16.2419Z" fill="url(#paint25_radial_810_9820)"/>
<path d="M11.5163 16.2419C11.7129 16.6289 11.7129 16.9484 11.7129 17.2214V19.4647C11.7129 19.5922 11.5569 19.6597 11.4676 19.5622L7.8541 15.8422C7.82259 15.8106 7.80428 15.7682 7.80288 15.7237C7.80149 15.6791 7.81712 15.6357 7.8466 15.6022L8.4121 14.9797C8.50135 14.8822 8.4496 14.7172 8.31535 14.6947L7.7281 14.5897C7.68515 14.5821 7.64665 14.5586 7.62035 14.5238C7.59405 14.489 7.5819 14.4456 7.58635 14.4022L7.72735 12.8572C7.73016 12.8292 7.73923 12.8022 7.7539 12.7781C7.76858 12.7541 7.78847 12.7337 7.8121 12.7184C8.37978 12.3582 8.99125 12.0721 9.6316 11.8672C9.64454 11.8856 9.65465 11.9058 9.6616 11.9272L11.5163 16.2419Z" fill="url(#paint26_radial_810_9820)"/>
<path d="M11.5163 16.2419C11.7129 16.6289 11.7129 16.9484 11.7129 17.2214V19.4647C11.7129 19.5922 11.5569 19.6597 11.4676 19.5622L7.8541 15.8422C7.82259 15.8106 7.80428 15.7682 7.80288 15.7237C7.80149 15.6791 7.81712 15.6357 7.8466 15.6022L8.4121 14.9797C8.50135 14.8822 8.4496 14.7172 8.31535 14.6947L7.7281 14.5897C7.68515 14.5821 7.64665 14.5586 7.62035 14.5238C7.59405 14.489 7.5819 14.4456 7.58635 14.4022L7.72735 12.8572C7.73016 12.8292 7.73923 12.8022 7.7539 12.7781C7.76858 12.7541 7.78847 12.7337 7.8121 12.7184C8.37978 12.3582 8.99125 12.0721 9.6316 11.8672C9.64454 11.8856 9.65465 11.9058 9.6616 11.9272L11.5163 16.2419Z" fill="url(#paint27_radial_810_9820)"/>
<path d="M11.5163 16.2419C11.7129 16.6289 11.7129 16.9484 11.7129 17.2214V19.4647C11.7129 19.5922 11.5569 19.6597 11.4676 19.5622L7.8541 15.8422C7.82259 15.8106 7.80428 15.7682 7.80288 15.7237C7.80149 15.6791 7.81712 15.6357 7.8466 15.6022L8.4121 14.9797C8.50135 14.8822 8.4496 14.7172 8.31535 14.6947L7.7281 14.5897C7.68515 14.5821 7.64665 14.5586 7.62035 14.5238C7.59405 14.489 7.5819 14.4456 7.58635 14.4022L7.72735 12.8572C7.73016 12.8292 7.73923 12.8022 7.7539 12.7781C7.76858 12.7541 7.78847 12.7337 7.8121 12.7184C8.37978 12.3582 8.99125 12.0721 9.6316 11.8672C9.64454 11.8856 9.65465 11.9058 9.6616 11.9272L11.5163 16.2419Z" fill="url(#paint28_linear_810_9820)"/>
<path d="M11.5163 16.2419C11.7129 16.6289 11.7129 16.9484 11.7129 17.2214V19.4647C11.7129 19.5922 11.5569 19.6597 11.4676 19.5622L7.8541 15.8422C7.82259 15.8106 7.80428 15.7682 7.80288 15.7237C7.80149 15.6791 7.81712 15.6357 7.8466 15.6022L8.4121 14.9797C8.50135 14.8822 8.4496 14.7172 8.31535 14.6947L7.7281 14.5897C7.68515 14.5821 7.64665 14.5586 7.62035 14.5238C7.59405 14.489 7.5819 14.4456 7.58635 14.4022L7.72735 12.8572C7.73016 12.8292 7.73923 12.8022 7.7539 12.7781C7.76858 12.7541 7.78847 12.7337 7.8121 12.7184C8.37978 12.3582 8.99125 12.0721 9.6316 11.8672C9.64454 11.8856 9.65465 11.9058 9.6616 11.9272L11.5163 16.2419Z" fill="url(#paint29_radial_810_9820)"/>
<path d="M11.5163 16.2419C11.7129 16.6289 11.7129 16.9484 11.7129 17.2214V19.4647C11.7129 19.5922 11.5569 19.6597 11.4676 19.5622L7.8541 15.8422C7.82259 15.8106 7.80428 15.7682 7.80288 15.7237C7.80149 15.6791 7.81712 15.6357 7.8466 15.6022L8.4121 14.9797C8.50135 14.8822 8.4496 14.7172 8.31535 14.6947L7.7281 14.5897C7.68515 14.5821 7.64665 14.5586 7.62035 14.5238C7.59405 14.489 7.5819 14.4456 7.58635 14.4022L7.72735 12.8572C7.73016 12.8292 7.73923 12.8022 7.7539 12.7781C7.76858 12.7541 7.78847 12.7337 7.8121 12.7184C8.37978 12.3582 8.99125 12.0721 9.6316 11.8672C9.64454 11.8856 9.65465 11.9058 9.6616 11.9272L11.5163 16.2419Z" fill="url(#paint30_radial_810_9820)"/>
<path d="M11.5163 16.2419C11.7129 16.6289 11.7129 16.9484 11.7129 17.2214V19.4647C11.7129 19.5922 11.5569 19.6597 11.4676 19.5622L7.8541 15.8422C7.82259 15.8106 7.80428 15.7682 7.80288 15.7237C7.80149 15.6791 7.81712 15.6357 7.8466 15.6022L8.4121 14.9797C8.50135 14.8822 8.4496 14.7172 8.31535 14.6947L7.7281 14.5897C7.68515 14.5821 7.64665 14.5586 7.62035 14.5238C7.59405 14.489 7.5819 14.4456 7.58635 14.4022L7.72735 12.8572C7.73016 12.8292 7.73923 12.8022 7.7539 12.7781C7.76858 12.7541 7.78847 12.7337 7.8121 12.7184C8.37978 12.3582 8.99125 12.0721 9.6316 11.8672C9.64454 11.8856 9.65465 11.9058 9.6616 11.9272L11.5163 16.2419Z" fill="url(#paint31_radial_810_9820)"/>
<path d="M11.9773 14.0143C11.5596 14.0143 11.159 13.8484 10.8637 13.553C10.5683 13.2576 10.4023 12.857 10.4023 12.4393V11.4043H13.5523V12.4393C13.5523 12.857 13.3864 13.2576 13.091 13.553C12.7957 13.8484 12.3951 14.0143 11.9773 14.0143Z" fill="url(#paint32_radial_810_9820)"/>
<path fill-rule="evenodd" clip-rule="evenodd" d="M11.9399 11.3151C11.2954 11.3151 10.6773 11.5711 10.2216 12.0268C9.76592 12.4825 9.5099 13.1006 9.5099 13.7451V15.3576H8.7749V13.7451C8.7749 12.9057 9.10836 12.1006 9.70191 11.5071C10.2955 10.9135 11.1005 10.5801 11.9399 10.5801C12.7793 10.5801 13.5843 10.9135 14.1779 11.5071C14.7714 12.1006 15.1049 12.9057 15.1049 13.7451V19.0851H14.3699V13.7451C14.3699 13.1006 14.1139 12.4825 13.6582 12.0268C13.2025 11.5711 12.5844 11.3151 11.9399 11.3151Z" fill="#534675"/>
<path fill-rule="evenodd" clip-rule="evenodd" d="M11.9399 11.3151C11.2954 11.3151 10.6773 11.5711 10.2216 12.0268C9.76592 12.4825 9.5099 13.1006 9.5099 13.7451V15.3576H8.7749V13.7451C8.7749 12.9057 9.10836 12.1006 9.70191 11.5071C10.2955 10.9135 11.1005 10.5801 11.9399 10.5801C12.7793 10.5801 13.5843 10.9135 14.1779 11.5071C14.7714 12.1006 15.1049 12.9057 15.1049 13.7451V19.0851H14.3699V13.7451C14.3699 13.1006 14.1139 12.4825 13.6582 12.0268C13.2025 11.5711 12.5844 11.3151 11.9399 11.3151Z" fill="url(#paint33_linear_810_9820)"/>
<path fill-rule="evenodd" clip-rule="evenodd" d="M11.9399 11.3151C11.2954 11.3151 10.6773 11.5711 10.2216 12.0268C9.76592 12.4825 9.5099 13.1006 9.5099 13.7451V15.3576H8.7749V13.7451C8.7749 12.9057 9.10836 12.1006 9.70191 11.5071C10.2955 10.9135 11.1005 10.5801 11.9399 10.5801C12.7793 10.5801 13.5843 10.9135 14.1779 11.5071C14.7714 12.1006 15.1049 12.9057 15.1049 13.7451V19.0851H14.3699V13.7451C14.3699 13.1006 14.1139 12.4825 13.6582 12.0268C13.2025 11.5711 12.5844 11.3151 11.9399 11.3151Z" fill="url(#paint34_radial_810_9820)"/>
<path fill-rule="evenodd" clip-rule="evenodd" d="M11.9399 11.3151C11.2954 11.3151 10.6773 11.5711 10.2216 12.0268C9.76592 12.4825 9.5099 13.1006 9.5099 13.7451V15.3576H8.7749V13.7451C8.7749 12.9057 9.10836 12.1006 9.70191 11.5071C10.2955 10.9135 11.1005 10.5801 11.9399 10.5801C12.7793 10.5801 13.5843 10.9135 14.1779 11.5071C14.7714 12.1006 15.1049 12.9057 15.1049 13.7451V19.0851H14.3699V13.7451C14.3699 13.1006 14.1139 12.4825 13.6582 12.0268C13.2025 11.5711 12.5844 11.3151 11.9399 11.3151Z" fill="url(#paint35_radial_810_9820)"/>
<path fill-rule="evenodd" clip-rule="evenodd" d="M11.9399 11.3151C11.2954 11.3151 10.6773 11.5711 10.2216 12.0268C9.76592 12.4825 9.5099 13.1006 9.5099 13.7451V15.3576H8.7749V13.7451C8.7749 12.9057 9.10836 12.1006 9.70191 11.5071C10.2955 10.9135 11.1005 10.5801 11.9399 10.5801C12.7793 10.5801 13.5843 10.9135 14.1779 11.5071C14.7714 12.1006 15.1049 12.9057 15.1049 13.7451V19.0851H14.3699V13.7451C14.3699 13.1006 14.1139 12.4825 13.6582 12.0268C13.2025 11.5711 12.5844 11.3151 11.9399 11.3151Z" fill="url(#paint36_radial_810_9820)"/>
<g filter="url(#filter2_f_810_9820)">
<path d="M14.1224 20.1926C14.2328 20.1959 14.3427 20.1771 14.4457 20.1371C14.5486 20.0972 14.6425 20.037 14.7218 19.9601C14.801 19.8832 14.864 19.7911 14.9071 19.6894C14.9501 19.5877 14.9723 19.4784 14.9723 19.368C14.9723 19.2575 14.9501 19.1482 14.9071 19.0465C14.864 18.9448 14.801 18.8528 14.7218 18.7759C14.6425 18.699 14.5486 18.6388 14.4457 18.5988C14.3427 18.5589 14.2328 18.54 14.1224 18.5433C13.908 18.5498 13.7045 18.6395 13.5552 18.7935C13.4058 18.9474 13.3223 19.1535 13.3223 19.368C13.3223 19.5825 13.4058 19.7885 13.5552 19.9425C13.7045 20.0964 13.908 20.1861 14.1224 20.1926Z" fill="#AFA3C5"/>
</g>
<path d="M14.7448 20.0209C14.9954 20.0209 15.2358 19.9213 15.413 19.7441C15.5902 19.5669 15.6898 19.3265 15.6898 19.0759C15.6898 18.8252 15.5902 18.5849 15.413 18.4076C15.2358 18.2304 14.9954 18.1309 14.7448 18.1309C14.4942 18.1309 14.2538 18.2304 14.0766 18.4076C13.8994 18.5849 13.7998 18.8252 13.7998 19.0759C13.7998 19.3265 13.8994 19.5669 14.0766 19.7441C14.2538 19.9213 14.4942 20.0209 14.7448 20.0209Z" fill="url(#paint37_radial_810_9820)"/>
<g filter="url(#filter3_i_810_9820)">
<path d="M14.7449 19.6099C14.8861 19.6099 15.0216 19.5538 15.1214 19.454C15.2213 19.3541 15.2774 19.2187 15.2774 19.0774C15.2774 18.9362 15.2213 18.8008 15.1214 18.7009C15.0216 18.601 14.8861 18.5449 14.7449 18.5449C14.6037 18.5449 14.4682 18.601 14.3684 18.7009C14.2685 18.8008 14.2124 18.9362 14.2124 19.0774C14.2124 19.2187 14.2685 19.3541 14.3684 19.454C14.4682 19.5538 14.6037 19.6099 14.7449 19.6099Z" fill="url(#paint38_radial_810_9820)"/>
</g>
<g filter="url(#filter4_i_810_9820)">
<path fill-rule="evenodd" clip-rule="evenodd" d="M9.1425 15.6205C8.4375 15.6205 7.86 16.192 7.86 16.903V19.3773H8.3625C8.45997 19.3773 8.55344 19.416 8.62236 19.4849C8.69128 19.5538 8.73 19.6473 8.73 19.7448C8.73 19.8422 8.69128 19.9357 8.62236 20.0046C8.55344 20.0735 8.45997 20.1123 8.3625 20.1123H7.6125C7.48321 20.1123 7.35921 20.0609 7.26779 19.9695C7.17636 19.8781 7.125 19.7541 7.125 19.6248V16.9023C7.125 16.3672 7.33756 15.854 7.71591 15.4757C8.09427 15.0973 8.60743 14.8848 9.1425 14.8848C9.67757 14.8848 10.1907 15.0973 10.5691 15.4757C10.9474 15.854 11.16 16.3672 11.16 16.9023V19.6248C11.16 19.8955 10.9425 20.1123 10.6725 20.1123H9.975C9.87753 20.1123 9.78406 20.0735 9.71514 20.0046C9.64622 19.9357 9.6075 19.8422 9.6075 19.7448C9.6075 19.6473 9.64622 19.5538 9.71514 19.4849C9.78406 19.416 9.87753 19.3773 9.975 19.3773H10.425V16.9023C10.425 16.1973 9.8535 15.6205 9.1425 15.6205Z" fill="url(#paint39_linear_810_9820)"/>
</g>
<g filter="url(#filter5_f_810_9820)">
<path d="M8.38123 19.6956H7.63123C7.56373 19.6956 7.51123 19.6431 7.51123 19.5756V16.8531C7.51123 16.4155 7.68507 15.9958 7.9945 15.6864C8.30394 15.377 8.72362 15.2031 9.16123 15.2031C9.59884 15.2031 10.0185 15.377 10.328 15.6864C10.6374 15.9958 10.8112 16.4155 10.8112 16.8531V19.5756C10.8112 19.6431 10.7587 19.6956 10.6912 19.6956H9.99373" stroke="#6A5D85" stroke-width="0.15" stroke-miterlimit="10" stroke-linecap="round" stroke-linejoin="round"/>
</g>
<path fill-rule="evenodd" clip-rule="evenodd" d="M7.125 19.6162V17.7637H7.86V19.3687H8.0475V20.1037H7.6125C7.48321 20.1037 7.35921 20.0523 7.26779 19.9609C7.17636 19.8695 7.125 19.7455 7.125 19.6162Z" fill="url(#paint40_linear_810_9820)"/>
<path fill-rule="evenodd" clip-rule="evenodd" d="M7.125 19.6162V17.7637H7.86V19.3687H8.0475V20.1037H7.6125C7.48321 20.1037 7.35921 20.0523 7.26779 19.9609C7.17636 19.8695 7.125 19.7455 7.125 19.6162Z" fill="url(#paint41_radial_810_9820)"/>
<path fill-rule="evenodd" clip-rule="evenodd" d="M11.1598 17.7715V19.624C11.1598 19.8947 10.9423 20.1115 10.6723 20.1115H10.2373V19.3765H10.4248V17.7715H11.1598Z" fill="url(#paint42_linear_810_9820)"/>
<path fill-rule="evenodd" clip-rule="evenodd" d="M11.1598 17.7715V19.624C11.1598 19.8947 10.9423 20.1115 10.6723 20.1115H10.2373V19.3765H10.4248V17.7715H11.1598Z" fill="url(#paint43_linear_810_9820)"/>
<path d="M15.6087 9.12433C15.8607 9.11683 16.0962 9.03133 16.2875 8.89258V9.59083C16.2875 10.2613 15.8885 10.8583 15.2817 11.1058C15.4097 10.8328 15.4962 10.5378 15.5412 10.2208L15.6087 9.12433Z" fill="url(#paint44_radial_810_9820)"/>
<path d="M8.31742 9.12433C8.07317 9.11622 7.83688 9.03554 7.63867 8.89258V9.59083C7.63867 10.2613 8.03767 10.8583 8.64442 11.1058C8.51392 10.8256 8.42644 10.5272 8.38492 10.2208L8.31742 9.12433Z" fill="url(#paint45_radial_810_9820)"/>
<g filter="url(#filter6_ii_810_9820)">
<path d="M8.34425 10.2598C8.43713 10.9669 8.78408 11.616 9.32036 12.086C9.85665 12.5561 10.5456 12.815 11.2588 12.8143H12.6733C13.3864 12.815 14.0754 12.5561 14.6116 12.086C15.1479 11.616 15.4949 10.9669 15.5878 10.2598C15.6763 8.84759 15.7655 7.43984 15.8308 6.02834C15.8276 5.75125 15.7189 5.4858 15.5267 5.2862C15.3344 5.08659 15.0733 4.9679 14.7965 4.95434H13.7465C13.0303 4.95434 12.3815 4.53209 12.0875 3.87209C12.051 3.77954 11.9875 3.70012 11.9052 3.6442C11.823 3.58828 11.7257 3.55845 11.6263 3.55859H10.6723C9.2885 3.55859 8.1665 4.69259 8.1665 6.09284C8.1665 7.48784 8.25275 8.86109 8.34425 10.2598Z" fill="url(#paint46_radial_810_9820)"/>
</g>
<path d="M8.34425 10.2598C8.43713 10.9669 8.78408 11.616 9.32036 12.086C9.85665 12.5561 10.5456 12.815 11.2588 12.8143H12.6733C13.3864 12.815 14.0754 12.5561 14.6116 12.086C15.1479 11.616 15.4949 10.9669 15.5878 10.2598C15.6763 8.84759 15.7655 7.43984 15.8308 6.02834C15.8276 5.75125 15.7189 5.4858 15.5267 5.2862C15.3344 5.08659 15.0733 4.9679 14.7965 4.95434H13.7465C13.0303 4.95434 12.3815 4.53209 12.0875 3.87209C12.051 3.77954 11.9875 3.70012 11.9052 3.6442C11.823 3.58828 11.7257 3.55845 11.6263 3.55859H10.6723C9.2885 3.55859 8.1665 4.69259 8.1665 6.09284C8.1665 7.48784 8.25275 8.86109 8.34425 10.2598Z" fill="url(#paint47_linear_810_9820)"/>
<path d="M8.34425 10.2598C8.43713 10.9669 8.78408 11.616 9.32036 12.086C9.85665 12.5561 10.5456 12.815 11.2588 12.8143H12.6733C13.3864 12.815 14.0754 12.5561 14.6116 12.086C15.1479 11.616 15.4949 10.9669 15.5878 10.2598C15.6763 8.84759 15.7655 7.43984 15.8308 6.02834C15.8276 5.75125 15.7189 5.4858 15.5267 5.2862C15.3344 5.08659 15.0733 4.9679 14.7965 4.95434H13.7465C13.0303 4.95434 12.3815 4.53209 12.0875 3.87209C12.051 3.77954 11.9875 3.70012 11.9052 3.6442C11.823 3.58828 11.7257 3.55845 11.6263 3.55859H10.6723C9.2885 3.55859 8.1665 4.69259 8.1665 6.09284C8.1665 7.48784 8.25275 8.86109 8.34425 10.2598Z" fill="url(#paint48_radial_810_9820)"/>
<path d="M8.34425 10.2598C8.43713 10.9669 8.78408 11.616 9.32036 12.086C9.85665 12.5561 10.5456 12.815 11.2588 12.8143H12.6733C13.3864 12.815 14.0754 12.5561 14.6116 12.086C15.1479 11.616 15.4949 10.9669 15.5878 10.2598C15.6763 8.84759 15.7655 7.43984 15.8308 6.02834C15.8276 5.75125 15.7189 5.4858 15.5267 5.2862C15.3344 5.08659 15.0733 4.9679 14.7965 4.95434H13.7465C13.0303 4.95434 12.3815 4.53209 12.0875 3.87209C12.051 3.77954 11.9875 3.70012 11.9052 3.6442C11.823 3.58828 11.7257 3.55845 11.6263 3.55859H10.6723C9.2885 3.55859 8.1665 4.69259 8.1665 6.09284C8.1665 7.48784 8.25275 8.86109 8.34425 10.2598Z" fill="url(#paint49_radial_810_9820)"/>
<path d="M8.34425 10.2598C8.43713 10.9669 8.78408 11.616 9.32036 12.086C9.85665 12.5561 10.5456 12.815 11.2588 12.8143H12.6733C13.3864 12.815 14.0754 12.5561 14.6116 12.086C15.1479 11.616 15.4949 10.9669 15.5878 10.2598C15.6763 8.84759 15.7655 7.43984 15.8308 6.02834C15.8276 5.75125 15.7189 5.4858 15.5267 5.2862C15.3344 5.08659 15.0733 4.9679 14.7965 4.95434H13.7465C13.0303 4.95434 12.3815 4.53209 12.0875 3.87209C12.051 3.77954 11.9875 3.70012 11.9052 3.6442C11.823 3.58828 11.7257 3.55845 11.6263 3.55859H10.6723C9.2885 3.55859 8.1665 4.69259 8.1665 6.09284C8.1665 7.48784 8.25275 8.86109 8.34425 10.2598Z" fill="url(#paint50_radial_810_9820)"/>
<path d="M8.34425 10.2598C8.43713 10.9669 8.78408 11.616 9.32036 12.086C9.85665 12.5561 10.5456 12.815 11.2588 12.8143H12.6733C13.3864 12.815 14.0754 12.5561 14.6116 12.086C15.1479 11.616 15.4949 10.9669 15.5878 10.2598C15.6763 8.84759 15.7655 7.43984 15.8308 6.02834C15.8276 5.75125 15.7189 5.4858 15.5267 5.2862C15.3344 5.08659 15.0733 4.9679 14.7965 4.95434H13.7465C13.0303 4.95434 12.3815 4.53209 12.0875 3.87209C12.051 3.77954 11.9875 3.70012 11.9052 3.6442C11.823 3.58828 11.7257 3.55845 11.6263 3.55859H10.6723C9.2885 3.55859 8.1665 4.69259 8.1665 6.09284C8.1665 7.48784 8.25275 8.86109 8.34425 10.2598Z" fill="url(#paint51_radial_810_9820)"/>
<path d="M8.34425 10.2598C8.43713 10.9669 8.78408 11.616 9.32036 12.086C9.85665 12.5561 10.5456 12.815 11.2588 12.8143H12.6733C13.3864 12.815 14.0754 12.5561 14.6116 12.086C15.1479 11.616 15.4949 10.9669 15.5878 10.2598C15.6763 8.84759 15.7655 7.43984 15.8308 6.02834C15.8276 5.75125 15.7189 5.4858 15.5267 5.2862C15.3344 5.08659 15.0733 4.9679 14.7965 4.95434H13.7465C13.0303 4.95434 12.3815 4.53209 12.0875 3.87209C12.051 3.77954 11.9875 3.70012 11.9052 3.6442C11.823 3.58828 11.7257 3.55845 11.6263 3.55859H10.6723C9.2885 3.55859 8.1665 4.69259 8.1665 6.09284C8.1665 7.48784 8.25275 8.86109 8.34425 10.2598Z" fill="url(#paint52_radial_810_9820)"/>
<path d="M8.34425 10.2598C8.43713 10.9669 8.78408 11.616 9.32036 12.086C9.85665 12.5561 10.5456 12.815 11.2588 12.8143H12.6733C13.3864 12.815 14.0754 12.5561 14.6116 12.086C15.1479 11.616 15.4949 10.9669 15.5878 10.2598C15.6763 8.84759 15.7655 7.43984 15.8308 6.02834C15.8276 5.75125 15.7189 5.4858 15.5267 5.2862C15.3344 5.08659 15.0733 4.9679 14.7965 4.95434H13.7465C13.0303 4.95434 12.3815 4.53209 12.0875 3.87209C12.051 3.77954 11.9875 3.70012 11.9052 3.6442C11.823 3.58828 11.7257 3.55845 11.6263 3.55859H10.6723C9.2885 3.55859 8.1665 4.69259 8.1665 6.09284C8.1665 7.48784 8.25275 8.86109 8.34425 10.2598Z" fill="url(#paint53_radial_810_9820)"/>
<path d="M8.34425 10.2598C8.43713 10.9669 8.78408 11.616 9.32036 12.086C9.85665 12.5561 10.5456 12.815 11.2588 12.8143H12.6733C13.3864 12.815 14.0754 12.5561 14.6116 12.086C15.1479 11.616 15.4949 10.9669 15.5878 10.2598C15.6763 8.84759 15.7655 7.43984 15.8308 6.02834C15.8276 5.75125 15.7189 5.4858 15.5267 5.2862C15.3344 5.08659 15.0733 4.9679 14.7965 4.95434H13.7465C13.0303 4.95434 12.3815 4.53209 12.0875 3.87209C12.051 3.77954 11.9875 3.70012 11.9052 3.6442C11.823 3.58828 11.7257 3.55845 11.6263 3.55859H10.6723C9.2885 3.55859 8.1665 4.69259 8.1665 6.09284C8.1665 7.48784 8.25275 8.86109 8.34425 10.2598Z" fill="url(#paint54_radial_810_9820)"/>
<path d="M8.34425 10.2598C8.43713 10.9669 8.78408 11.616 9.32036 12.086C9.85665 12.5561 10.5456 12.815 11.2588 12.8143H12.6733C13.3864 12.815 14.0754 12.5561 14.6116 12.086C15.1479 11.616 15.4949 10.9669 15.5878 10.2598C15.6763 8.84759 15.7655 7.43984 15.8308 6.02834C15.8276 5.75125 15.7189 5.4858 15.5267 5.2862C15.3344 5.08659 15.0733 4.9679 14.7965 4.95434H13.7465C13.0303 4.95434 12.3815 4.53209 12.0875 3.87209C12.051 3.77954 11.9875 3.70012 11.9052 3.6442C11.823 3.58828 11.7257 3.55845 11.6263 3.55859H10.6723C9.2885 3.55859 8.1665 4.69259 8.1665 6.09284C8.1665 7.48784 8.25275 8.86109 8.34425 10.2598Z" fill="url(#paint55_linear_810_9820)"/>
<g filter="url(#filter7_f_810_9820)">
<path d="M11.6623 7.7973L11.219 9.17655C11.1433 9.46005 11.3248 9.74355 11.582 9.74355H12.131C12.3883 9.74355 12.5698 9.45555 12.494 9.17655L12.1235 7.7973C12.044 7.49205 11.7455 7.49205 11.6623 7.7973Z" fill="#331E24"/>
</g>
<g filter="url(#filter8_f_810_9820)">
<path d="M11.6768 7.64886L11.2778 9.02811C11.1968 9.31161 11.3918 9.59511 11.6678 9.59511H12.258C12.5348 9.59511 12.7305 9.30711 12.648 9.02811L12.2505 7.64886C12.165 7.34361 11.766 7.34361 11.6768 7.64886Z" fill="#402929"/>
<path d="M11.6768 7.64886L11.2778 9.02811C11.1968 9.31161 11.3918 9.59511 11.6678 9.59511H12.258C12.5348 9.59511 12.7305 9.30711 12.648 9.02811L12.2505 7.64886C12.165 7.34361 11.766 7.34361 11.6768 7.64886Z" fill="url(#paint56_linear_810_9820)"/>
<path d="M11.6768 7.64886L11.2778 9.02811C11.1968 9.31161 11.3918 9.59511 11.6678 9.59511H12.258C12.5348 9.59511 12.7305 9.30711 12.648 9.02811L12.2505 7.64886C12.165 7.34361 11.766 7.34361 11.6768 7.64886Z" fill="url(#paint57_radial_810_9820)"/>
<path d="M11.6768 7.64886L11.2778 9.02811C11.1968 9.31161 11.3918 9.59511 11.6678 9.59511H12.258C12.5348 9.59511 12.7305 9.30711 12.648 9.02811L12.2505 7.64886C12.165 7.34361 11.766 7.34361 11.6768 7.64886Z" fill="url(#paint58_linear_810_9820)"/>
<path d="M11.6768 7.64886L11.2778 9.02811C11.1968 9.31161 11.3918 9.59511 11.6678 9.59511H12.258C12.5348 9.59511 12.7305 9.30711 12.648 9.02811L12.2505 7.64886C12.165 7.34361 11.766 7.34361 11.6768 7.64886Z" fill="url(#paint59_radial_810_9820)"/>
<path d="M11.6768 7.64886L11.2778 9.02811C11.1968 9.31161 11.3918 9.59511 11.6678 9.59511H12.258C12.5348 9.59511 12.7305 9.30711 12.648 9.02811L12.2505 7.64886C12.165 7.34361 11.766 7.34361 11.6768 7.64886Z" fill="url(#paint60_linear_810_9820)"/>
</g>
<g filter="url(#filter9_f_810_9820)">
<path d="M10.9501 10.0621C10.917 10.0453 10.8793 10.0396 10.8426 10.046C10.806 10.0523 10.7724 10.0704 10.7469 10.0973C10.7204 10.1235 10.7041 10.1582 10.7008 10.1953C10.6975 10.2324 10.7075 10.2694 10.7289 10.2998C10.9906 10.6958 11.4459 10.9598 11.9634 10.9598C12.4809 10.9598 12.9361 10.6958 13.1979 10.2998C13.2193 10.269 13.2292 10.2316 13.2259 10.1942C13.2226 10.1568 13.2063 10.1217 13.1799 10.0951C13.1541 10.0686 13.1205 10.0512 13.0841 10.0452C13.0476 10.0393 13.0102 10.0452 12.9774 10.0621C12.6849 10.2143 12.3391 10.3021 11.9634 10.3021C11.6114 10.3052 11.2632 10.2228 10.9501 10.0621Z" stroke="url(#paint61_linear_810_9820)" stroke-width="0.075"/>
</g>
<path d="M11.9632 10.3597C11.5822 10.3597 11.2244 10.2697 10.9244 10.1137C10.8209 10.0612 10.7107 10.1767 10.7759 10.2705C11.0272 10.6507 11.4644 10.905 11.9632 10.905C12.4619 10.905 12.8992 10.6507 13.1504 10.2705C13.2157 10.173 13.1054 10.0605 13.0019 10.113C12.6805 10.2774 12.3242 10.362 11.9632 10.3597Z" fill="url(#paint62_radial_810_9820)"/>
<g filter="url(#filter10_ii_810_9820)">
<path d="M15.6046 3.20378C16.0072 3.34173 16.3452 3.62243 16.5549 3.99278C16.7218 4.28387 16.8029 4.61626 16.7888 4.95152C16.7748 5.28677 16.6661 5.6112 16.4754 5.88728C16.3439 6.08064 16.2733 6.30896 16.2729 6.54278V7.43378C16.1223 7.33189 15.9518 7.26336 15.7726 7.23278L15.8311 6.02828C15.828 5.75119 15.7192 5.48574 15.527 5.28613C15.3348 5.08653 15.0736 4.96783 14.7969 4.95428H13.7469C13.0306 4.95428 12.3819 4.53128 12.0879 3.87203C12.0515 3.77934 11.988 3.69976 11.9057 3.6437C11.8235 3.58764 11.7262 3.55769 11.6266 3.55778H10.6726C9.2881 3.55778 8.16685 4.69253 8.16685 6.09278L8.18935 7.24553C7.99668 7.26931 7.81199 7.33678 7.64935 7.44278V6.54278C7.64887 6.30896 7.57834 6.08064 7.44685 5.88728C7.26509 5.61964 7.15915 5.3078 7.14026 4.98482C7.12138 4.66184 7.19026 4.33978 7.3396 4.05278C7.54544 3.65787 7.89372 3.35598 8.31385 3.20828C8.74434 3.05667 9.1104 2.76308 9.35185 2.37578C9.57168 2.02144 9.9112 1.75761 10.3089 1.63212C10.7065 1.50664 11.136 1.5278 11.5194 1.69178C11.6607 1.75309 11.8131 1.78472 11.9671 1.78472C12.1211 1.78472 12.2735 1.75309 12.4149 1.69178C12.6256 1.60328 12.8566 1.55078 13.0996 1.55078C13.7319 1.55078 14.2846 1.89278 14.5906 2.39978C14.8216 2.78228 15.1824 3.05978 15.6046 3.20378Z" fill="url(#paint63_linear_810_9820)"/>
<path d="M15.6046 3.20378C16.0072 3.34173 16.3452 3.62243 16.5549 3.99278C16.7218 4.28387 16.8029 4.61626 16.7888 4.95152C16.7748 5.28677 16.6661 5.6112 16.4754 5.88728C16.3439 6.08064 16.2733 6.30896 16.2729 6.54278V7.43378C16.1223 7.33189 15.9518 7.26336 15.7726 7.23278L15.8311 6.02828C15.828 5.75119 15.7192 5.48574 15.527 5.28613C15.3348 5.08653 15.0736 4.96783 14.7969 4.95428H13.7469C13.0306 4.95428 12.3819 4.53128 12.0879 3.87203C12.0515 3.77934 11.988 3.69976 11.9057 3.6437C11.8235 3.58764 11.7262 3.55769 11.6266 3.55778H10.6726C9.2881 3.55778 8.16685 4.69253 8.16685 6.09278L8.18935 7.24553C7.99668 7.26931 7.81199 7.33678 7.64935 7.44278V6.54278C7.64887 6.30896 7.57834 6.08064 7.44685 5.88728C7.26509 5.61964 7.15915 5.3078 7.14026 4.98482C7.12138 4.66184 7.19026 4.33978 7.3396 4.05278C7.54544 3.65787 7.89372 3.35598 8.31385 3.20828C8.74434 3.05667 9.1104 2.76308 9.35185 2.37578C9.57168 2.02144 9.9112 1.75761 10.3089 1.63212C10.7065 1.50664 11.136 1.5278 11.5194 1.69178C11.6607 1.75309 11.8131 1.78472 11.9671 1.78472C12.1211 1.78472 12.2735 1.75309 12.4149 1.69178C12.6256 1.60328 12.8566 1.55078 13.0996 1.55078C13.7319 1.55078 14.2846 1.89278 14.5906 2.39978C14.8216 2.78228 15.1824 3.05978 15.6046 3.20378Z" fill="url(#paint64_radial_810_9820)"/>
<path d="M15.6046 3.20378C16.0072 3.34173 16.3452 3.62243 16.5549 3.99278C16.7218 4.28387 16.8029 4.61626 16.7888 4.95152C16.7748 5.28677 16.6661 5.6112 16.4754 5.88728C16.3439 6.08064 16.2733 6.30896 16.2729 6.54278V7.43378C16.1223 7.33189 15.9518 7.26336 15.7726 7.23278L15.8311 6.02828C15.828 5.75119 15.7192 5.48574 15.527 5.28613C15.3348 5.08653 15.0736 4.96783 14.7969 4.95428H13.7469C13.0306 4.95428 12.3819 4.53128 12.0879 3.87203C12.0515 3.77934 11.988 3.69976 11.9057 3.6437C11.8235 3.58764 11.7262 3.55769 11.6266 3.55778H10.6726C9.2881 3.55778 8.16685 4.69253 8.16685 6.09278L8.18935 7.24553C7.99668 7.26931 7.81199 7.33678 7.64935 7.44278V6.54278C7.64887 6.30896 7.57834 6.08064 7.44685 5.88728C7.26509 5.61964 7.15915 5.3078 7.14026 4.98482C7.12138 4.66184 7.19026 4.33978 7.3396 4.05278C7.54544 3.65787 7.89372 3.35598 8.31385 3.20828C8.74434 3.05667 9.1104 2.76308 9.35185 2.37578C9.57168 2.02144 9.9112 1.75761 10.3089 1.63212C10.7065 1.50664 11.136 1.5278 11.5194 1.69178C11.6607 1.75309 11.8131 1.78472 11.9671 1.78472C12.1211 1.78472 12.2735 1.75309 12.4149 1.69178C12.6256 1.60328 12.8566 1.55078 13.0996 1.55078C13.7319 1.55078 14.2846 1.89278 14.5906 2.39978C14.8216 2.78228 15.1824 3.05978 15.6046 3.20378Z" fill="url(#paint65_radial_810_9820)"/>
<path d="M15.6046 3.20378C16.0072 3.34173 16.3452 3.62243 16.5549 3.99278C16.7218 4.28387 16.8029 4.61626 16.7888 4.95152C16.7748 5.28677 16.6661 5.6112 16.4754 5.88728C16.3439 6.08064 16.2733 6.30896 16.2729 6.54278V7.43378C16.1223 7.33189 15.9518 7.26336 15.7726 7.23278L15.8311 6.02828C15.828 5.75119 15.7192 5.48574 15.527 5.28613C15.3348 5.08653 15.0736 4.96783 14.7969 4.95428H13.7469C13.0306 4.95428 12.3819 4.53128 12.0879 3.87203C12.0515 3.77934 11.988 3.69976 11.9057 3.6437C11.8235 3.58764 11.7262 3.55769 11.6266 3.55778H10.6726C9.2881 3.55778 8.16685 4.69253 8.16685 6.09278L8.18935 7.24553C7.99668 7.26931 7.81199 7.33678 7.64935 7.44278V6.54278C7.64887 6.30896 7.57834 6.08064 7.44685 5.88728C7.26509 5.61964 7.15915 5.3078 7.14026 4.98482C7.12138 4.66184 7.19026 4.33978 7.3396 4.05278C7.54544 3.65787 7.89372 3.35598 8.31385 3.20828C8.74434 3.05667 9.1104 2.76308 9.35185 2.37578C9.57168 2.02144 9.9112 1.75761 10.3089 1.63212C10.7065 1.50664 11.136 1.5278 11.5194 1.69178C11.6607 1.75309 11.8131 1.78472 11.9671 1.78472C12.1211 1.78472 12.2735 1.75309 12.4149 1.69178C12.6256 1.60328 12.8566 1.55078 13.0996 1.55078C13.7319 1.55078 14.2846 1.89278 14.5906 2.39978C14.8216 2.78228 15.1824 3.05978 15.6046 3.20378Z" fill="url(#paint66_radial_810_9820)"/>
<path d="M15.6046 3.20378C16.0072 3.34173 16.3452 3.62243 16.5549 3.99278C16.7218 4.28387 16.8029 4.61626 16.7888 4.95152C16.7748 5.28677 16.6661 5.6112 16.4754 5.88728C16.3439 6.08064 16.2733 6.30896 16.2729 6.54278V7.43378C16.1223 7.33189 15.9518 7.26336 15.7726 7.23278L15.8311 6.02828C15.828 5.75119 15.7192 5.48574 15.527 5.28613C15.3348 5.08653 15.0736 4.96783 14.7969 4.95428H13.7469C13.0306 4.95428 12.3819 4.53128 12.0879 3.87203C12.0515 3.77934 11.988 3.69976 11.9057 3.6437C11.8235 3.58764 11.7262 3.55769 11.6266 3.55778H10.6726C9.2881 3.55778 8.16685 4.69253 8.16685 6.09278L8.18935 7.24553C7.99668 7.26931 7.81199 7.33678 7.64935 7.44278V6.54278C7.64887 6.30896 7.57834 6.08064 7.44685 5.88728C7.26509 5.61964 7.15915 5.3078 7.14026 4.98482C7.12138 4.66184 7.19026 4.33978 7.3396 4.05278C7.54544 3.65787 7.89372 3.35598 8.31385 3.20828C8.74434 3.05667 9.1104 2.76308 9.35185 2.37578C9.57168 2.02144 9.9112 1.75761 10.3089 1.63212C10.7065 1.50664 11.136 1.5278 11.5194 1.69178C11.6607 1.75309 11.8131 1.78472 11.9671 1.78472C12.1211 1.78472 12.2735 1.75309 12.4149 1.69178C12.6256 1.60328 12.8566 1.55078 13.0996 1.55078C13.7319 1.55078 14.2846 1.89278 14.5906 2.39978C14.8216 2.78228 15.1824 3.05978 15.6046 3.20378Z" fill="url(#paint67_radial_810_9820)"/>
</g>
<g filter="url(#filter11_i_810_9820)">
<path d="M14.7629 5.95252C14.6156 5.81303 14.4394 5.70755 14.2469 5.64352C14.0189 5.57152 13.7332 5.55277 13.3379 5.60077C13.2832 5.60743 13.2334 5.63555 13.1994 5.67895C13.1655 5.72234 13.1501 5.77744 13.1568 5.83215C13.1635 5.88685 13.1916 5.93666 13.235 5.97063C13.2784 6.0046 13.3335 6.01993 13.3882 6.01327C13.7497 5.96977 13.9702 5.99227 14.1224 6.04027C14.2709 6.08752 14.3714 6.16327 14.4899 6.26527C14.5102 6.28455 14.5342 6.29953 14.5605 6.30929C14.5868 6.31906 14.6147 6.32341 14.6427 6.3221C14.6707 6.32078 14.6981 6.31383 14.7233 6.30164C14.7485 6.28946 14.771 6.2723 14.7894 6.2512C14.8079 6.2301 14.8218 6.20549 14.8305 6.17885C14.8392 6.15222 14.8423 6.1241 14.8399 6.0962C14.8374 6.0683 14.8293 6.04119 14.8161 6.0165C14.8029 5.99181 14.7848 5.97005 14.7629 5.95252Z" fill="#202020"/>
</g>
<g filter="url(#filter12_i_810_9820)">
<path d="M9.40484 5.86948C9.79818 5.63878 10.2565 5.5439 10.7091 5.59948C10.764 5.60614 10.814 5.63434 10.8481 5.67787C10.8822 5.7214 10.8976 5.7767 10.891 5.8316C10.8843 5.8865 10.8561 5.9365 10.8126 5.97061C10.769 6.00472 10.7137 6.02014 10.6588 6.01347C10.2981 5.96904 9.9328 6.04385 9.61859 6.22648L9.56234 6.26248L9.54959 6.27148L9.54734 6.27298C9.52577 6.28972 9.50112 6.30205 9.47478 6.30926C9.44845 6.31648 9.42095 6.31844 9.39386 6.31502C9.36677 6.31161 9.34061 6.3029 9.31689 6.28938C9.29316 6.27586 9.27234 6.25779 9.25559 6.23622C9.23885 6.21466 9.22652 6.19 9.2193 6.16366C9.21209 6.13733 9.21013 6.10983 9.21354 6.08274C9.21696 6.05565 9.22567 6.02949 9.23919 6.00577C9.25271 5.98205 9.27077 5.96122 9.29234 5.94448L9.40484 5.86948Z" fill="#202020"/>
</g>
<g filter="url(#filter13_if_810_9820)">
<path d="M12.1371 3.97478L12.0876 3.87203C12.0512 3.77933 11.9878 3.69976 11.9055 3.64369C11.8232 3.58763 11.7259 3.55769 11.6263 3.55778H10.6716C9.28709 3.55778 8.16584 4.69252 8.16584 6.09277V6.29903C7.91084 6.10403 7.58984 5.69528 7.58984 5.03303C7.58984 4.22903 8.17634 3.82253 8.54984 3.56303C8.65559 3.49028 8.74484 3.42878 8.79809 3.37328L8.87309 3.29453C9.13559 3.01703 9.60209 2.52203 10.4181 2.30453C10.7874 2.21155 11.1677 2.17016 11.5483 2.18153C11.9031 2.18903 12.1528 2.49653 12.1528 2.85053V3.96428L12.1371 3.97478Z" fill="#23181C"/>
<path d="M12.1371 3.97478L12.0876 3.87203C12.0512 3.77933 11.9878 3.69976 11.9055 3.64369C11.8232 3.58763 11.7259 3.55769 11.6263 3.55778H10.6716C9.28709 3.55778 8.16584 4.69252 8.16584 6.09277V6.29903C7.91084 6.10403 7.58984 5.69528 7.58984 5.03303C7.58984 4.22903 8.17634 3.82253 8.54984 3.56303C8.65559 3.49028 8.74484 3.42878 8.79809 3.37328L8.87309 3.29453C9.13559 3.01703 9.60209 2.52203 10.4181 2.30453C10.7874 2.21155 11.1677 2.17016 11.5483 2.18153C11.9031 2.18903 12.1528 2.49653 12.1528 2.85053V3.96428L12.1371 3.97478Z" fill="url(#paint68_radial_810_9820)"/>
<path d="M12.1371 3.97478L12.0876 3.87203C12.0512 3.77933 11.9878 3.69976 11.9055 3.64369C11.8232 3.58763 11.7259 3.55769 11.6263 3.55778H10.6716C9.28709 3.55778 8.16584 4.69252 8.16584 6.09277V6.29903C7.91084 6.10403 7.58984 5.69528 7.58984 5.03303C7.58984 4.22903 8.17634 3.82253 8.54984 3.56303C8.65559 3.49028 8.74484 3.42878 8.79809 3.37328L8.87309 3.29453C9.13559 3.01703 9.60209 2.52203 10.4181 2.30453C10.7874 2.21155 11.1677 2.17016 11.5483 2.18153C11.9031 2.18903 12.1528 2.49653 12.1528 2.85053V3.96428L12.1371 3.97478Z" fill="url(#paint69_radial_810_9820)"/>
</g>
<g filter="url(#filter14_df_810_9820)">
<path d="M15.8728 6.42512L15.8503 5.95187C15.8428 5.37962 15.3696 4.90712 14.7966 4.88312H13.7466C13.4207 4.88314 13.1008 4.7954 12.8205 4.62912C12.5402 4.46284 12.3098 4.22415 12.1536 3.93812C12.1536 3.93812 12.1101 3.83612 12.0636 3.66212C11.8716 2.93462 12.5668 2.37737 13.3056 2.52062C14.0353 2.66312 14.8671 2.90837 15.4821 3.30962C16.7901 4.16312 16.5621 5.70137 15.8728 6.42512Z" fill="#1F151B"/>
<path d="M15.8728 6.42512L15.8503 5.95187C15.8428 5.37962 15.3696 4.90712 14.7966 4.88312H13.7466C13.4207 4.88314 13.1008 4.7954 12.8205 4.62912C12.5402 4.46284 12.3098 4.22415 12.1536 3.93812C12.1536 3.93812 12.1101 3.83612 12.0636 3.66212C11.8716 2.93462 12.5668 2.37737 13.3056 2.52062C14.0353 2.66312 14.8671 2.90837 15.4821 3.30962C16.7901 4.16312 16.5621 5.70137 15.8728 6.42512Z" fill="url(#paint70_radial_810_9820)"/>
</g>
<path d="M13.7562 6.9375C14.246 6.9375 14.66 7.275 14.7725 7.7325C14.78 7.76291 14.7805 7.79464 14.7739 7.82527C14.7673 7.8559 14.7538 7.88461 14.7344 7.90922C14.715 7.93383 14.6903 7.95367 14.662 7.96724C14.6338 7.98081 14.6028 7.98774 14.5715 7.9875H12.8982C12.8729 7.9876 12.8478 7.98209 12.8248 7.97138C12.8018 7.96067 12.7814 7.94501 12.7652 7.92553C12.7489 7.90605 12.7371 7.88322 12.7307 7.85867C12.7243 7.83411 12.7234 7.80845 12.728 7.7835C12.7751 7.54548 12.9033 7.33113 13.0906 7.1769C13.2779 7.02267 13.5136 6.93808 13.7562 6.9375Z" fill="white"/>
<path d="M13.6011 7.14062C13.704 7.14065 13.8056 7.16443 13.8978 7.21011C13.9901 7.2558 14.0705 7.32215 14.1329 7.40401C14.1954 7.48587 14.238 7.58103 14.2577 7.68208C14.2773 7.78314 14.2733 7.88735 14.2461 7.98662H12.9531C12.9264 7.88715 12.923 7.78287 12.943 7.68185C12.9631 7.58082 13.0061 7.48576 13.0687 7.404C13.1313 7.32223 13.2119 7.25596 13.3042 7.21029C13.3965 7.16463 13.4981 7.14079 13.6011 7.14062Z" fill="url(#paint71_radial_810_9820)"/>
<path d="M13.2178 7.81174C13.2176 7.76132 13.2274 7.71136 13.2466 7.66473C13.2657 7.6181 13.294 7.57572 13.3296 7.54003C13.3652 7.50435 13.4075 7.47605 13.4541 7.45678C13.5007 7.43751 13.5506 7.42764 13.6011 7.42774C13.6671 7.42743 13.732 7.44419 13.7896 7.47641C13.8472 7.50862 13.8955 7.55518 13.9297 7.61158C13.964 7.66797 13.9831 7.73227 13.9852 7.79823C13.9873 7.86418 13.9722 7.92956 13.9416 7.98799H13.2636C13.2327 7.93418 13.2169 7.87303 13.2178 7.81099" fill="black"/>
<g filter="url(#filter15_f_810_9820)">
<path d="M13.5523 7.28216C13.5995 7.34666 13.4998 7.42466 13.3865 7.50866C13.2733 7.59341 13.1893 7.65341 13.1413 7.58966C13.094 7.52591 13.1473 7.40516 13.2605 7.32041C13.373 7.23566 13.5043 7.21916 13.5523 7.28291" fill="#C7A7A3"/>
<path d="M13.5523 7.28216C13.5995 7.34666 13.4998 7.42466 13.3865 7.50866C13.2733 7.59341 13.1893 7.65341 13.1413 7.58966C13.094 7.52591 13.1473 7.40516 13.2605 7.32041C13.373 7.23566 13.5043 7.21916 13.5523 7.28291" fill="url(#paint72_radial_810_9820)"/>
</g>
<g filter="url(#filter16_f_810_9820)">
<path d="M14.1974 7.72225C14.1776 7.59115 14.117 7.46964 14.0241 7.375L13.8291 7.5895L13.9169 7.7605L14.1974 7.72225Z" fill="url(#paint73_linear_810_9820)"/>
</g>
<path d="M10.17 6.9375C9.68028 6.9375 9.26628 7.275 9.15378 7.73175C9.12078 7.86225 9.22128 7.98675 9.35478 7.98675H11.028C11.0533 7.98683 11.0783 7.98133 11.1013 7.97067C11.1242 7.96 11.1445 7.94441 11.1608 7.92502C11.177 7.90562 11.1888 7.88289 11.1953 7.85843C11.2018 7.83398 11.2028 7.8084 11.1983 7.7835C11.1511 7.54548 11.023 7.33113 10.8357 7.1769C10.6484 7.02267 10.4127 6.93808 10.17 6.9375Z" fill="white"/>
<path d="M10.3253 7.14062C10.2225 7.1408 10.121 7.16468 10.0288 7.21041C9.93665 7.25614 9.85626 7.32248 9.79388 7.40431C9.7315 7.48613 9.6888 7.58122 9.66912 7.68221C9.64943 7.7832 9.65327 7.88736 9.68035 7.98662H10.9733C10.9886 7.92882 10.9969 7.8694 10.9981 7.80962C10.9965 7.63203 10.925 7.46222 10.7991 7.33699C10.6732 7.21176 10.5029 7.14121 10.3253 7.14062Z" fill="url(#paint74_radial_810_9820)"/>
<path d="M10.7085 7.81174C10.7087 7.76132 10.6989 7.71136 10.6797 7.66473C10.6605 7.6181 10.6323 7.57572 10.5967 7.54003C10.5611 7.50435 10.5188 7.47605 10.4722 7.45678C10.4256 7.43751 10.3757 7.42764 10.3252 7.42774C10.2592 7.42743 10.1943 7.44419 10.1367 7.47641C10.0791 7.50862 10.0308 7.55518 9.99655 7.61158C9.96228 7.66797 9.94318 7.73227 9.94111 7.79823C9.93903 7.86418 9.95406 7.92956 9.98473 7.98799H10.6627C10.6923 7.93367 10.7081 7.87286 10.7085 7.81099" fill="black"/>
<g filter="url(#filter17_f_810_9820)">
<path d="M10.9366 7.73238C10.9366 7.51563 10.7611 7.37238 10.7131 7.32812L10.4971 7.53738L10.6306 7.80813L10.9366 7.73238Z" fill="url(#paint75_linear_810_9820)"/>
</g>
<g filter="url(#filter18_f_810_9820)">
<path d="M10.1927 7.55778C10.3355 7.48215 10.4202 7.36239 10.382 7.29029C10.3438 7.21818 10.1971 7.22104 10.0544 7.29666C9.91162 7.37229 9.82687 7.49205 9.86507 7.56415C9.90327 7.63626 10.05 7.63341 10.1927 7.55778Z" fill="#C7A7A3" fill-opacity="0.9"/>
<path d="M10.1927 7.55778C10.3355 7.48215 10.4202 7.36239 10.382 7.29029C10.3438 7.21818 10.1971 7.22104 10.0544 7.29666C9.91162 7.37229 9.82687 7.49205 9.86507 7.56415C9.90327 7.63626 10.05 7.63341 10.1927 7.55778Z" fill="url(#paint76_radial_810_9820)"/>
</g>
<path d="M15.6548 9.19208C15.7053 8.39458 15.7513 7.59683 15.7928 6.79883C16.083 6.85134 16.344 7.00824 16.5264 7.23994C16.7089 7.47164 16.8003 7.76211 16.7833 8.05655C16.7663 8.35098 16.6422 8.62902 16.4343 8.83821C16.2264 9.0474 15.9491 9.17327 15.6548 9.19208Z" fill="url(#paint77_linear_810_9820)"/>
<path d="M15.6548 9.19208C15.7053 8.39458 15.7513 7.59683 15.7928 6.79883C16.083 6.85134 16.344 7.00824 16.5264 7.23994C16.7089 7.47164 16.8003 7.76211 16.7833 8.05655C16.7663 8.35098 16.6422 8.62902 16.4343 8.83821C16.2264 9.0474 15.9491 9.17327 15.6548 9.19208Z" fill="url(#paint78_radial_810_9820)"/>
<path d="M15.6548 9.19208C15.7053 8.39458 15.7513 7.59683 15.7928 6.79883C16.083 6.85134 16.344 7.00824 16.5264 7.23994C16.7089 7.47164 16.8003 7.76211 16.7833 8.05655C16.7663 8.35098 16.6422 8.62902 16.4343 8.83821C16.2264 9.0474 15.9491 9.17327 15.6548 9.19208Z" fill="url(#paint79_radial_810_9820)"/>
<path d="M15.6548 9.19208C15.7053 8.39458 15.7513 7.59683 15.7928 6.79883C16.083 6.85134 16.344 7.00824 16.5264 7.23994C16.7089 7.47164 16.8003 7.76211 16.7833 8.05655C16.7663 8.35098 16.6422 8.62902 16.4343 8.83821C16.2264 9.0474 15.9491 9.17327 15.6548 9.19208Z" fill="url(#paint80_radial_810_9820)"/>
<path d="M8.17275 6.79297C7.87713 6.83649 7.60815 6.98807 7.41781 7.2184C7.22746 7.44874 7.12928 7.74147 7.14225 8.03999C7.15522 8.33852 7.27841 8.62163 7.48801 8.8346C7.69761 9.04756 7.97872 9.17525 8.277 9.19297C8.22583 8.39377 8.19107 7.5936 8.17275 6.79297Z" fill="url(#paint81_linear_810_9820)"/>
<path d="M8.17275 6.79297C7.87713 6.83649 7.60815 6.98807 7.41781 7.2184C7.22746 7.44874 7.12928 7.74147 7.14225 8.03999C7.15522 8.33852 7.27841 8.62163 7.48801 8.8346C7.69761 9.04756 7.97872 9.17525 8.277 9.19297C8.22583 8.39377 8.19107 7.5936 8.17275 6.79297Z" fill="url(#paint82_radial_810_9820)"/>
<g filter="url(#filter19_f_810_9820)">
<path d="M8.14946 7.28711C7.98543 7.32413 7.83964 7.41763 7.73756 7.55126C7.63548 7.68489 7.58361 7.85015 7.59103 8.01814C7.59845 8.18613 7.66467 8.34617 7.77813 8.47028C7.89159 8.5944 8.04506 8.67468 8.21171 8.69711C8.1853 8.22738 8.16454 7.75734 8.14946 7.28711Z" fill="url(#paint83_radial_810_9820)"/>
</g>
<g filter="url(#filter20_f_810_9820)">
<path d="M15.6704 8.70144C15.6999 8.22494 15.7274 7.74894 15.7529 7.27344C15.935 7.29393 16.1023 7.38343 16.2204 7.5235C16.3385 7.66358 16.3984 7.84359 16.3878 8.0265C16.3773 8.20942 16.297 8.38133 16.1636 8.50687C16.0301 8.63241 15.8536 8.70204 15.6704 8.70144Z" fill="url(#paint84_linear_810_9820)"/>
</g>
<g filter="url(#filter21_f_810_9820)">
<path d="M9.43359 6.07835C9.62634 5.94035 10.1063 5.69735 10.6748 5.79335" stroke="#353535" stroke-width="0.125" stroke-linecap="round"/>
</g>
<g filter="url(#filter22_f_810_9820)">
<path d="M14.6338 6.0439C14.4411 5.9059 13.9603 5.66214 13.3926 5.75814" stroke="#353535" stroke-width="0.125" stroke-linecap="round"/>
</g>
<g filter="url(#filter23_f_810_9820)">
<path d="M15.1078 3.98812H13.547C13.4976 3.98728 13.4488 3.97632 13.4037 3.95589C13.3586 3.93547 13.3182 3.90602 13.2849 3.86937C13.2517 3.83272 13.2263 3.78964 13.2103 3.7428C13.1943 3.69595 13.1881 3.64633 13.1921 3.59699C13.196 3.54765 13.21 3.49965 13.2333 3.45594C13.2565 3.41224 13.2884 3.37375 13.3271 3.34287C13.3658 3.31198 13.4104 3.28934 13.4581 3.27636C13.5059 3.26338 13.5558 3.26032 13.6048 3.26737C14.0098 3.33187 14.5475 3.42187 14.9075 3.51112C15.722 3.71287 15.9463 4.10887 16.01 4.39162C15.8999 4.26054 15.7615 4.15614 15.6053 4.08625C15.449 4.01636 15.2789 3.98281 15.1078 3.98812Z" fill="#504A4C"/>
</g>
<defs>
<filter id="filter0_f_810_9820" x="7.01025" y="12.0723" width="4.86035" height="8.16797" filterUnits="userSpaceOnUse" color-interpolation-filters="sRGB">
<feFlood flood-opacity="0" result="BackgroundImageFix"/>
<feBlend mode="normal" in="SourceGraphic" in2="BackgroundImageFix" result="shape"/>
<feGaussianBlur stdDeviation="0.25" result="effect1_foregroundBlur_810_9820"/>
</filter>
<filter id="filter1_f_810_9820" x="12.1816" y="12.0723" width="4.86035" height="8.16797" filterUnits="userSpaceOnUse" color-interpolation-filters="sRGB">
<feFlood flood-opacity="0" result="BackgroundImageFix"/>
<feBlend mode="normal" in="SourceGraphic" in2="BackgroundImageFix" result="shape"/>
<feGaussianBlur stdDeviation="0.25" result="effect1_foregroundBlur_810_9820"/>
</filter>
<filter id="filter2_f_810_9820" x="12.9473" y="18.168" width="2.3999" height="2.40039" filterUnits="userSpaceOnUse" color-interpolation-filters="sRGB">
<feFlood flood-opacity="0" result="BackgroundImageFix"/>
<feBlend mode="normal" in="SourceGraphic" in2="BackgroundImageFix" result="shape"/>
<feGaussianBlur stdDeviation="0.1875" result="effect1_foregroundBlur_810_9820"/>
</filter>
<filter id="filter3_i_810_9820" x="14.2124" y="18.5449" width="1.06494" height="1.06445" filterUnits="userSpaceOnUse" color-interpolation-filters="sRGB">
<feFlood flood-opacity="0" result="BackgroundImageFix"/>
<feBlend mode="normal" in="SourceGraphic" in2="BackgroundImageFix" result="shape"/>
<feColorMatrix in="SourceAlpha" type="matrix" values="0 0 0 0 0 0 0 0 0 0 0 0 0 0 0 0 0 0 127 0" result="hardAlpha"/>
<feOffset/>
<feGaussianBlur stdDeviation="0.05"/>
<feComposite in2="hardAlpha" operator="arithmetic" k2="-1" k3="1"/>
<feColorMatrix type="matrix" values="0 0 0 0 0.14902 0 0 0 0 0.411765 0 0 0 0 0.721569 0 0 0 1 0"/>
<feBlend mode="normal" in2="shape" result="effect1_innerShadow_810_9820"/>
</filter>
<filter id="filter4_i_810_9820" x="7.125" y="14.7848" width="4.03516" height="5.32656" filterUnits="userSpaceOnUse" color-interpolation-filters="sRGB">
<feFlood flood-opacity="0" result="BackgroundImageFix"/>
<feBlend mode="normal" in="SourceGraphic" in2="BackgroundImageFix" result="shape"/>
<feColorMatrix in="SourceAlpha" type="matrix" values="0 0 0 0 0 0 0 0 0 0 0 0 0 0 0 0 0 0 127 0" result="hardAlpha"/>
<feOffset dy="-0.1"/>
<feGaussianBlur stdDeviation="0.05"/>
<feComposite in2="hardAlpha" operator="arithmetic" k2="-1" k3="1"/>
<feColorMatrix type="matrix" values="0 0 0 0 0.333333 0 0 0 0 0.239216 0 0 0 0 0.501961 0 0 0 1 0"/>
<feBlend mode="normal" in2="shape" result="effect1_innerShadow_810_9820"/>
</filter>
<filter id="filter5_f_810_9820" x="7.28604" y="14.9789" width="3.7502" height="4.94258" filterUnits="userSpaceOnUse" color-interpolation-filters="sRGB">
<feFlood flood-opacity="0" result="BackgroundImageFix"/>
<feBlend mode="normal" in="SourceGraphic" in2="BackgroundImageFix" result="shape"/>
<feGaussianBlur stdDeviation="0.075" result="effect1_foregroundBlur_810_9820"/>
</filter>
<filter id="filter6_ii_810_9820" x="8.1665" y="3.55859" width="8.16406" height="9.35586" filterUnits="userSpaceOnUse" color-interpolation-filters="sRGB">
<feFlood flood-opacity="0" result="BackgroundImageFix"/>
<feBlend mode="normal" in="SourceGraphic" in2="BackgroundImageFix" result="shape"/>
<feColorMatrix in="SourceAlpha" type="matrix" values="0 0 0 0 0 0 0 0 0 0 0 0 0 0 0 0 0 0 127 0" result="hardAlpha"/>
<feOffset dx="0.5"/>
<feGaussianBlur stdDeviation="0.25"/>
<feComposite in2="hardAlpha" operator="arithmetic" k2="-1" k3="1"/>
<feColorMatrix type="matrix" values="0 0 0 0 0.333333 0 0 0 0 0.270588 0 0 0 0 0.258824 0 0 0 1 0"/>
<feBlend mode="normal" in2="shape" result="effect1_innerShadow_810_9820"/>
<feColorMatrix in="SourceAlpha" type="matrix" values="0 0 0 0 0 0 0 0 0 0 0 0 0 0 0 0 0 0 127 0" result="hardAlpha"/>
<feOffset dy="0.1"/>
<feGaussianBlur stdDeviation="0.1875"/>
<feComposite in2="hardAlpha" operator="arithmetic" k2="-1" k3="1"/>
<feColorMatrix type="matrix" values="0 0 0 0 0.145098 0 0 0 0 0.0705882 0 0 0 0 0.0745098 0 0 0 1 0"/>
<feBlend mode="normal" in2="effect1_innerShadow_810_9820" result="effect2_innerShadow_810_9820"/>
</filter>
<filter id="filter7_f_810_9820" x="10.7017" y="7.06836" width="2.30957" height="3.17578" filterUnits="userSpaceOnUse" color-interpolation-filters="sRGB">
<feFlood flood-opacity="0" result="BackgroundImageFix"/>
<feBlend mode="normal" in="SourceGraphic" in2="BackgroundImageFix" result="shape"/>
<feGaussianBlur stdDeviation="0.25" result="effect1_foregroundBlur_810_9820"/>
</filter>
<filter id="filter8_f_810_9820" x="11.1593" y="7.31992" width="1.60771" height="2.37578" filterUnits="userSpaceOnUse" color-interpolation-filters="sRGB">
<feFlood flood-opacity="0" result="BackgroundImageFix"/>
<feBlend mode="normal" in="SourceGraphic" in2="BackgroundImageFix" result="shape"/>
<feGaussianBlur stdDeviation="0.05" result="effect1_foregroundBlur_810_9820"/>
</filter>
<filter id="filter9_f_810_9820" x="10.6126" y="9.95586" width="2.70156" height="1.09219" filterUnits="userSpaceOnUse" color-interpolation-filters="sRGB">
<feFlood flood-opacity="0" result="BackgroundImageFix"/>
<feBlend mode="normal" in="SourceGraphic" in2="BackgroundImageFix" result="shape"/>
<feGaussianBlur stdDeviation="0.025" result="effect1_foregroundBlur_810_9820"/>
</filter>
<filter id="filter10_ii_810_9820" x="7.13721" y="1.30078" width="9.65332" height="6.14258" filterUnits="userSpaceOnUse" color-interpolation-filters="sRGB">
<feFlood flood-opacity="0" result="BackgroundImageFix"/>
<feBlend mode="normal" in="SourceGraphic" in2="BackgroundImageFix" result="shape"/>
<feColorMatrix in="SourceAlpha" type="matrix" values="0 0 0 0 0 0 0 0 0 0 0 0 0 0 0 0 0 0 127 0" result="hardAlpha"/>
<feOffset dy="-0.25"/>
<feGaussianBlur stdDeviation="0.3125"/>
<feComposite in2="hardAlpha" operator="arithmetic" k2="-1" k3="1"/>
<feColorMatrix type="matrix" values="0 0 0 0 0.137255 0 0 0 0 0.0901961 0 0 0 0 0.145098 0 0 0 1 0"/>
<feBlend mode="normal" in2="shape" result="effect1_innerShadow_810_9820"/>
<feColorMatrix in="SourceAlpha" type="matrix" values="0 0 0 0 0 0 0 0 0 0 0 0 0 0 0 0 0 0 127 0" result="hardAlpha"/>
<feOffset dy="-0.1"/>
<feGaussianBlur stdDeviation="0.1"/>
<feComposite in2="hardAlpha" operator="arithmetic" k2="-1" k3="1"/>
<feColorMatrix type="matrix" values="0 0 0 0 0.0784314 0 0 0 0 0.0352941 0 0 0 0 0.0470588 0 0 0 1 0"/>
<feBlend mode="normal" in2="effect1_innerShadow_810_9820" result="effect2_innerShadow_810_9820"/>
</filter>
<filter id="filter11_i_810_9820" x="13.1553" y="5.47422" width="1.73555" height="0.848047" filterUnits="userSpaceOnUse" color-interpolation-filters="sRGB">
<feFlood flood-opacity="0" result="BackgroundImageFix"/>
<feBlend mode="normal" in="SourceGraphic" in2="BackgroundImageFix" result="shape"/>
<feColorMatrix in="SourceAlpha" type="matrix" values="0 0 0 0 0 0 0 0 0 0 0 0 0 0 0 0 0 0 127 0" result="hardAlpha"/>
<feOffset dx="0.05" dy="-0.1"/>
<feGaussianBlur stdDeviation="0.0625"/>
<feComposite in2="hardAlpha" operator="arithmetic" k2="-1" k3="1"/>
<feColorMatrix type="matrix" values="0 0 0 0 0.0588235 0 0 0 0 0.054902 0 0 0 0 0.0588235 0 0 0 1 0"/>
<feBlend mode="normal" in2="shape" result="effect1_innerShadow_810_9820"/>
</filter>
<filter id="filter12_i_810_9820" x="9.21191" y="5.48398" width="1.73066" height="0.832422" filterUnits="userSpaceOnUse" color-interpolation-filters="sRGB">
<feFlood flood-opacity="0" result="BackgroundImageFix"/>
<feBlend mode="normal" in="SourceGraphic" in2="BackgroundImageFix" result="shape"/>
<feColorMatrix in="SourceAlpha" type="matrix" values="0 0 0 0 0 0 0 0 0 0 0 0 0 0 0 0 0 0 127 0" result="hardAlpha"/>
<feOffset dx="0.05" dy="-0.1"/>
<feGaussianBlur stdDeviation="0.0625"/>
<feComposite in2="hardAlpha" operator="arithmetic" k2="-1" k3="1"/>
<feColorMatrix type="matrix" values="0 0 0 0 0.0588235 0 0 0 0 0.054902 0 0 0 0 0.0588235 0 0 0 1 0"/>
<feBlend mode="normal" in2="shape" result="effect1_innerShadow_810_9820"/>
</filter>
<filter id="filter13_if_810_9820" x="7.46484" y="2.05469" width="4.88799" height="4.36914" filterUnits="userSpaceOnUse" color-interpolation-filters="sRGB">
<feFlood flood-opacity="0" result="BackgroundImageFix"/>
<feBlend mode="normal" in="SourceGraphic" in2="BackgroundImageFix" result="shape"/>
<feColorMatrix in="SourceAlpha" type="matrix" values="0 0 0 0 0 0 0 0 0 0 0 0 0 0 0 0 0 0 127 0" result="hardAlpha"/>
<feOffset dx="0.2" dy="0.1"/>
<feGaussianBlur stdDeviation="0.1"/>
<feComposite in2="hardAlpha" operator="arithmetic" k2="-1" k3="1"/>
<feColorMatrix type="matrix" values="0 0 0 0 0.286275 0 0 0 0 0.243137 0 0 0 0 0.227451 0 0 0 1 0"/>
<feBlend mode="normal" in2="shape" result="effect1_innerShadow_810_9820"/>
<feGaussianBlur stdDeviation="0.0625" result="effect2_foregroundBlur_810_9820"/>
</filter>
<filter id="filter14_df_810_9820" x="11.9062" y="2.37305" width="4.64648" height="4.17773" filterUnits="userSpaceOnUse" color-interpolation-filters="sRGB">
<feFlood flood-opacity="0" result="BackgroundImageFix"/>
<feColorMatrix in="SourceAlpha" type="matrix" values="0 0 0 0 0 0 0 0 0 0 0 0 0 0 0 0 0 0 127 0" result="hardAlpha"/>
<feOffset dx="-0.05" dy="0.1"/>
<feComposite in2="hardAlpha" operator="out"/>
<feColorMatrix type="matrix" values="0 0 0 0 0.329412 0 0 0 0 0.305882 0 0 0 0 0.313726 0 0 0 1 0"/>
<feBlend mode="normal" in2="BackgroundImageFix" result="effect1_dropShadow_810_9820"/>
<feBlend mode="normal" in="SourceGraphic" in2="effect1_dropShadow_810_9820" result="shape"/>
<feGaussianBlur stdDeviation="0.0625" result="effect2_foregroundBlur_810_9820"/>
</filter>
<filter id="filter15_f_810_9820" x="13.074" y="7.19414" width="0.54043" height="0.473047" filterUnits="userSpaceOnUse" color-interpolation-filters="sRGB">
<feFlood flood-opacity="0" result="BackgroundImageFix"/>
<feBlend mode="normal" in="SourceGraphic" in2="BackgroundImageFix" result="shape"/>
<feGaussianBlur stdDeviation="0.025" result="effect1_foregroundBlur_810_9820"/>
</filter>
<filter id="filter16_f_810_9820" x="13.7291" y="7.275" width="0.568164" height="0.584766" filterUnits="userSpaceOnUse" color-interpolation-filters="sRGB">
<feFlood flood-opacity="0" result="BackgroundImageFix"/>
<feBlend mode="normal" in="SourceGraphic" in2="BackgroundImageFix" result="shape"/>
<feGaussianBlur stdDeviation="0.05" result="effect1_foregroundBlur_810_9820"/>
</filter>
<filter id="filter17_f_810_9820" x="10.3971" y="7.22812" width="0.639453" height="0.680469" filterUnits="userSpaceOnUse" color-interpolation-filters="sRGB">
<feFlood flood-opacity="0" result="BackgroundImageFix"/>
<feBlend mode="normal" in="SourceGraphic" in2="BackgroundImageFix" result="shape"/>
<feGaussianBlur stdDeviation="0.05" result="effect1_foregroundBlur_810_9820"/>
</filter>
<filter id="filter18_f_810_9820" x="9.80596" y="7.18828" width="0.635156" height="0.478906" filterUnits="userSpaceOnUse" color-interpolation-filters="sRGB">
<feFlood flood-opacity="0" result="BackgroundImageFix"/>
<feBlend mode="normal" in="SourceGraphic" in2="BackgroundImageFix" result="shape"/>
<feGaussianBlur stdDeviation="0.025" result="effect1_foregroundBlur_810_9820"/>
</filter>
<filter id="filter19_f_810_9820" x="7.46533" y="7.16211" width="0.871582" height="1.66016" filterUnits="userSpaceOnUse" color-interpolation-filters="sRGB">
<feFlood flood-opacity="0" result="BackgroundImageFix"/>
<feBlend mode="normal" in="SourceGraphic" in2="BackgroundImageFix" result="shape"/>
<feGaussianBlur stdDeviation="0.0625" result="effect1_foregroundBlur_810_9820"/>
</filter>
<filter id="filter20_f_810_9820" x="15.4204" y="7.02344" width="1.21875" height="1.92773" filterUnits="userSpaceOnUse" color-interpolation-filters="sRGB">
<feFlood flood-opacity="0" result="BackgroundImageFix"/>
<feBlend mode="normal" in="SourceGraphic" in2="BackgroundImageFix" result="shape"/>
<feGaussianBlur stdDeviation="0.125" result="effect1_foregroundBlur_810_9820"/>
</filter>
<filter id="filter21_f_810_9820" x="9.24609" y="5.58398" width="1.61621" height="0.681641" filterUnits="userSpaceOnUse" color-interpolation-filters="sRGB">
<feFlood flood-opacity="0" result="BackgroundImageFix"/>
<feBlend mode="normal" in="SourceGraphic" in2="BackgroundImageFix" result="shape"/>
<feGaussianBlur stdDeviation="0.0625" result="effect1_foregroundBlur_810_9820"/>
</filter>
<filter id="filter22_f_810_9820" x="13.2051" y="5.54883" width="1.61621" height="0.681641" filterUnits="userSpaceOnUse" color-interpolation-filters="sRGB">
<feFlood flood-opacity="0" result="BackgroundImageFix"/>
<feBlend mode="normal" in="SourceGraphic" in2="BackgroundImageFix" result="shape"/>
<feGaussianBlur stdDeviation="0.0625" result="effect1_foregroundBlur_810_9820"/>
</filter>
<filter id="filter23_f_810_9820" x="12.8159" y="2.88867" width="3.56934" height="1.87891" filterUnits="userSpaceOnUse" color-interpolation-filters="sRGB">
<feFlood flood-opacity="0" result="BackgroundImageFix"/>
<feBlend mode="normal" in="SourceGraphic" in2="BackgroundImageFix" result="shape"/>
<feGaussianBlur stdDeviation="0.1875" result="effect1_foregroundBlur_810_9820"/>
</filter>
<radialGradient id="paint0_radial_810_9820" cx="0" cy="0" r="1" gradientUnits="userSpaceOnUse" gradientTransform="translate(17.3851 17.922) rotate(180) scale(8.1 15.5194)">
<stop stop-color="#EFEAFB"/>
<stop offset="1" stop-color="#D4CAE9"/>
</radialGradient>
<linearGradient id="paint1_linear_810_9820" x1="17.4706" y1="18.432" x2="17.2366" y2="18.432" gradientUnits="userSpaceOnUse">
<stop offset="0.225" stop-color="#D4CCDC"/>
<stop offset="1" stop-color="#D4CCDC" stop-opacity="0"/>
</linearGradient>
<linearGradient id="paint2_linear_810_9820" x1="6.53705" y1="18.432" x2="6.78905" y2="18.432" gradientUnits="userSpaceOnUse">
<stop offset="0.383" stop-color="#B7AFC3"/>
<stop offset="1" stop-color="#B7AFC3" stop-opacity="0"/>
</linearGradient>
<linearGradient id="paint3_linear_810_9820" x1="12.1208" y1="23.1952" x2="12.1208" y2="21.8362" gradientUnits="userSpaceOnUse">
<stop stop-color="#C8B7DE"/>
<stop offset="1" stop-color="#C8B7DE" stop-opacity="0"/>
</linearGradient>
<radialGradient id="paint4_radial_810_9820" cx="0" cy="0" r="1" gradientUnits="userSpaceOnUse" gradientTransform="translate(16.5512 21.5796) rotate(-121.204) scale(12.4405 12.2614)">
<stop offset="0.587" stop-color="#BEBAC5" stop-opacity="0"/>
<stop offset="1" stop-color="#BEBAC5"/>
</radialGradient>
<radialGradient id="paint5_radial_810_9820" cx="0" cy="0" r="1" gradientUnits="userSpaceOnUse" gradientTransform="translate(13.5271 18.3443) rotate(77.152) scale(2.74049 3.03218)">
<stop stop-color="#B2A6C7"/>
<stop offset="1" stop-color="#B2A6C7" stop-opacity="0"/>
</radialGradient>
<radialGradient id="paint6_radial_810_9820" cx="0" cy="0" r="1" gradientUnits="userSpaceOnUse" gradientTransform="translate(11.9633 22.4738) rotate(-90) scale(5.98126 0.720203)">
<stop stop-color="#B1909E"/>
<stop offset="1" stop-color="#B1909E" stop-opacity="0"/>
</radialGradient>
<linearGradient id="paint7_linear_810_9820" x1="6.59988" y1="11.5537" x2="17.3819" y2="11.5537" gradientUnits="userSpaceOnUse">
<stop offset="0.006" stop-color="#CCCCCC"/>
<stop offset="1" stop-color="#E6E6E6"/>
</linearGradient>
<linearGradient id="paint8_linear_810_9820" x1="6.60004" y1="11.5305" x2="17.382" y2="11.5305" gradientUnits="userSpaceOnUse">
<stop offset="0.006" stop-color="#CCCCCC"/>
<stop offset="1" stop-color="#E6E6E6"/>
</linearGradient>
<radialGradient id="paint9_radial_810_9820" cx="0" cy="0" r="1" gradientUnits="userSpaceOnUse" gradientTransform="translate(3.98763 18.5094) rotate(5.18546) scale(2.59322 7.19967)">
<stop stop-color="#D3D0D5"/>
<stop offset="1" stop-color="#C8BFD6"/>
</radialGradient>
<radialGradient id="paint10_radial_810_9820" cx="0" cy="0" r="1" gradientUnits="userSpaceOnUse" gradientTransform="translate(7.10525 13.3067) rotate(107.994) scale(5.00743 5.6081)">
<stop stop-color="#C4C3C3"/>
<stop offset="1" stop-color="#C4C3C3" stop-opacity="0"/>
</radialGradient>
<linearGradient id="paint11_linear_810_9820" x1="5.23488" y1="23.0559" x2="5.23488" y2="21.9616" gradientUnits="userSpaceOnUse">
<stop stop-color="#C8B7DE"/>
<stop offset="1" stop-color="#C8B7DE" stop-opacity="0"/>
</linearGradient>
<radialGradient id="paint12_radial_810_9820" cx="0" cy="0" r="1" gradientUnits="userSpaceOnUse" gradientTransform="translate(19.6617 16.4452) rotate(155.425) scale(2.53598 6.70782)">
<stop stop-color="#FCF9FF"/>
<stop offset="1" stop-color="#E6DDF3"/>
</radialGradient>
<radialGradient id="paint13_radial_810_9820" cx="0" cy="0" r="1" gradientUnits="userSpaceOnUse" gradientTransform="translate(18.3965 15.2264) rotate(90) scale(8.25 6.34798)">
<stop offset="0.781" stop-color="#D1C0E3" stop-opacity="0"/>
<stop offset="0.974" stop-color="#D1C0E3"/>
</radialGradient>
<linearGradient id="paint14_linear_810_9820" x1="16.988" y1="19.2104" x2="17.5722" y2="19.2104" gradientUnits="userSpaceOnUse">
<stop offset="0.643" stop-color="#D4CCDC"/>
<stop offset="1" stop-color="#D4CCDC" stop-opacity="0"/>
</linearGradient>
<radialGradient id="paint15_radial_810_9820" cx="0" cy="0" r="1" gradientUnits="userSpaceOnUse" gradientTransform="translate(11.9885 13.8907) rotate(90) scale(4.24219 2.25844)">
<stop offset="0.363" stop-color="#CA6820"/>
<stop offset="1" stop-color="#8D3004"/>
</radialGradient>
<radialGradient id="paint16_radial_810_9820" cx="0" cy="0" r="1" gradientUnits="userSpaceOnUse" gradientTransform="translate(12.2615 22.8442) rotate(-90) scale(4.89844 2.14538)">
<stop offset="0.344" stop-color="#E05A26"/>
<stop offset="1" stop-color="#E05A26" stop-opacity="0"/>
</radialGradient>
<linearGradient id="paint17_linear_810_9820" x1="6.59988" y1="11.5537" x2="17.3819" y2="11.5537" gradientUnits="userSpaceOnUse">
<stop offset="0.006" stop-color="#CCCCCC"/>
<stop offset="1" stop-color="#E6E6E6"/>
</linearGradient>
<linearGradient id="paint18_linear_810_9820" x1="6.60004" y1="11.5305" x2="17.382" y2="11.5305" gradientUnits="userSpaceOnUse">
<stop offset="0.006" stop-color="#CCCCCC"/>
<stop offset="1" stop-color="#E6E6E6"/>
</linearGradient>
<linearGradient id="paint19_linear_810_9820" x1="12.1206" y1="20.2193" x2="17.8394" y2="14.5238" gradientUnits="userSpaceOnUse">
<stop stop-color="#AD9EC2"/>
<stop offset="1" stop-color="#D3CFDA"/>
</linearGradient>
<linearGradient id="paint20_linear_810_9820" x1="16.4061" y1="13.7654" x2="12.5698" y2="17.9047" gradientUnits="userSpaceOnUse">
<stop stop-color="#FDF6F9"/>
<stop offset="1" stop-color="#BDB2D2"/>
</linearGradient>
<linearGradient id="paint21_linear_810_9820" x1="15.0216" y1="11.7269" x2="14.9038" y2="13.2734" gradientUnits="userSpaceOnUse">
<stop stop-color="#EDD8CE"/>
<stop offset="1" stop-color="#EDD8CE" stop-opacity="0"/>
</linearGradient>
<linearGradient id="paint22_linear_810_9820" x1="13.1751" y1="14.1607" x2="14.0428" y2="14.5237" gradientUnits="userSpaceOnUse">
<stop stop-color="#B49089"/>
<stop offset="1" stop-color="#DED4E6" stop-opacity="0"/>
</linearGradient>
<radialGradient id="paint23_radial_810_9820" cx="0" cy="0" r="1" gradientUnits="userSpaceOnUse" gradientTransform="translate(14.3428 13.5629) rotate(90) scale(4.64062 0.634193)">
<stop stop-color="#AA98A1"/>
<stop offset="1" stop-color="#DAD1E4" stop-opacity="0"/>
</radialGradient>
<radialGradient id="paint24_radial_810_9820" cx="0" cy="0" r="1" gradientUnits="userSpaceOnUse" gradientTransform="translate(12.3231 19.8944) rotate(-48.5803) scale(3.05196 1.04236)">
<stop stop-color="#B7A3CF"/>
<stop offset="1" stop-color="#B7A3CF" stop-opacity="0"/>
</radialGradient>
<radialGradient id="paint25_radial_810_9820" cx="0" cy="0" r="1" gradientUnits="userSpaceOnUse" gradientTransform="translate(14.3428 18.6254) rotate(-90) scale(3.63281 0.414953)">
<stop stop-color="#A298B4"/>
<stop offset="1" stop-color="#A298B4" stop-opacity="0"/>
</radialGradient>
<radialGradient id="paint26_radial_810_9820" cx="0" cy="0" r="1" gradientUnits="userSpaceOnUse" gradientTransform="translate(10.8549 14.8515) rotate(158.705) scale(2.44004 4.7908)">
<stop offset="0.088" stop-color="#EFE1E3"/>
<stop offset="1" stop-color="#BDB0D0"/>
</radialGradient>
<radialGradient id="paint27_radial_810_9820" cx="0" cy="0" r="1" gradientUnits="userSpaceOnUse" gradientTransform="translate(7.58635 18.6667) rotate(-69.7629) scale(7.50435 6.09246)">
<stop offset="0.691" stop-color="#B3A299" stop-opacity="0"/>
<stop offset="1" stop-color="#B3A299"/>
</radialGradient>
<linearGradient id="paint28_linear_810_9820" x1="9.19135" y1="17.3834" x2="9.43735" y2="17.1134" gradientUnits="userSpaceOnUse">
<stop stop-color="#B2A6C6"/>
<stop offset="1" stop-color="#B2A6C6" stop-opacity="0"/>
</linearGradient>
<radialGradient id="paint29_radial_810_9820" cx="0" cy="0" r="1" gradientUnits="userSpaceOnUse" gradientTransform="translate(7.7146 14.5942) rotate(-81.961) scale(2.0948 1.60492)">
<stop stop-color="#CBC5CF"/>
<stop offset="1" stop-color="#BDB1AD" stop-opacity="0"/>
</radialGradient>
<radialGradient id="paint30_radial_810_9820" cx="0" cy="0" r="1" gradientUnits="userSpaceOnUse" gradientTransform="translate(9.06235 13.7152) rotate(101.232) scale(1.6846 0.517206)">
<stop offset="0.439" stop-color="#ADA5AB"/>
<stop offset="1" stop-color="#ADA5AB" stop-opacity="0"/>
</radialGradient>
<radialGradient id="paint31_radial_810_9820" cx="0" cy="0" r="1" gradientUnits="userSpaceOnUse" gradientTransform="translate(9.32006 15.9766) rotate(49.295) scale(2.10236 0.730687)">
<stop stop-color="#B5A9BF"/>
<stop offset="1" stop-color="#B5A9BF" stop-opacity="0"/>
</radialGradient>
<radialGradient id="paint32_radial_810_9820" cx="0" cy="0" r="1" gradientUnits="userSpaceOnUse" gradientTransform="translate(11.9773 14.0143) rotate(-90) scale(2.04471 2.41687)">
<stop offset="0.135" stop-color="#361D22"/>
<stop offset="0.577" stop-color="#2A1618"/>
<stop offset="1" stop-color="#250E0D"/>
</radialGradient>
<linearGradient id="paint33_linear_810_9820" x1="15.2204" y1="17.7351" x2="14.7164" y2="17.7471" gradientUnits="userSpaceOnUse">
<stop offset="0.294" stop-color="#786D95"/>
<stop offset="1" stop-color="#786D95" stop-opacity="0"/>
</linearGradient>
<radialGradient id="paint34_radial_810_9820" cx="0" cy="0" r="1" gradientUnits="userSpaceOnUse" gradientTransform="translate(13.8674 12.2623) rotate(90) scale(1.33594 0.978285)">
<stop offset="0.123" stop-color="#322450"/>
<stop offset="1" stop-color="#322450" stop-opacity="0"/>
</radialGradient>
<radialGradient id="paint35_radial_810_9820" cx="0" cy="0" r="1" gradientUnits="userSpaceOnUse" gradientTransform="translate(9.42515 15.0051) rotate(-90) scale(2.35546 0.445312)">
<stop stop-color="#655C80"/>
<stop offset="1" stop-color="#655C80" stop-opacity="0"/>
</radialGradient>
<radialGradient id="paint36_radial_810_9820" cx="0" cy="0" r="1" gradientUnits="userSpaceOnUse" gradientTransform="translate(10.1168 12.0634) rotate(116.378) scale(1.60893 0.838523)">
<stop offset="0.145" stop-color="#2C1F4A"/>
<stop offset="1" stop-color="#2C1F4A" stop-opacity="0"/>
</radialGradient>
<radialGradient id="paint37_radial_810_9820" cx="0" cy="0" r="1" gradientUnits="userSpaceOnUse" gradientTransform="translate(15.1114 18.6626) rotate(121.842) scale(1.42807 1.28378)">
<stop offset="0.213" stop-color="#49A3E6"/>
<stop offset="1" stop-color="#2B86DD"/>
</radialGradient>
<radialGradient id="paint38_radial_810_9820" cx="0" cy="0" r="1" gradientUnits="userSpaceOnUse" gradientTransform="translate(14.4254 19.4059) rotate(-45) scale(0.834188 0.551087)">
<stop offset="0.204" stop-color="#4C7BBF"/>
<stop offset="1" stop-color="#2C6DBD"/>
</radialGradient>
<linearGradient id="paint39_linear_810_9820" x1="9.1425" y1="15.193" x2="9.1425" y2="21.322" gradientUnits="userSpaceOnUse">
<stop stop-color="#554975"/>
<stop offset="1" stop-color="#5F5280"/>
</linearGradient>
<linearGradient id="paint40_linear_810_9820" x1="7.12425" y1="18.9329" x2="7.79475" y2="18.9329" gradientUnits="userSpaceOnUse">
<stop stop-color="#3A97DB"/>
<stop offset="1" stop-color="#49A3E2"/>
</linearGradient>
<radialGradient id="paint41_radial_810_9820" cx="0" cy="0" r="1" gradientUnits="userSpaceOnUse" gradientTransform="translate(7.58625 17.6527) rotate(90) scale(2.625 0.210555)">
<stop offset="0.442" stop-color="#46A4E7"/>
<stop offset="1" stop-color="#46A4E7" stop-opacity="0"/>
</radialGradient>
<linearGradient id="paint42_linear_810_9820" x1="10.4038" y1="18.9407" x2="10.9078" y2="18.9407" gradientUnits="userSpaceOnUse">
<stop stop-color="#3A97DB"/>
<stop offset="1" stop-color="#49A3E2"/>
</linearGradient>
<linearGradient id="paint43_linear_810_9820" x1="11.2011" y1="18.5792" x2="11.0188" y2="18.5792" gradientUnits="userSpaceOnUse">
<stop stop-color="#3D9AD9"/>
<stop offset="1" stop-color="#3D9AD9" stop-opacity="0"/>
</linearGradient>
<radialGradient id="paint44_radial_810_9820" cx="0" cy="0" r="1" gradientUnits="userSpaceOnUse" gradientTransform="translate(15.528 8.89253) rotate(69.657) scale(1.61541 1.91898)">
<stop offset="0.215" stop-color="#3C3B3C"/>
<stop offset="1" stop-color="#221C27"/>
</radialGradient>
<radialGradient id="paint45_radial_810_9820" cx="0" cy="0" r="1" gradientUnits="userSpaceOnUse" gradientTransform="translate(7.42042 9.26083) rotate(17.4468) scale(1.16074 3.58099)">
<stop stop-color="#463C39"/>
<stop offset="0.746" stop-color="#1B141E"/>
</radialGradient>
<radialGradient id="paint46_radial_810_9820" cx="0" cy="0" r="1" gradientUnits="userSpaceOnUse" gradientTransform="translate(14.069 8.18609) rotate(180) scale(3.92089 6.93602)">
<stop stop-color="#563B38"/>
<stop offset="1" stop-color="#3C2828"/>
</radialGradient>
<linearGradient id="paint47_linear_810_9820" x1="15.8308" y1="9.45059" x2="12.5668" y2="9.45059" gradientUnits="userSpaceOnUse">
<stop stop-color="#563B38"/>
<stop offset="1" stop-color="#563B38" stop-opacity="0"/>
</linearGradient>
<radialGradient id="paint48_radial_810_9820" cx="0" cy="0" r="1" gradientUnits="userSpaceOnUse" gradientTransform="translate(13.1488 3.75134) rotate(94.7038) scale(9.34913 7.74217)">
<stop offset="0.767" stop-color="#432742" stop-opacity="0"/>
<stop offset="0.997" stop-color="#432742"/>
</radialGradient>
<radialGradient id="paint49_radial_810_9820" cx="0" cy="0" r="1" gradientUnits="userSpaceOnUse" gradientTransform="translate(13.7983 7.20209) rotate(-90) scale(0.861263 1.06581)">
<stop offset="0.325" stop-color="#432728"/>
<stop offset="1" stop-color="#432728" stop-opacity="0"/>
</radialGradient>
<radialGradient id="paint50_radial_810_9820" cx="0" cy="0" r="1" gradientUnits="userSpaceOnUse" gradientTransform="translate(10.2373 7.23734) rotate(-89.7942) scale(0.820715 0.893128)">
<stop offset="0.378" stop-color="#361E27"/>
<stop offset="1" stop-color="#361E27" stop-opacity="0"/>
</radialGradient>
<radialGradient id="paint51_radial_810_9820" cx="0" cy="0" r="1" gradientUnits="userSpaceOnUse" gradientTransform="translate(14.5378 8.92709) rotate(176.388) scale(6.38467 16.3096)">
<stop offset="0.836" stop-color="#564440" stop-opacity="0"/>
<stop offset="1" stop-color="#564440"/>
</radialGradient>
<radialGradient id="paint52_radial_810_9820" cx="0" cy="0" r="1" gradientUnits="userSpaceOnUse" gradientTransform="translate(7.862 4.94234) rotate(-33.0323) scale(3.64371 1.33385)">
<stop offset="0.38" stop-color="#231112"/>
<stop offset="1" stop-color="#231112" stop-opacity="0"/>
</radialGradient>
<radialGradient id="paint53_radial_810_9820" cx="0" cy="0" r="1" gradientUnits="userSpaceOnUse" gradientTransform="translate(16.1213 5.99811) rotate(95.368) scale(1.88133 0.752047)">
<stop offset="0.245" stop-color="#6B5B59"/>
<stop offset="1" stop-color="#6B5B59" stop-opacity="0"/>
</radialGradient>
<radialGradient id="paint54_radial_810_9820" cx="0" cy="0" r="1" gradientUnits="userSpaceOnUse" gradientTransform="translate(13.783 4.45191) rotate(121.159) scale(2.52673 2.08603)">
<stop offset="0.078" stop-color="#534445"/>
<stop offset="1" stop-color="#534445" stop-opacity="0"/>
</radialGradient>
<linearGradient id="paint55_linear_810_9820" x1="11.9983" y1="12.8758" x2="11.9983" y2="12.3951" gradientUnits="userSpaceOnUse">
<stop stop-color="#49201F"/>
<stop offset="1" stop-color="#49201F" stop-opacity="0"/>
</linearGradient>
<linearGradient id="paint56_linear_810_9820" x1="12.5918" y1="8.69136" x2="11.9633" y2="8.71761" gradientUnits="userSpaceOnUse">
<stop offset="0.36" stop-color="#66514E"/>
<stop offset="1" stop-color="#66514E" stop-opacity="0"/>
</linearGradient>
<radialGradient id="paint57_radial_810_9820" cx="0" cy="0" r="1" gradientUnits="userSpaceOnUse" gradientTransform="translate(12.3128 9.20586) rotate(90) scale(0.183075 0.575385)">
<stop stop-color="#685554"/>
<stop offset="1" stop-color="#685554" stop-opacity="0"/>
</radialGradient>
<linearGradient id="paint58_linear_810_9820" x1="11.9633" y1="9.54561" x2="11.9633" y2="9.19686" gradientUnits="userSpaceOnUse">
<stop stop-color="#3E2230"/>
<stop offset="1" stop-color="#3E2230" stop-opacity="0"/>
</linearGradient>
<radialGradient id="paint59_radial_810_9820" cx="0" cy="0" r="1" gradientUnits="userSpaceOnUse" gradientTransform="translate(12.4005 8.77836) rotate(155.369) scale(1.25506 2.01697)">
<stop offset="0.714" stop-color="#3E2B29" stop-opacity="0"/>
<stop offset="1" stop-color="#3F2C2A"/>
</radialGradient>
<linearGradient id="paint60_linear_810_9820" x1="11.9633" y1="7.32936" x2="11.9633" y2="7.92711" gradientUnits="userSpaceOnUse">
<stop stop-color="#4B302A"/>
<stop offset="1" stop-color="#4B302A" stop-opacity="0"/>
</linearGradient>
<linearGradient id="paint61_linear_810_9820" x1="11.0619" y1="10.7243" x2="11.3011" y2="10.0988" gradientUnits="userSpaceOnUse">
<stop stop-color="#584A4A"/>
<stop offset="1" stop-color="#40222D" stop-opacity="0"/>
</linearGradient>
<radialGradient id="paint62_radial_810_9820" cx="0" cy="0" r="1" gradientUnits="userSpaceOnUse" gradientTransform="translate(11.9632 10.842) rotate(-90) scale(0.540555 2.17478)">
<stop stop-color="#290018"/>
<stop offset="1" stop-color="#290017"/>
</radialGradient>
<linearGradient id="paint63_linear_810_9820" x1="17.1024" y1="3.93953" x2="8.39336" y2="3.93953" gradientUnits="userSpaceOnUse">
<stop stop-color="#443D40"/>
<stop offset="1" stop-color="#272127"/>
</linearGradient>
<radialGradient id="paint64_radial_810_9820" cx="0" cy="0" r="1" gradientUnits="userSpaceOnUse" gradientTransform="translate(8.0416 6.01703) rotate(-90) scale(2.626 6.64084)">
<stop offset="0.536" stop-color="#3E3433"/>
<stop offset="1" stop-color="#3E3433" stop-opacity="0"/>
</radialGradient>
<radialGradient id="paint65_radial_810_9820" cx="0" cy="0" r="1" gradientUnits="userSpaceOnUse" gradientTransform="translate(15.6093 7.00059) rotate(-87.401) scale(1.88635 3.34223)">
<stop stop-color="#4F4D4D"/>
<stop offset="1" stop-color="#4F4D4D" stop-opacity="0"/>
</radialGradient>
<radialGradient id="paint66_radial_810_9820" cx="0" cy="0" r="1" gradientUnits="userSpaceOnUse" gradientTransform="translate(15.0436 2.29253) rotate(-146.667) scale(2.11746 1.55433)">
<stop stop-color="#5E5A5B"/>
<stop offset="1" stop-color="#5E5A5B" stop-opacity="0"/>
</radialGradient>
<radialGradient id="paint67_radial_810_9820" cx="0" cy="0" r="1" gradientUnits="userSpaceOnUse" gradientTransform="translate(11.2846 1.09778) rotate(58.4653) scale(1.29792 3.00538)">
<stop offset="0.287" stop-color="#484646"/>
<stop offset="1" stop-color="#484646" stop-opacity="0"/>
</radialGradient>
<radialGradient id="paint68_radial_810_9820" cx="0" cy="0" r="1" gradientUnits="userSpaceOnUse" gradientTransform="translate(12.1528 2.79278) rotate(180) scale(1.65085 0.61269)">
<stop stop-color="#423C3F"/>
<stop offset="1" stop-color="#423C3F" stop-opacity="0"/>
</radialGradient>
<radialGradient id="paint69_radial_810_9820" cx="0" cy="0" r="1" gradientUnits="userSpaceOnUse" gradientTransform="translate(7.88979 5.74983) rotate(-57.724) scale(4.51997 5.00766)">
<stop offset="0.093" stop-color="#0B0306"/>
<stop offset="0.311" stop-color="#1C0C20"/>
<stop offset="1" stop-color="#1C0C20" stop-opacity="0"/>
</radialGradient>
<radialGradient id="paint70_radial_810_9820" cx="0" cy="0" r="1" gradientUnits="userSpaceOnUse" gradientTransform="translate(13.2748 4.54712) rotate(6.66699) scale(2.45274 1.02691)">
<stop stop-color="#200E25"/>
<stop offset="1" stop-color="#200E25" stop-opacity="0"/>
</radialGradient>
<radialGradient id="paint71_radial_810_9820" cx="0" cy="0" r="1" gradientUnits="userSpaceOnUse" gradientTransform="translate(13.5996 7.49837) rotate(90) scale(0.60849 0.967875)">
<stop offset="0.802" stop-color="#7D574A"/>
<stop offset="1" stop-color="#664842"/>
</radialGradient>
<radialGradient id="paint72_radial_810_9820" cx="0" cy="0" r="1" gradientUnits="userSpaceOnUse" gradientTransform="translate(13.4289 7.56226) rotate(-127.812) scale(0.283717 0.390608)">
<stop offset="0.766" stop-color="#FFE6E2" stop-opacity="0"/>
<stop offset="0.966" stop-color="#FFE6E2"/>
</radialGradient>
<linearGradient id="paint73_linear_810_9820" x1="14.1831" y1="7.53925" x2="13.9476" y2="7.684" gradientUnits="userSpaceOnUse">
<stop stop-color="#B4948D"/>
<stop offset="1" stop-color="#B4948D" stop-opacity="0"/>
</linearGradient>
<radialGradient id="paint74_radial_810_9820" cx="0" cy="0" r="1" gradientUnits="userSpaceOnUse" gradientTransform="translate(10.3268 7.49837) rotate(90) scale(0.60852 0.96792)">
<stop offset="0.802" stop-color="#7D574A"/>
<stop offset="1" stop-color="#664842"/>
</radialGradient>
<linearGradient id="paint75_linear_810_9820" x1="10.8848" y1="7.53963" x2="10.6493" y2="7.68437" gradientUnits="userSpaceOnUse">
<stop stop-color="#B4948D"/>
<stop offset="1" stop-color="#B4948D" stop-opacity="0"/>
</linearGradient>
<radialGradient id="paint76_radial_810_9820" cx="0" cy="0" r="1" gradientUnits="userSpaceOnUse" gradientTransform="translate(10.2239 7.64226) rotate(-118.811) scale(0.370606 0.445494)">
<stop offset="0.766" stop-color="#FFE6E2" stop-opacity="0"/>
<stop offset="0.966" stop-color="#FFE6E2"/>
</radialGradient>
<linearGradient id="paint77_linear_810_9820" x1="16.7903" y1="7.56008" x2="15.885" y2="9.19208" gradientUnits="userSpaceOnUse">
<stop stop-color="#62504F"/>
<stop offset="1" stop-color="#492F32"/>
</linearGradient>
<radialGradient id="paint78_radial_810_9820" cx="0" cy="0" r="1" gradientUnits="userSpaceOnUse" gradientTransform="translate(15.4268 7.50983) rotate(74.3475) scale(1.74726 1.66701)">
<stop offset="0.856" stop-color="#301924" stop-opacity="0"/>
<stop offset="1" stop-color="#301924"/>
</radialGradient>
<radialGradient id="paint79_radial_810_9820" cx="0" cy="0" r="1" gradientUnits="userSpaceOnUse" gradientTransform="translate(15.6968 7.91858) rotate(-53.9198) scale(1.00326 0.840932)">
<stop offset="0.664" stop-color="#351B1E"/>
<stop offset="1" stop-color="#351B1E" stop-opacity="0"/>
</radialGradient>
<radialGradient id="paint80_radial_810_9820" cx="0" cy="0" r="1" gradientUnits="userSpaceOnUse" gradientTransform="translate(15.7823 8.04758) rotate(-69.263) scale(1.24337 1.66131)">
<stop offset="0.803" stop-color="#361C1E" stop-opacity="0"/>
<stop offset="0.966" stop-color="#361C1E"/>
</radialGradient>
<linearGradient id="paint81_linear_810_9820" x1="7.57575" y1="8.08822" x2="8.66925" y2="7.99297" gradientUnits="userSpaceOnUse">
<stop stop-color="#372425"/>
<stop offset="1" stop-color="#281919"/>
</linearGradient>
<radialGradient id="paint82_radial_810_9820" cx="0" cy="0" r="1" gradientUnits="userSpaceOnUse" gradientTransform="translate(8.01557 7.63578) rotate(101.248) scale(1.58751 1.56067)">
<stop offset="0.775" stop-color="#301929" stop-opacity="0"/>
<stop offset="1" stop-color="#301929"/>
</radialGradient>
<radialGradient id="paint83_radial_810_9820" cx="0" cy="0" r="1" gradientUnits="userSpaceOnUse" gradientTransform="translate(8.27696 7.99136) rotate(170.261) scale(0.697411 0.307598)">
<stop stop-color="#2C1D22"/>
<stop offset="1" stop-color="#271416"/>
</radialGradient>
<linearGradient id="paint84_linear_810_9820" x1="16.0252" y1="7.27344" x2="16.0252" y2="8.70144" gradientUnits="userSpaceOnUse">
<stop stop-color="#4C3838"/>
<stop offset="1" stop-color="#3E2724"/>
</linearGradient>
</defs>
</svg>
