<svg width="39" height="25" viewBox="0 0 39 25" fill="none" xmlns="http://www.w3.org/2000/svg">
<g clip-path="url(#clip0_886_6003)">
<path d="M14.2134 3.08789H24.7479V22.1074H14.2134V3.08789Z" fill="#FF5F00"/>
<path d="M14.8823 12.5972C14.8823 8.73288 16.6882 5.30527 19.4639 3.08739C17.424 1.47446 14.8489 0.5 12.0397 0.5C5.38429 0.5 0 5.91006 0 12.5972C0 19.2844 5.38429 24.6944 12.0396 24.6944C14.8488 24.6944 17.4239 23.72 19.4639 22.1069C16.6882 19.9227 14.8823 16.4615 14.8823 12.5972Z" fill="#EB001B"/>
<path d="M38.9615 12.5972C38.9615 19.2842 33.5772 24.6944 26.9219 24.6944C24.1127 24.6944 21.5376 23.72 19.4976 22.1069C22.3068 19.8892 24.0793 16.4615 24.0793 12.5972C24.0793 8.73288 22.2733 5.30527 19.4976 3.08739C21.5374 1.47446 24.1127 0.5 26.9219 0.5C33.5772 0.5 38.9615 5.94374 38.9615 12.5972Z" fill="#F79E1B"/>
</g>
<defs>
<clipPath id="clip0_886_6003">
<rect width="39" height="24" fill="white" transform="translate(0 0.5)"/>
</clipPath>
</defs>
</svg>
