<svg width="24" height="25" viewBox="0 0 24 25" fill="none" xmlns="http://www.w3.org/2000/svg">
<path d="M5 23.5V21.5C5.55 21.5 6.021 21.696 6.413 22.088C6.805 22.48 7.00067 22.9507 7 23.5H5ZM9 23.5C9 22.4 8.60833 21.4583 7.825 20.675C7.04167 19.8917 6.1 19.5 5 19.5V17.5C6.66667 17.5 8.08333 18.0833 9.25 19.25C10.4167 20.4167 11 21.8333 11 23.5H9ZM13 23.5C13 21.2667 12.225 19.375 10.675 17.825C9.125 16.275 7.23333 15.5 5 15.5V13.5C6.38333 13.5 7.68333 13.7627 8.9 14.288C10.1167 14.8133 11.175 15.5257 12.075 16.425C12.975 17.3243 13.6877 18.3827 14.213 19.6C14.7383 20.8173 15.0007 22.1173 15 23.5H13ZM19 3.5V6.6C19.3 6.71667 19.5417 6.9 19.725 7.15C19.9083 7.4 20 7.68333 20 8V10C20 10.3167 19.9083 10.6 19.725 10.85C19.5417 11.1 19.3 11.2833 19 11.4V21.5C19 22.05 18.8043 22.521 18.413 22.913C18.0217 23.305 17.5507 23.5007 17 23.5V3.5H7V11.5H5V3.5C5 2.95 5.196 2.47933 5.588 2.088C5.98 1.69667 6.45067 1.50067 7 1.5H17C17.55 1.5 18.021 1.696 18.413 2.088C18.805 2.48 19.0007 2.95067 19 3.5ZM12 6.5C12.2833 6.5 12.521 6.404 12.713 6.212C12.905 6.02 13.0007 5.78267 13 5.5C12.9993 5.21733 12.9033 4.98 12.712 4.788C12.5207 4.596 12.2833 4.5 12 4.5C11.7167 4.5 11.4793 4.596 11.288 4.788C11.0967 4.98 11.0007 5.21733 11 5.5C10.9993 5.78267 11.0953 6.02033 11.288 6.213C11.4807 6.40567 11.718 6.50133 12 6.5Z" fill="black"/>
</svg>
