<svg width="24" height="24" viewBox="0 0 24 24" fill="none" xmlns="http://www.w3.org/2000/svg">
<g clip-path="url(#clip0_810_9710)">
<path d="M23.9992 7.94514C23.9992 9.16239 23.5158 10.3298 22.6551 11.1906C22.229 11.6168 21.723 11.9549 21.1662 12.1856C20.6094 12.4163 20.0125 12.5351 19.4098 12.5351C18.1926 12.5352 17.0251 12.0518 16.1643 11.1911C15.3036 10.3304 14.8199 9.16306 14.8198 7.9458C14.8197 6.72846 15.3032 5.56094 16.164 4.70008C17.0247 3.83923 18.1921 3.35556 19.4095 3.35547C20.6268 3.35538 21.7944 3.83888 22.6552 4.69961C23.5161 5.56034 23.9991 6.72779 23.9992 7.94514Z" fill="#8899A6"/>
<path d="M21.8735 12.3781C21.8203 12.4315 21.757 12.4738 21.6874 12.5026C21.6178 12.5315 21.5432 12.5463 21.4679 12.5463C21.3925 12.5463 21.3179 12.5315 21.2483 12.5026C21.1787 12.4738 21.1154 12.4315 21.0622 12.3781L14.9775 6.2928C14.9242 6.23956 14.8819 6.17632 14.8531 6.10671C14.8242 6.0371 14.8093 5.96249 14.8093 5.88714C14.8093 5.81178 14.8242 5.73717 14.8531 5.66756C14.8819 5.59796 14.9242 5.53472 14.9775 5.48147L15.7889 4.67014C15.8421 4.61682 15.9053 4.57452 15.9749 4.54567C16.0446 4.51681 16.1192 4.50195 16.1945 4.50195C16.2699 4.50195 16.3445 4.51681 16.4141 4.54567C16.4837 4.57452 16.5469 4.61682 16.6002 4.67014L22.6849 10.7555C22.7382 10.8087 22.7805 10.872 22.8093 10.9416C22.8382 11.0112 22.853 11.0858 22.853 11.1611C22.853 11.2365 22.8382 11.3111 22.8093 11.3807C22.7805 11.4503 22.7382 11.5136 22.6849 11.5668L21.8735 12.3781ZM17.8262 12.4688L14.9429 9.58414C14.4242 9.0648 13.6129 9.09547 13.1302 9.65147L7.02486 16.7008C6.21219 17.6395 6.05086 18.9368 6.55086 19.8541L3.27686 23.1288L4.21619 24.0681L7.46752 20.8168C8.38819 21.3768 9.74152 21.2228 10.7089 20.3848L17.7589 14.2801C18.3149 13.7981 18.3462 12.9868 17.8262 12.4688Z" fill="#31373D"/>
<path d="M2.66667 3.99935V9.41401C2.4484 9.36088 2.22464 9.33358 2 9.33268C0.895333 9.33268 0 9.93002 0 10.666C0 11.402 0.895333 11.9993 2 11.9993C3.10467 11.9993 4 11.402 4 10.666V6.59202L7.33333 8.07335V11.414C7.11507 11.3609 6.89131 11.3336 6.66667 11.3327C5.562 11.3327 4.66667 11.93 4.66667 12.666C4.66667 13.402 5.562 13.9993 6.66667 13.9993C7.77133 13.9993 8.666 13.402 8.66667 12.666V6.66602L2.66667 3.99935ZM12 0.666016V6.08135C11.7818 6.02799 11.558 6.00046 11.3333 5.99935C10.2287 5.99935 9.33333 6.59602 9.33333 7.33268C9.33333 8.06935 10.2287 8.66602 11.3333 8.66602C12.4373 8.66602 13.3333 8.06868 13.3333 7.33268V0.666016H12Z" fill="#55ACEE"/>
</g>
<defs>
<clipPath id="clip0_810_9710">
<rect width="24" height="24" fill="white"/>
</clipPath>
</defs>
</svg>
