<svg width="24" height="24" viewBox="0 0 24 24" fill="none" xmlns="http://www.w3.org/2000/svg">
<g clip-path="url(#clip0_810_9805)">
<path d="M3.0525 18.4825C2.3025 18.1413 1.6875 17.1869 1.6875 16.3619V9.98688C1.6875 9.16188 2.3025 8.2075 3.0525 7.86625L10.6331 4.42C11.385 4.07875 12.6131 4.07875 13.365 4.42L20.9456 7.86625C21.6975 8.2075 22.3106 9.16188 22.3106 9.98688V16.3619C22.3106 17.1869 21.6956 18.1413 20.9456 18.4825L13.365 21.9288C12.6131 22.27 11.385 22.27 10.6331 21.9288L3.0525 18.4825Z" fill="#006CA2"/>
<path d="M13.3652 12.5538C12.6133 12.895 11.3852 12.895 10.6333 12.5538L3.05268 9.1075C2.3008 8.76625 2.3008 8.2075 3.05268 7.86625L10.6333 4.42C11.3852 4.07875 12.6133 4.07875 13.3652 4.42L20.9458 7.86625C21.6977 8.2075 21.6977 8.76625 20.9458 9.1075L13.3652 12.5538Z" fill="#40C0E7"/>
<path d="M15.5045 10.4877C15.317 10.574 15.0095 10.574 14.822 10.4877L7.59766 7.20461C7.41016 7.11836 7.41016 6.97961 7.59766 6.89336L8.49578 6.48461C8.68328 6.39836 8.99078 6.39836 9.17828 6.48461L16.4027 9.76961C16.5902 9.85586 16.5902 9.99461 16.4027 10.0809L15.5045 10.4877Z" fill="#006CA2"/>
<path d="M14.8762 10.0743C14.8762 10.0762 14.8744 10.0762 14.8744 10.0762L8.62687 7.23742C8.625 7.23555 8.625 7.23555 8.625 7.23367L10.7925 1.45305C10.7925 1.45117 10.7944 1.45117 10.7944 1.45117L17.0419 4.28992C17.0438 4.28992 17.0438 4.2918 17.0438 4.2918L14.8762 10.0743Z" fill="#FBC21A"/>
<path d="M14.8745 10.0754L17.0439 4.29102" stroke="#875A3B" stroke-width="0.25" stroke-miterlimit="10"/>
</g>
<defs>
<clipPath id="clip0_810_9805">
<rect width="24" height="24" fill="white"/>
</clipPath>
</defs>
</svg>
