<svg width="20" height="20" viewBox="0 0 20 20" fill="none" xmlns="http://www.w3.org/2000/svg">
<path d="M4.16699 2.91602H15.8337V16.2207C15.8337 16.9126 15.0392 17.3031 14.4913 16.8805L13.3823 16.025C13.1033 15.8097 12.7191 15.7933 12.4227 15.9838L10.9016 16.9616C10.3526 17.3146 9.64808 17.3146 9.09906 16.9616L7.57799 15.9838C7.28158 15.7933 6.89736 15.8097 6.61836 16.025L5.50933 16.8805C4.96147 17.3031 4.16699 16.9126 4.16699 16.2207V2.91602Z" stroke="#2F2F2F" stroke-width="1.25"/>
<path d="M7.5 7.91667H10" stroke="#2F2F2F" stroke-width="1.25" stroke-linecap="round" stroke-linejoin="round"/>
<path d="M2.5 2.91667H17.5" stroke="#2F2F2F" stroke-width="1.25" stroke-linecap="round" stroke-linejoin="round"/>
<path d="M7.5 11.2507H10" stroke="#2F2F2F" stroke-width="1.25" stroke-linecap="round" stroke-linejoin="round"/>
<path d="M12.5 7.91667H12.9167" stroke="#2F2F2F" stroke-width="1.25" stroke-linecap="round" stroke-linejoin="round"/>
<path d="M12.5 11.2507H12.9167" stroke="#2F2F2F" stroke-width="1.25" stroke-linecap="round" stroke-linejoin="round"/>
</svg>
