<svg width="24" height="24" viewBox="0 0 24 24" fill="none" xmlns="http://www.w3.org/2000/svg">
<g clip-path="url(#clip0_810_9769)">
<path d="M13.5976 1.64062C13.7041 1.64062 13.7911 1.794 13.7911 1.98225C13.7911 2.17087 13.7041 2.32425 13.5976 2.32425H10.5714C10.4641 2.32425 10.376 2.17087 10.376 1.98225C10.376 1.794 10.4641 1.64062 10.5714 1.64062H13.5976Z" fill="#99999A"/>
<path d="M4.76417 15.7766L5.09567 14.0254L4.1203 14.2879L3.30617 14.9021L2.49805 15.7766H4.76417ZM19.3472 15.7766L19.0149 14.0254L19.991 14.2879L20.8048 14.9021L21.6118 15.7766H19.3472Z" fill="#992C3D"/>
<path d="M12.4275 5.70131C12.4246 5.79011 12.3873 5.87428 12.3234 5.93605C12.2596 5.99782 12.1742 6.03236 12.0854 6.03236C11.9965 6.03236 11.9111 5.99782 11.8473 5.93605C11.7834 5.87428 11.7461 5.79011 11.7432 5.70131V0.342188C11.7432 0.251434 11.7792 0.164397 11.8434 0.100224C11.9076 0.0360518 11.9946 0 12.0854 0C12.1761 0 12.2631 0.0360518 12.3273 0.100224C12.3915 0.164397 12.4275 0.251434 12.4275 0.342188V5.70131Z" fill="#99999A"/>
<path d="M19.5712 22.0078C20.0951 22.0078 20.5207 22.1601 20.5207 22.3479C20.5207 22.5381 20.0951 22.6903 19.5712 22.6903H4.6998C4.17743 22.6903 3.75293 22.5381 3.75293 22.3479C3.75293 22.1601 4.17743 22.0078 4.6998 22.0078H19.5712Z" fill="#BBBDBF"/>
<path d="M20.5309 22.6914C21.1287 22.6914 21.6121 22.8448 21.6121 23.0334C21.6121 23.222 21.1287 23.375 20.5309 23.375H3.57718C2.98168 23.375 2.49756 23.2224 2.49756 23.0334C2.49756 22.8448 2.98168 22.6914 3.57718 22.6914H20.5309Z" fill="#99999A"/>
<path d="M21.6011 23.373C22.2682 23.373 22.8067 23.5268 22.8067 23.7147C22.8067 23.9033 22.2682 24.057 21.6011 24.057H2.70484C2.04109 24.057 1.50146 23.9033 1.50146 23.7147C1.50146 23.5268 2.04109 23.373 2.70484 23.373H21.6011Z" fill="#7C7C7D"/>
<path d="M9.46777 16.1131V6.2007L12.0826 4.31445L14.7001 6.2007V16.1131H9.46777Z" fill="#F79420"/>
<path d="M12.1281 4.41211H12.1769L10.6386 6.25561V9.95498L9.44238 10.5891L9.46751 10.2467V5.97473L12.1281 4.41211Z" fill="#CB7829"/>
<path d="M4.4458 22.0068V14.4955L12.0786 8.98828L19.7226 14.4955V22.0068H4.4458Z" fill="#F79420"/>
<path d="M12.2447 9.17241L7.2373 14.4067V22.0064H4.4458V14.3167L11.8832 8.98828L12.2447 9.17241Z" fill="#CB7829"/>
<path d="M13.0903 9.25449V7.68436C13.0939 7.54993 13.0706 7.41612 13.0217 7.29084C12.9728 7.16556 12.8993 7.05135 12.8055 6.95497C12.7117 6.85858 12.5995 6.78197 12.4756 6.72966C12.3517 6.67734 12.2186 6.65039 12.0841 6.65039C11.9496 6.65039 11.8165 6.67734 11.6926 6.72966C11.5687 6.78197 11.4566 6.85858 11.3628 6.95497C11.269 7.05135 11.1955 7.16556 11.1466 7.29084C11.0977 7.41612 11.0743 7.54993 11.078 7.68436V9.25449H13.0903Z" fill="#633C17"/>
<path d="M12.3314 6.71149C12.2507 6.69009 12.1677 6.67876 12.0843 6.67774C11.9521 6.67759 11.8211 6.70352 11.699 6.75406C11.5768 6.80459 11.4658 6.87873 11.3724 6.97223C11.2789 7.06572 11.2048 7.17674 11.1543 7.29892C11.1038 7.4211 11.0779 7.55204 11.0781 7.68423V9.25436H11.5686V7.68386C11.5686 7.21361 11.8926 6.82136 12.3314 6.71149Z" fill="#462A15"/>
<path d="M12.2901 8.81757C12.4105 8.99495 12.3445 9.24807 12.1465 9.38232L2.76397 15.6958C2.56522 15.8297 2.30497 15.7941 2.18534 15.6174C2.06497 15.4382 2.13059 15.1855 2.32972 15.0512L11.7122 8.73732C11.9121 8.60307 12.1708 8.63945 12.2908 8.81757" fill="#DE374B"/>
<path d="M11.8333 8.81827C11.7129 8.99565 11.7785 9.24877 11.9769 9.38302L21.3594 15.6969C21.5589 15.8308 21.8165 15.7951 21.938 15.6185C22.0584 15.4393 21.9924 15.1865 21.7929 15.0523L12.4104 8.73802C12.2094 8.60377 11.9506 8.64015 11.8318 8.81827M15.2473 5.90865L12.3166 3.93727C12.2485 3.89364 12.1678 3.87373 12.0871 3.88065C12.004 3.87261 11.9206 3.89254 11.8501 3.93727L8.92101 5.90865C8.75751 6.02077 8.71026 6.2379 8.81676 6.3954C8.848 6.44162 8.89021 6.47938 8.93962 6.5053C8.98903 6.53121 9.04409 6.54447 9.09988 6.5439C9.1734 6.54332 9.24512 6.52115 9.30613 6.48015L12.0841 4.61002L14.8625 6.48015C14.9233 6.52177 14.9953 6.5439 15.0684 6.5439C15.1242 6.54395 15.1792 6.53046 15.2286 6.5046C15.278 6.47873 15.3205 6.44126 15.3523 6.3954C15.458 6.2379 15.41 6.02115 15.2473 5.90865Z" fill="#DE374B"/>
<path d="M14.5257 22.0275V18.2197C14.526 17.5723 14.2691 16.9513 13.8116 16.4933C13.3541 16.0353 12.7333 15.7777 12.0859 15.7773C11.7652 15.7772 11.4475 15.8403 11.1511 15.963C10.8547 16.0856 10.5854 16.2655 10.3586 16.4924C10.1318 16.7192 9.95186 16.9885 9.82917 17.2849C9.70648 17.5813 9.64341 17.8989 9.64355 18.2197V22.0275H14.5257Z" fill="#633C17"/>
<path d="M12.8701 15.9117C12.6179 15.8243 12.3528 15.7795 12.0859 15.7793C11.7652 15.7791 11.4475 15.8422 11.1511 15.9649C10.8547 16.0876 10.5854 16.2675 10.3586 16.4943C10.1318 16.7211 9.95186 16.9905 9.82917 17.2868C9.70648 17.5832 9.64341 17.9009 9.64355 18.2217V22.0294H11.2133V18.2217C11.2131 17.7117 11.3729 17.2145 11.6701 16.8002C11.9673 16.3858 12.387 16.075 12.8701 15.9117Z" fill="#462A15"/>
<path d="M18.3825 22.0078V20.438C18.3825 20.1711 18.2765 19.9152 18.0878 19.7265C17.8991 19.5377 17.6431 19.4317 17.3762 19.4317C17.1093 19.4317 16.8534 19.5377 16.6646 19.7265C16.4759 19.9152 16.3699 20.1711 16.3699 20.438V22.0078H18.3825ZM7.8424 22.0078V20.438C7.84499 20.3043 7.82087 20.1713 7.77145 20.0469C7.72204 19.9226 7.64833 19.8093 7.55463 19.7138C7.46093 19.6183 7.34912 19.5424 7.22574 19.4906C7.10237 19.4388 6.9699 19.4121 6.83609 19.4121C6.70228 19.4121 6.56981 19.4388 6.44644 19.4906C6.32306 19.5424 6.21125 19.6183 6.11755 19.7138C6.02385 19.8093 5.95014 19.9226 5.90073 20.0469C5.85131 20.1713 5.82719 20.3043 5.82978 20.438V22.0078H7.8424Z" fill="#633C17"/>
<path d="M7.16647 19.4691C7.01428 19.4178 6.85207 19.4034 6.69323 19.4271C6.53439 19.4508 6.38346 19.512 6.25289 19.6055C6.12232 19.699 6.01584 19.8222 5.94225 19.9649C5.86865 20.1077 5.83003 20.2659 5.82959 20.4265V22.0063H6.48171V20.4265C6.48171 19.9832 6.76822 19.606 7.16647 19.4691ZM17.7077 19.4762C17.5555 19.4244 17.3932 19.4096 17.2341 19.4331C17.0751 19.4566 16.9239 19.5177 16.7932 19.6113C16.6625 19.7049 16.556 19.8283 16.4825 19.9713C16.4091 20.1143 16.3708 20.2728 16.3708 20.4336V22.012H17.0211V20.4336C17.0214 20.2223 17.0877 20.0164 17.2108 19.8448C17.3339 19.6731 17.5077 19.5442 17.7077 19.4762Z" fill="#462A15"/>
</g>
<defs>
<clipPath id="clip0_810_9769">
<rect width="24" height="24" fill="white"/>
</clipPath>
</defs>
</svg>
