<svg width="24" height="25" viewBox="0 0 24 25" fill="none" xmlns="http://www.w3.org/2000/svg">
<path d="M18.3042 13.4876L17.7543 12.9776L18.3042 13.4876ZM11.2332 6.41654L11.7432 6.96644L11.2332 6.41654ZM21.6616 4.95103L22.4053 5.04829L21.6616 4.95103ZM19.7698 3.05917L19.867 3.80284L19.7698 3.05917ZM6.49508 13.3293L7.1685 13.6595L6.49508 13.3293ZM11.3915 18.2257L11.0613 17.5523L11.3915 18.2257ZM8.22801 10.8359C7.93512 10.543 7.46024 10.543 7.16735 10.8359C6.87446 11.1288 6.87446 11.6037 7.16735 11.8966L8.22801 10.8359ZM12.8242 17.5534C13.1171 17.8463 13.592 17.8463 13.8849 17.5534C14.1778 17.2605 14.1778 16.7857 13.8849 16.4928L12.8242 17.5534ZM6.46024 19.3212C6.75314 19.0283 6.75314 18.5534 6.46024 18.2605C6.16735 17.9676 5.69248 17.9676 5.39958 18.2605L6.46024 19.3212ZM2.57116 21.089C2.27826 21.3819 2.27826 21.8567 2.57116 22.1496C2.86405 22.4425 3.33892 22.4425 3.63182 22.1496L2.57116 21.089ZM4.33892 17.1999C4.63182 16.907 4.63182 16.4321 4.33892 16.1392C4.04603 15.8463 3.57116 15.8463 3.27826 16.1392L4.33892 17.1999ZM1.86405 17.5534C1.57116 17.8463 1.57116 18.3212 1.86405 18.6141C2.15694 18.907 2.63182 18.907 2.92471 18.6141L1.86405 17.5534ZM8.58156 21.4425C8.87445 21.1496 8.87445 20.6748 8.58156 20.3819C8.28867 20.089 7.81379 20.089 7.5209 20.3819L8.58156 21.4425ZM6.10669 21.7961C5.8138 22.089 5.8138 22.5638 6.10669 22.8567C6.39958 23.1496 6.87446 23.1496 7.16735 22.8567L6.10669 21.7961ZM10.5968 21.7607L11.3393 21.6547L10.5968 21.7607ZM15.7587 18.2959L16.5012 18.1898L15.7587 18.2959ZM2.96004 14.124L3.06611 13.3815L3.06611 13.3815L2.96004 14.124ZM6.42487 8.96211L6.3188 9.70457L6.3188 9.70457L6.42487 8.96211ZM9.22063 17.839L9.75096 17.3087L7.4121 14.9698L6.88177 15.5002L6.35144 16.0305L8.6903 18.3693L9.22063 17.839ZM18.3042 13.4876L17.7543 12.9776C15.8607 15.0193 12.786 16.7068 11.0613 17.5523L11.3915 18.2257L11.7216 18.8991C13.4618 18.046 16.7575 16.2582 18.8541 13.9976L18.3042 13.4876ZM6.49508 13.3293L7.1685 13.6595C8.01404 11.9348 9.70145 8.86008 11.7432 6.96644L11.2332 6.41654L10.7232 5.86665C8.46255 7.9633 6.67479 11.259 5.82165 12.9992L6.49508 13.3293ZM21.6616 4.95103L20.9179 4.85377C20.6141 7.17712 19.8068 10.7647 17.7543 12.9776L18.3042 13.4876L18.8541 13.9976C21.2496 11.4148 22.0968 7.4073 22.4053 5.04829L21.6616 4.95103ZM11.2332 6.41654L11.7432 6.96644C13.9561 4.91403 17.5437 4.1067 19.867 3.80284L19.7698 3.05917L19.6725 2.31551C17.3135 2.62403 13.306 3.47114 10.7232 5.86665L11.2332 6.41654ZM21.6616 4.95103L22.4053 5.04829C22.6164 3.43442 21.2864 2.10443 19.6725 2.31551L19.7698 3.05917L19.867 3.80284C20.504 3.71953 21.0013 4.21681 20.9179 4.85377L21.6616 4.95103ZM6.88177 15.5002L7.4121 14.9698C7.04892 14.6067 6.96018 14.0844 7.1685 13.6595L6.49508 13.3293L5.82165 12.9992C5.31346 14.0358 5.56365 15.2427 6.35144 16.0305L6.88177 15.5002ZM9.22063 17.839L8.6903 18.3693C9.47809 19.1571 10.685 19.4073 11.7216 18.8991L11.3915 18.2257L11.0613 17.5523C10.6364 17.7606 10.1141 17.6719 9.75096 17.3087L9.22063 17.839ZM7.69768 11.3662L7.16735 11.8966L12.8242 17.5534L13.3545 17.0231L13.8849 16.4928L8.22801 10.8359L7.69768 11.3662ZM5.92991 18.7909L5.39958 18.2605L2.57116 21.089L3.10149 21.6193L3.63182 22.1496L6.46024 19.3212L5.92991 18.7909ZM3.80859 16.6696L3.27826 16.1392L1.86405 17.5534L2.39438 18.0838L2.92471 18.6141L4.33892 17.1999L3.80859 16.6696ZM8.05123 20.9122L7.5209 20.3819L6.10669 21.7961L6.63702 22.3264L7.16735 22.8567L8.58156 21.4425L8.05123 20.9122ZM13.7081 8.18427L13.1778 7.65394C12.1038 8.72788 12.1038 10.4691 13.1778 11.543L13.7081 11.0127L14.2384 10.4824C13.7503 9.99421 13.7503 9.20276 14.2384 8.7146L13.7081 8.18427ZM13.7081 11.0127L13.1778 11.543C14.2517 12.617 15.9929 12.617 17.0668 11.543L16.5365 11.0127L16.0062 10.4824C15.518 10.9705 14.7266 10.9705 14.2384 10.4824L13.7081 11.0127ZM16.5365 11.0127L17.0668 11.543C18.1408 10.4691 18.1408 8.72788 17.0668 7.65394L16.5365 8.18427L16.0062 8.7146C16.4943 9.20276 16.4943 9.99421 16.0062 10.4824L16.5365 11.0127ZM16.5365 8.18427L17.0668 7.65394C15.9929 6.58 14.2517 6.58 13.1778 7.65394L13.7081 8.18427L14.2384 8.7146C14.7266 8.22644 15.518 8.22644 16.0062 8.7146L16.5365 8.18427ZM15.4759 19.1444L14.9455 18.6141L11.7635 21.7961L12.2939 22.3264L12.8242 22.8567L16.0062 19.6748L15.4759 19.1444ZM10.5968 21.7607L11.3393 21.6547L10.915 18.6848L10.1726 18.7909L9.43009 18.8969L9.85436 21.8668L10.5968 21.7607ZM15.4759 16.316L14.7334 16.4221L15.0162 18.402L15.7587 18.2959L16.5012 18.1898L16.2183 16.2099L15.4759 16.316ZM12.2939 22.3264L11.7635 21.7961C11.6179 21.9417 11.3684 21.8586 11.3393 21.6547L10.5968 21.7607L9.85436 21.8668C10.0583 23.2944 11.8045 23.8764 12.8242 22.8567L12.2939 22.3264ZM15.4759 19.1444L16.0062 19.6748C16.3957 19.2853 16.5791 18.7351 16.5012 18.1898L15.7587 18.2959L15.0162 18.402C15.0274 18.4799 15.0012 18.5585 14.9455 18.6141L15.4759 19.1444ZM5.57634 9.24495L5.04601 8.71462L1.86403 11.8966L2.39436 12.4269L2.92469 12.9573L6.10667 9.77528L5.57634 9.24495ZM2.96004 14.124L2.85398 14.8665L5.82382 15.2907L5.92989 14.5483L6.03596 13.8058L3.06611 13.3815L2.96004 14.124ZM8.40476 9.24495L8.51083 8.50249L6.53093 8.21965L6.42487 8.96211L6.3188 9.70457L8.2987 9.98741L8.40476 9.24495ZM2.39436 12.4269L1.86403 11.8966C0.844323 12.9163 1.42639 14.6625 2.85398 14.8665L2.96004 14.124L3.06611 13.3815C2.86217 13.3524 2.77902 13.1029 2.92469 12.9573L2.39436 12.4269ZM5.57634 9.24495L6.10667 9.77528C6.16231 9.71964 6.2409 9.69344 6.3188 9.70457L6.42487 8.96211L6.53093 8.21965C5.98564 8.14175 5.4355 8.32513 5.04601 8.71462L5.57634 9.24495Z" fill="#404040"/>
</svg>
