<svg width="24" height="24" viewBox="0 0 24 24" fill="none" xmlns="http://www.w3.org/2000/svg">
<path fill-rule="evenodd" clip-rule="evenodd" d="M5 1C3.93913 1 2.92172 1.42143 2.17157 2.17157C1.42143 2.92172 1 3.93913 1 5V19C1 20.0609 1.42143 21.0783 2.17157 21.8284C2.92172 22.5786 3.93913 23 5 23H19C20.0609 23 21.0783 22.5786 21.8284 21.8284C22.5786 21.0783 23 20.0609 23 19V5C23 3.93913 22.5786 2.92172 21.8284 2.17157C21.0783 1.42143 20.0609 1 19 1H5ZM12 20C14.1217 20 16.1566 19.1571 17.6569 17.6569C19.1571 16.1566 20 14.1217 20 12C20 9.87827 19.1571 7.84344 17.6569 6.34315C16.1566 4.84285 14.1217 4 12 4C9.87827 4 7.84344 4.84285 6.34315 6.34315C4.84285 7.84344 4 9.87827 4 12C4 14.1217 4.84285 16.1566 6.34315 17.6569C7.84344 19.1571 9.87827 20 12 20ZM17.789 13.43C17.8784 14.0217 17.7657 14.6263 17.469 15.146C17.7287 14.6915 17.8962 14.1904 17.9622 13.6711C18.0281 13.1519 17.991 12.6247 17.8531 12.1198C17.7152 11.6149 17.4791 11.1421 17.1584 10.7284C16.8377 10.3148 16.4386 9.96836 15.984 9.709C15.6113 9.48396 15.2027 9.32464 14.776 9.238C14.701 9.22751 14.6246 9.24199 14.5586 9.27922C14.4927 9.31645 14.4408 9.37436 14.411 9.444C14.1561 10.0075 13.7086 10.4617 13.149 10.725C12.7997 10.8943 12.4175 10.985 12.0293 10.9907C11.6411 10.9964 11.2564 10.9169 10.9023 10.7579C10.5482 10.5988 10.2332 10.3641 9.97957 10.0701C9.72596 9.77622 9.53986 9.43028 9.43437 9.05667C9.32889 8.68307 9.30659 8.29088 9.36904 7.90772C9.43149 7.52457 9.57718 7.15976 9.79585 6.83899C10.0145 6.51822 10.3008 6.24928 10.6347 6.05111C10.9685 5.85294 11.3417 5.73036 11.728 5.692C10.7192 5.76103 9.77442 6.21106 9.08513 6.95085C8.39584 7.69065 8.01364 8.66486 8.016 9.676C8.018 10.127 8.099 10.574 8.255 10.997C8.28044 11.0687 8.33016 11.1292 8.39554 11.1681C8.46092 11.207 8.53785 11.2218 8.613 11.21C9.10713 11.1644 9.60417 11.2581 10.0478 11.4805C10.4914 11.7029 10.8638 12.0452 11.1228 12.4685C11.3818 12.8917 11.517 13.3791 11.5132 13.8753C11.5093 14.3716 11.3665 14.8568 11.101 15.276C10.8733 15.6373 10.5618 15.9384 10.1929 16.1537C9.8241 16.369 9.40877 16.4922 8.98218 16.5128C8.55558 16.5334 8.13031 16.4508 7.74243 16.2721C7.35454 16.0933 7.01548 15.8237 6.754 15.486C7.32577 16.2993 8.18097 16.8695 9.15163 17.0845C10.1223 17.2995 11.1383 17.1438 12 16.648C12.38 16.418 12.718 16.126 13.003 15.785C13.0513 15.7247 13.0776 15.6497 13.0776 15.5725C13.0776 15.4953 13.0513 15.4203 13.003 15.36C12.8 15.0725 12.6561 14.7476 12.5795 14.4041C12.503 14.0606 12.4954 13.7053 12.5571 13.3588C12.6189 13.0124 12.7488 12.6816 12.9393 12.3857C13.1298 12.0898 13.3772 11.8346 13.667 11.635C14.0381 11.382 14.4673 11.2273 14.9145 11.1852C15.3617 11.1432 15.8122 11.2152 16.224 11.3946C16.6358 11.5741 16.9953 11.855 17.269 12.2111C17.5427 12.5672 17.7216 12.9859 17.789 13.43Z" fill="#00C7BE"/>
</svg>
