<svg width="24" height="24" viewBox="0 0 24 24" fill="none" xmlns="http://www.w3.org/2000/svg">
<circle cx="3" cy="3" r="3" transform="matrix(-1 0 0 1 15 9)" stroke="#595959" stroke-width="1.5"/>
<path d="M12 2L12 1.25H12V2ZM16.5 4.9375L16.125 5.58702L16.1251 5.58705L16.5 4.9375ZM16.5 19.0625L16.125 18.413L16.125 18.413L16.5 19.0625ZM12 22V22.75H12L12 22ZM7.5 19.0625L7.87511 18.413L7.875 18.413L7.5 19.0625ZM7.5 4.9375L7.875 5.58702L7.87507 5.58698L7.5 4.9375ZM8.91933 3.01535L8.18847 2.84699L8.91933 3.01535ZM2.90722 9.68646L3.38427 9.10774L2.90722 9.68646ZM4.4085 18.5048L4.97775 18.0165L4.4085 18.5048ZM9.53471 21.6935L9.35034 22.4205L9.53471 21.6935ZM8.91922 20.9838L9.65004 20.8153L8.91922 20.9838ZM15.079 20.9838L14.3482 20.8149L15.079 20.9838ZM14.4633 21.6935L14.2789 20.9665L14.4633 21.6935ZM19.5894 18.505L19.0203 18.0166L19.5894 18.505ZM21.4414 8.70679L22.1496 8.45987L21.4414 8.70679ZM21.0919 9.68652L21.5691 10.2651L21.0919 9.68652ZM2.9071 14.3127L2.43014 13.7339L2.9071 14.3127ZM19.5905 5.49417L19.0213 5.9825L19.5905 5.49417ZM4.40848 5.49421L3.83923 5.00588L4.40848 5.49421ZM21.4415 15.2921L22.1497 15.539L21.4415 15.2921ZM15.0789 3.01539L14.3481 3.18414L15.0789 3.01539ZM12 2L12 2.75C12.7874 2.75003 13.5508 2.84818 14.2789 3.03261L14.4631 2.30557L14.6472 1.57853C13.7996 1.36383 12.9125 1.25004 12 1.25L12 2ZM15.0789 3.01539L14.3481 3.18414C14.5733 4.1595 15.1874 5.04568 16.125 5.58702L16.5 4.9375L16.875 4.28798C16.3133 3.96368 15.9454 3.43468 15.8097 2.84665L15.0789 3.01539ZM16.5 4.9375L16.1251 5.58705C16.9857 6.08386 17.9614 6.1982 18.8554 5.98729L18.6832 5.25733L18.511 4.52736C17.9723 4.65446 17.3902 4.58534 16.8749 4.28795L16.5 4.9375ZM19.5905 5.49417L19.0213 5.9825C19.7649 6.84927 20.3499 7.85424 20.7332 8.9537L21.4414 8.70679L22.1496 8.45987C21.7035 7.18047 21.0232 6.01231 20.1598 5.00583L19.5905 5.49417ZM21.0919 9.68652L20.6147 9.1079C19.7828 9.79398 19.25 10.8345 19.25 12H20H20.75C20.75 11.3017 21.0675 10.6788 21.5691 10.2651L21.0919 9.68652ZM20 12H19.25C19.25 13.1656 19.7831 14.2055 20.6149 14.8913L21.092 14.3126L21.5691 13.7339C21.0674 13.3203 20.75 12.698 20.75 12H20ZM21.4415 15.2921L20.7333 15.0452C20.3499 16.1447 19.7643 17.1496 19.0203 18.0166L19.5894 18.505L20.1586 18.9935C21.0223 17.987 21.7034 16.8189 22.1497 15.539L21.4415 15.2921ZM18.6824 18.742L18.8542 18.0119C17.9603 17.8015 16.9852 17.9164 16.125 18.413L16.5 19.0625L16.875 19.712C17.3902 19.4146 17.9721 19.3453 18.5105 19.472L18.6824 18.742ZM16.5 19.0625L16.125 18.413C15.1877 18.9542 14.5736 19.8398 14.3482 20.8149L15.079 20.9838L15.8097 21.1527C15.9455 20.565 16.3133 20.0363 16.875 19.712L16.5 19.0625ZM14.4633 21.6935L14.2789 20.9665C13.5504 21.1513 12.7872 21.25 12 21.25L12 22L12 22.75C12.913 22.75 13.8001 22.6355 14.6476 22.4205L14.4633 21.6935ZM12 22V21.25C11.2121 21.25 10.448 21.1514 9.71908 20.9665L9.53471 21.6935L9.35034 22.4205C10.1986 22.6356 11.0865 22.75 12 22.75V22ZM8.91922 20.9838L9.65004 20.8153C9.42526 19.8406 8.81266 18.9545 7.87511 18.413L7.5 19.0625L7.12489 19.712C7.68588 20.036 8.0528 20.5644 8.1884 21.1524L8.91922 20.9838ZM7.5 19.0625L7.875 18.413C7.01451 17.9162 6.0384 17.8011 5.14393 18.0118L5.31588 18.7418L5.48782 19.4718C6.02668 19.3449 6.60949 19.4144 7.125 19.712L7.5 19.0625ZM4.4085 18.5048L4.97775 18.0165C4.23411 17.1496 3.64897 16.1447 3.26571 15.0452L2.5575 15.2921L1.8493 15.539C2.29534 16.8186 2.97585 17.9866 3.83925 18.9931L4.4085 18.5048ZM2.9071 14.3127L3.38406 14.8915C4.21597 14.2059 4.75 13.166 4.75 12H4H3.25C3.25 12.6977 2.93224 13.3201 2.43014 13.7339L2.9071 14.3127ZM4 12H4.75C4.75 10.8341 4.21632 9.7936 3.38427 9.10774L2.90722 9.68646L2.43017 10.2652C2.9322 10.679 3.25 11.302 3.25 12H4ZM2.5576 8.70676L3.26579 8.95368C3.64912 7.85426 4.23417 6.8493 4.97772 5.98253L4.40848 5.49421L3.83923 5.00588C2.97585 6.01234 2.29548 7.18048 1.84941 8.45984L2.5576 8.70676ZM5.31584 5.25738L5.1436 5.98733C6.03788 6.19834 7.01409 6.08406 7.875 5.58702L7.5 4.9375L7.125 4.28798C6.60974 4.58546 6.02715 4.65462 5.48808 4.52742L5.31584 5.25738ZM7.5 4.9375L7.87507 5.58698C8.81305 5.0453 9.42559 4.15867 9.65018 3.18371L8.91933 3.01535L8.18847 2.84699C8.05294 3.43533 7.68599 3.96401 7.12493 4.28802L7.5 4.9375ZM9.53488 2.30557L9.71901 3.03261C10.4477 2.84807 11.2119 2.75 12 2.75V2V1.25C11.0871 1.25 10.1991 1.36366 9.35074 1.57852L9.53488 2.30557ZM8.91933 3.01535L9.65018 3.18371C9.66565 3.11656 9.69195 3.06922 9.71232 3.04443C9.72981 3.02316 9.73287 3.0291 9.71901 3.03261L9.53488 2.30557L9.35074 1.57852C8.65986 1.7535 8.30291 2.35019 8.18847 2.84699L8.91933 3.01535ZM2.90722 9.68646L3.38427 9.10774C3.3236 9.05772 3.28836 9.00364 3.27423 8.96748C3.26235 8.93708 3.2711 8.93844 3.26579 8.95368L2.5576 8.70676L1.84941 8.45984C1.58401 9.22103 1.99516 9.9066 2.43017 10.2652L2.90722 9.68646ZM5.31588 18.7418L5.14393 18.0118C5.07705 18.0275 5.02309 18.0249 4.99183 18.0176C4.96495 18.0113 4.96865 18.0059 4.97775 18.0165L4.4085 18.5048L3.83925 18.9931C4.30177 19.5323 4.9924 19.5885 5.48782 19.4718L5.31588 18.7418ZM9.53471 21.6935L9.71908 20.9665C9.73286 20.97 9.72974 20.9759 9.71223 20.9546C9.69183 20.9298 9.66552 20.8824 9.65004 20.8153L8.91922 20.9838L8.1884 21.1524C8.30294 21.649 8.65983 22.2454 9.35034 22.4205L9.53471 21.6935ZM15.079 20.9838L14.3482 20.8149C14.3327 20.8822 14.3063 20.9296 14.2859 20.9545C14.2683 20.9759 14.2651 20.97 14.2789 20.9665L14.4633 21.6935L14.6476 22.4205C15.3382 22.2454 15.695 21.649 15.8097 21.1527L15.079 20.9838ZM19.5894 18.505L19.0203 18.0166C19.0293 18.006 19.033 18.0115 19.0062 18.0178C18.975 18.025 18.9211 18.0277 18.8542 18.0119L18.6824 18.742L18.5105 19.472C19.0059 19.5886 19.6962 19.5323 20.1586 18.9935L19.5894 18.505ZM21.4414 8.70679L20.7332 8.9537C20.7279 8.93846 20.7367 8.9371 20.7248 8.96753C20.7106 9.00371 20.6754 9.05784 20.6147 9.1079L21.0919 9.68652L21.5691 10.2651C22.0039 9.90655 22.415 9.22104 22.1496 8.45987L21.4414 8.70679ZM2.5575 15.2921L3.26571 15.0452C3.27102 15.0605 3.26228 15.0619 3.27414 15.0315C3.28825 14.9954 3.32344 14.9414 3.38406 14.8915L2.9071 14.3127L2.43014 13.7339C1.99501 14.0924 1.58399 14.7779 1.8493 15.539L2.5575 15.2921ZM18.6832 5.25733L18.8554 5.98729C18.9222 5.97154 18.9761 5.97415 19.0073 5.98142C19.0341 5.98767 19.0304 5.99311 19.0213 5.9825L19.5905 5.49417L20.1598 5.00583C19.6972 4.46667 19.0066 4.41046 18.511 4.52736L18.6832 5.25733ZM4.40848 5.49421L4.97772 5.98253C4.96862 5.99314 4.9649 5.9877 4.99173 5.98145C5.02293 5.97418 5.07681 5.97157 5.1436 5.98733L5.31584 5.25738L5.48808 4.52742C4.9925 4.41048 4.30179 4.46667 3.83923 5.00588L4.40848 5.49421ZM21.092 14.3126L20.6149 14.8913C20.6756 14.9413 20.7108 14.9953 20.7249 15.0315C20.7367 15.0618 20.728 15.0604 20.7333 15.0452L21.4415 15.2921L22.1497 15.539C22.4151 14.7779 22.004 14.0925 21.5691 13.7339L21.092 14.3126ZM14.4631 2.30557L14.2789 3.03261C14.2651 3.0291 14.2682 3.02318 14.2858 3.04453C14.3062 3.0694 14.3326 3.11685 14.3481 3.18414L15.0789 3.01539L15.8097 2.84665C15.695 2.35019 15.3381 1.75352 14.6472 1.57853L14.4631 2.30557Z" fill="#595959"/>
</svg>
