<svg width="151" height="150" viewBox="0 0 151 150" fill="none" xmlns="http://www.w3.org/2000/svg">
<rect x="1.1" y="0.6" width="148.8" height="148.8" rx="74.4" stroke="#F4E6FD" stroke-width="1.2" stroke-dasharray="5 5"/>
<rect x="9.5" y="9" width="132" height="132" rx="66" fill="#F4E6FD"/>
<rect x="19.5" y="19" width="112" height="112" rx="56" fill="#8F07E7"/>
<path d="M80.0205 49.1665C81.5621 49.1665 83.0405 49.7789 84.1306 50.8689C85.2206 51.959 85.833 53.4374 85.833 54.979V71.9954C84.2234 72.7592 82.8753 73.9814 81.958 75.5088V54.979C81.958 54.4651 81.7539 53.9723 81.3905 53.609C81.0272 53.2456 80.5344 53.0415 80.0205 53.0415H60.6455C60.1317 53.0415 59.6388 53.2456 59.2755 53.609C58.9121 53.9723 58.708 54.4651 58.708 54.979V95.0207C58.708 96.0902 59.576 96.9582 60.6455 96.9582H75.4997V99.5415C75.4997 99.9841 75.5427 100.415 75.6288 100.833H60.6455C59.8822 100.833 59.1264 100.683 58.4212 100.391C57.716 100.099 57.0752 99.6705 56.5355 99.1307C55.4454 98.0407 54.833 96.5622 54.833 95.0207V54.979C54.833 53.4374 55.4454 51.959 56.5355 50.8689C57.6255 49.7789 59.1039 49.1665 60.6455 49.1665H80.0205ZM83.2497 80.1665C83.2483 79.318 83.4144 78.4776 83.7385 77.6934C84.0626 76.9092 84.5383 76.1967 85.1382 75.5967C85.7382 74.9968 86.4507 74.5211 87.2349 74.197C88.0191 73.8729 88.8595 73.7068 89.708 73.7082C91.4209 73.7082 93.0636 74.3886 94.2747 75.5998C95.4859 76.8109 96.1663 78.4536 96.1663 80.1665V82.7498H97.458C98.4857 82.7498 99.4713 83.1581 100.198 83.8848C100.925 84.6115 101.333 85.5971 101.333 86.6248V99.5415C101.333 100.569 100.925 101.555 100.198 102.282C99.4713 103.008 98.4857 103.417 97.458 103.417H81.958C80.9303 103.417 79.9447 103.008 79.218 102.282C78.4913 101.555 78.083 100.569 78.083 99.5415V86.6248C78.083 85.5971 78.4913 84.6115 79.218 83.8848C79.9447 83.1581 80.9303 82.7498 81.958 82.7498H83.2497V80.1665ZM87.1247 80.1665V82.7498H92.2913V80.1665C92.2913 79.4814 92.0192 78.8243 91.5347 78.3398C91.0502 77.8553 90.3932 77.5832 89.708 77.5832C89.0229 77.5832 88.3658 77.8553 87.8813 78.3398C87.3968 78.8243 87.1247 79.4814 87.1247 80.1665ZM92.2913 93.0832C92.2913 92.398 92.0192 91.7409 91.5347 91.2565C91.0502 90.772 90.3932 90.4998 89.708 90.4998C89.0229 90.4998 88.3658 90.772 87.8813 91.2565C87.3968 91.7409 87.1247 92.398 87.1247 93.0832C87.1247 93.7683 87.3968 94.4254 87.8813 94.9099C88.3658 95.3943 89.0229 95.6665 89.708 95.6665C90.3932 95.6665 91.0502 95.3943 91.5347 94.9099C92.0192 94.4254 92.2913 93.7683 92.2913 93.0832ZM75.4997 91.1431C75.4997 91.6565 75.2959 92.1515 74.9331 92.5148C74.5703 92.8781 74.0782 93.0825 73.5648 93.0832L67.1064 93.0935C66.5926 93.0942 66.0995 92.8907 65.7356 92.5279C65.3718 92.165 65.167 91.6724 65.1663 91.1586C65.1657 90.6447 65.3691 90.1516 65.732 89.7878C66.0949 89.424 66.5874 89.2192 67.1013 89.2185L73.5596 89.2082C73.814 89.2078 74.066 89.2576 74.3012 89.3547C74.5364 89.4517 74.7502 89.5941 74.9304 89.7738C75.1105 89.9535 75.2535 90.1669 75.3512 90.4018C75.4489 90.6368 75.4993 90.8887 75.4997 91.1431Z" fill="white"/>
</svg>
