<svg width="25" height="24" viewBox="0 0 25 24" fill="none" xmlns="http://www.w3.org/2000/svg">
<path d="M17.25 9.50037L17.908 9.17137C19.854 8.19837 20.828 7.71137 21.538 8.15137C22.25 8.59137 22.25 9.67937 22.25 11.8544V12.1464C22.25 14.3224 22.25 15.4094 21.539 15.8494C20.827 16.2894 19.854 15.8024 17.909 14.8294L17.25 14.5004V9.50037Z" stroke="#FF3B30" stroke-width="1.5"/>
<path d="M9.75 15.5V8.5M9.75 8.5L12.25 11.5M9.75 8.5L7.25 11.5" stroke="#FF3B30" stroke-width="1.5" stroke-linecap="round" stroke-linejoin="round"/>
<path d="M2.25 11.5V12.5C2.25 15.787 2.25 17.431 3.158 18.538C3.32409 18.7404 3.50965 18.9259 3.712 19.092C4.82 20 6.462 20 9.75 20C13.037 20 14.681 20 15.788 19.092C15.9907 18.9253 16.1753 18.7407 16.342 18.538C17.25 17.43 17.25 15.788 17.25 12.5V11.5C17.25 8.213 17.25 6.569 16.342 5.462C16.1759 5.25965 15.9904 5.07409 15.788 4.908C14.68 4 13.038 4 9.75 4C6.463 4 4.819 4 3.712 4.908C3.50965 5.07409 3.32409 5.25965 3.158 5.462C2.73 5.984 2.504 6.624 2.384 7.5" stroke="#FF3B30" stroke-width="1.5" stroke-linecap="round"/>
</svg>
