<svg width="24" height="24" viewBox="0 0 24 24" fill="none" xmlns="http://www.w3.org/2000/svg">
<path d="M19.9308 17.778C19.9328 17.9667 19.8842 18.2133 19.8335 18.4167C19.4795 19.8467 17.9075 21.4513 15.6948 21.3053C13.6895 21.1733 12.0562 20.2107 12.0562 18.8607C12.0562 17.5107 13.6855 16.416 15.6948 16.416C17.7042 16.416 19.9182 16.428 19.9308 17.778Z" fill="#EA596E"/>
<path d="M15.6945 16.6426C14.6152 16.6426 12.1518 16.9412 11.5865 16.9412C10.5878 16.9412 9.77783 17.5679 9.77783 18.3412C9.77783 18.7132 9.9685 19.0492 10.2738 19.2999C10.2738 19.2999 10.9445 19.9726 12.1525 19.6499C12.6812 19.5086 13.5412 18.4592 15.0552 18.2926C15.8092 18.2092 17.2218 18.7926 19.7045 18.8066C19.8112 18.5772 19.8332 18.4179 19.8332 18.4179C19.8332 17.0666 17.7038 16.6426 15.6945 16.6426Z" fill="#DD2E44"/>
<path d="M19.8332 18.4169C19.8332 18.4169 21.2892 18.1216 22.1945 16.9309C23.2498 15.5423 23.1112 14.0563 23.1112 14.0563C24.1805 12.0563 22.7778 10.1809 22.7778 10.1809C22.6385 8.06961 21.3332 7.19494 21.3332 7.19494C20.4858 5.18094 18.6112 4.63961 18.6112 4.63961C17.1392 2.91761 14.5278 2.97294 14.5278 2.97294C14.5278 2.97294 12.0812 2.07627 8.72251 3.08427C8.16717 3.25094 6.30584 3.63961 4.94451 4.47294C0.653841 7.09961 0.329174 11.1956 0.389174 11.8616C0.721841 15.5836 3.33317 16.2503 4.99984 16.6389C5.38851 17.6943 6.81917 19.6389 9.38851 18.9169C12.5552 18.3616 13.8885 17.4169 14.6665 17.4169C15.4445 17.4169 17.6112 18.2503 19.8332 18.4169Z" fill="#F4ABBA"/>
<path d="M11.8247 12.4326C13.3767 11.5959 14.218 11.6739 14.9607 11.7412C15.1967 11.7626 15.42 11.7792 15.646 11.7779C16.9687 11.7479 18.04 11.1906 18.514 10.6512C18.5683 10.5842 18.5947 10.4988 18.5874 10.4128C18.5801 10.3268 18.5399 10.247 18.4751 10.19C18.4103 10.133 18.3259 10.1034 18.2397 10.1072C18.1535 10.111 18.0722 10.1481 18.0127 10.2106C17.6473 10.6266 16.7467 11.0859 15.6307 11.1112C15.4307 11.1172 15.23 11.0972 15.022 11.0779C14.2253 11.0039 13.236 10.9132 11.508 11.8459C11.0647 12.0852 10.4567 12.1739 9.79799 12.2406C8.33332 10.1266 9.21466 8.28525 9.46666 7.84658C9.49132 7.84791 9.51532 7.85591 9.54066 7.85591C9.80732 7.85591 10.0753 7.79058 10.318 7.65325C10.3919 7.60824 10.4454 7.53625 10.4672 7.45249C10.489 7.36873 10.4774 7.27978 10.4348 7.20444C10.3922 7.12911 10.322 7.0733 10.239 7.04881C10.1559 7.02433 10.0667 7.03309 9.98999 7.07325C9.78026 7.1887 9.53469 7.22078 9.30235 7.16306C9.07 7.10534 8.86798 6.96209 8.73666 6.76191C8.68708 6.69201 8.61249 6.64388 8.52836 6.62753C8.44424 6.61118 8.35705 6.62785 8.28489 6.6741C8.21274 6.72034 8.16117 6.7926 8.14089 6.87586C8.12061 6.95913 8.13318 7.04701 8.17599 7.12125C8.33399 7.36858 8.55666 7.55458 8.80799 7.67925C8.46066 8.38458 7.80132 10.2392 9.05599 12.3132C8.17332 12.3999 7.28932 12.5246 6.59732 12.9706C6.11112 13.2895 5.68689 13.694 5.34532 14.1646C4.92599 14.0926 3.39066 13.7146 3.12266 12.0106C3.28932 11.8812 3.42399 11.7106 3.50732 11.4999C3.52343 11.4592 3.53137 11.4157 3.53067 11.3719C3.52997 11.3282 3.52066 11.285 3.50327 11.2448C3.48587 11.2046 3.46073 11.1683 3.42928 11.1378C3.39784 11.1073 3.3607 11.0834 3.31999 11.0672C3.27928 11.0511 3.2358 11.0432 3.19202 11.0439C3.14825 11.0446 3.10504 11.0539 3.06486 11.0713C3.02468 11.0887 2.98833 11.1138 2.95786 11.1453C2.9274 11.1767 2.90343 11.2139 2.88732 11.2546C2.86219 11.3247 2.8221 11.3885 2.76984 11.4416C2.71757 11.4947 2.65438 11.5357 2.58466 11.5619C2.51403 11.5852 2.43921 11.5932 2.36526 11.5851C2.29131 11.5771 2.21995 11.5532 2.15599 11.5152C2.11773 11.494 2.07566 11.4804 2.03217 11.4754C1.98868 11.4704 1.94463 11.474 1.90254 11.486C1.81752 11.5103 1.74562 11.5673 1.70266 11.6446C1.65969 11.7218 1.64918 11.813 1.67344 11.898C1.69769 11.983 1.75472 12.0549 1.83199 12.0979C2.02132 12.2032 2.22399 12.2566 2.42532 12.2566C2.44999 12.2566 2.47332 12.2452 2.49799 12.2439C2.81532 13.8526 4.08666 14.5592 4.98599 14.7732C4.86836 15.0239 4.79376 15.2925 4.76532 15.5679C4.75756 15.656 4.78508 15.7435 4.84184 15.8113C4.89859 15.879 4.97994 15.9215 5.06799 15.9292L5.09799 15.9306C5.18131 15.9306 5.26161 15.8994 5.32306 15.8431C5.38451 15.7868 5.42266 15.7096 5.42999 15.6266C5.50199 14.8179 6.27332 13.9732 6.95866 13.5299C7.60132 13.1159 8.54199 13.0286 9.45266 12.9439C10.336 12.8632 11.1707 12.7859 11.8247 12.4326ZM20.402 11.4299C20.3596 11.5075 20.3497 11.5988 20.3746 11.6837C20.3995 11.7686 20.457 11.8401 20.5347 11.8826C20.6123 11.925 20.7036 11.9349 20.7885 11.91C20.8734 11.8851 20.9449 11.8275 20.9873 11.7499C21 11.7272 22.2153 9.45058 19.94 7.92058C19.8666 7.87125 19.7766 7.85309 19.6899 7.87009C19.6031 7.8871 19.5267 7.93787 19.4773 8.01125C19.428 8.08462 19.4098 8.17459 19.4268 8.26136C19.4438 8.34813 19.4946 8.42458 19.568 8.47391C21.3307 9.65925 20.4407 11.3579 20.402 11.4299ZM6.58399 6.04725C6.63687 6.04726 6.689 6.03469 6.73606 6.01058C6.78312 5.98647 6.82377 5.95151 6.85466 5.90858C7.82132 4.56392 9.15999 5.02391 9.21666 5.04525C9.29876 5.07235 9.38819 5.06649 9.46606 5.02889C9.54392 4.9913 9.60413 4.92493 9.63398 4.84378C9.66383 4.76263 9.66097 4.67306 9.62602 4.59397C9.59107 4.51488 9.52676 4.45247 9.44666 4.41991C8.80666 4.18258 7.32866 4.10791 6.31332 5.51991C6.27768 5.56971 6.25645 5.62837 6.25195 5.68944C6.24746 5.75051 6.25987 5.81165 6.28784 5.86613C6.3158 5.92061 6.35823 5.96633 6.41047 5.99828C6.46272 6.03023 6.52275 6.04718 6.58399 6.04725ZM15.2987 4.78858C16.782 4.66791 17.4567 5.74325 17.4873 5.79391C17.5321 5.87021 17.6054 5.92557 17.6911 5.94783C17.7335 5.95885 17.7776 5.9614 17.821 5.95536C17.8644 5.94931 17.9062 5.93477 17.944 5.91258C17.9818 5.89039 18.0148 5.86097 18.0412 5.82601C18.0676 5.79105 18.0869 5.75123 18.0979 5.70882C18.1089 5.66642 18.1115 5.62226 18.1054 5.57886C18.0994 5.53547 18.0849 5.49369 18.0627 5.45591C18.0267 5.39525 17.1693 3.97725 15.2467 4.12391C15.203 4.12733 15.1605 4.13931 15.1215 4.15916C15.0824 4.17902 15.0477 4.20636 15.0193 4.23964C14.9618 4.30684 14.9334 4.39411 14.9403 4.48225C14.9472 4.57039 14.9888 4.65218 15.056 4.70963C15.1232 4.76708 15.2105 4.79548 15.2987 4.78858ZM21.3987 14.5292C21.2347 14.5199 21.054 14.6499 21.0393 14.8339C21.038 14.8459 20.932 15.9799 19.766 16.3632C19.6898 16.3872 19.6247 16.4378 19.5827 16.5058C19.5407 16.5738 19.5246 16.6546 19.5373 16.7335C19.55 16.8124 19.5907 16.8841 19.6519 16.9355C19.7131 16.9868 19.7908 17.0144 19.8707 17.0132C19.906 17.0132 19.9411 17.0076 19.9747 16.9966C21.556 16.4779 21.6987 14.9539 21.704 14.8892C21.7076 14.8455 21.7026 14.8016 21.6893 14.7598C21.6759 14.718 21.6544 14.6793 21.626 14.6459C21.5977 14.6124 21.563 14.5849 21.524 14.5649C21.4849 14.5449 21.4424 14.5328 21.3987 14.5292Z" fill="#EA596E"/>
<path d="M4.89789 11.2902C4.88478 11.3329 4.88041 11.3779 4.88504 11.4224C4.88968 11.4669 4.90322 11.51 4.92487 11.5491C4.94652 11.5883 4.97582 11.6227 5.01104 11.6503C5.04626 11.6779 5.08667 11.6981 5.12987 11.7097C5.17306 11.7214 5.21816 11.7242 5.26247 11.718C5.30678 11.7119 5.34939 11.6968 5.38778 11.6739C5.42616 11.6509 5.45953 11.6204 5.48589 11.5843C5.51225 11.5481 5.53107 11.5071 5.54122 11.4635C5.60541 11.2325 5.75467 11.0344 5.95899 10.909C6.16331 10.7836 6.40754 10.7402 6.64256 10.7875C6.68541 10.7965 6.72961 10.7969 6.77264 10.7888C6.81567 10.7807 6.85667 10.7642 6.89332 10.7402C6.92997 10.7163 6.96154 10.6853 6.98623 10.6492C7.01092 10.613 7.02825 10.5723 7.03722 10.5295C7.0462 10.4866 7.04664 10.4424 7.03853 10.3994C7.03042 10.3564 7.01392 10.3154 6.98996 10.2787C6.966 10.2421 6.93506 10.2105 6.8989 10.1858C6.86274 10.1611 6.82208 10.1438 6.77922 10.1348C6.5018 10.0784 6.21428 10.0982 5.94722 10.1922C5.16989 8.86283 5.32122 7.55216 5.32322 7.53816C5.33497 7.45055 5.31144 7.36186 5.25781 7.2916C5.20417 7.22134 5.12483 7.17526 5.03722 7.16349C4.94991 7.15226 4.86168 7.17582 4.79158 7.22908C4.72148 7.28234 4.67514 7.36103 4.66256 7.44816C4.65389 7.51283 4.47589 8.99216 5.37122 10.5242C5.14337 10.7289 4.97908 10.9948 4.89789 11.2902ZM12.3506 9.64349C12.4837 9.52255 12.6576 9.45638 12.8375 9.45823C13.0174 9.46009 13.1899 9.52983 13.3206 9.65349C13.384 9.71502 13.4693 9.74881 13.5577 9.74744C13.6461 9.74606 13.7304 9.70963 13.7919 9.64616C13.8535 9.58277 13.8874 9.4975 13.8862 9.40911C13.8849 9.32072 13.8486 9.23645 13.7852 9.17483C13.6347 9.03149 13.4527 8.92533 13.2539 8.86483C13.4512 8.18749 13.3732 7.88683 13.1899 7.32349C13.1536 7.21326 13.1187 7.10259 13.0852 6.99149L13.0652 6.92483C12.8226 6.11949 12.6619 5.58816 13.1232 4.83816C13.1695 4.76284 13.1841 4.6722 13.1635 4.58618C13.143 4.50017 13.0892 4.42582 13.0139 4.37949C12.9386 4.33317 12.8479 4.31866 12.7619 4.33917C12.6759 4.35967 12.6015 4.4135 12.5552 4.48883C11.9366 5.49416 12.1639 6.24683 12.4272 7.11816L12.4472 7.18483C12.4863 7.31371 12.5226 7.4286 12.5559 7.52949C12.7206 8.03683 12.7706 8.20683 12.5692 8.82016C12.3172 8.86519 12.0834 8.98183 11.8959 9.15616C11.8336 9.217 11.7975 9.29982 11.7955 9.38689C11.7935 9.47397 11.8256 9.55837 11.885 9.62206C11.9444 9.68574 12.0264 9.72364 12.1134 9.72765C12.2004 9.73165 12.2855 9.70145 12.3506 9.64349ZM16.5939 7.65349C16.7919 7.65409 16.9875 7.61059 17.1666 7.52616C17.2466 7.4885 17.3083 7.4206 17.3383 7.33739C17.3682 7.25419 17.3639 7.1625 17.3262 7.08249C17.2886 7.00249 17.2207 6.94072 17.1375 6.91077C17.0543 6.88083 16.9626 6.88517 16.8826 6.92283C16.7187 6.99802 16.5325 7.0084 16.3613 6.95188C16.1902 6.89536 16.0467 6.77613 15.9599 6.61816C15.9401 6.57811 15.9124 6.54245 15.8785 6.5133C15.8447 6.48415 15.8053 6.46211 15.7627 6.44848C15.7202 6.43486 15.6753 6.42993 15.6308 6.434C15.5863 6.43806 15.5431 6.45102 15.5037 6.47213C15.4643 6.49323 15.4296 6.52204 15.4015 6.55684C15.3735 6.59163 15.3527 6.63171 15.3405 6.67469C15.3283 6.71767 15.3248 6.76267 15.3303 6.80701C15.3358 6.85136 15.3502 6.89414 15.3726 6.93283C15.4926 7.15683 15.6712 7.33349 15.8792 7.45616C15.5212 8.32616 15.7246 9.25016 15.8906 9.74016C15.9033 9.78316 15.9245 9.82316 15.953 9.85776C15.9815 9.89236 16.0167 9.92085 16.0565 9.94153C16.0963 9.96221 16.1398 9.97465 16.1845 9.97811C16.2292 9.98157 16.2742 9.97598 16.3167 9.96166C16.3591 9.94735 16.3983 9.92461 16.4318 9.89481C16.4653 9.86501 16.4924 9.82876 16.5116 9.78823C16.5308 9.74769 16.5416 9.70371 16.5433 9.65891C16.5451 9.61411 16.5378 9.56941 16.5219 9.52749C16.4099 9.19549 16.1926 8.35683 16.5206 7.64349C16.5459 7.64483 16.5692 7.65349 16.5939 7.65349ZM19.7919 13.9395C19.7893 13.8957 19.7781 13.8529 19.7589 13.8135C19.7397 13.774 19.7129 13.7388 19.6799 13.7099C19.647 13.6809 19.6086 13.6588 19.5671 13.6448C19.5256 13.6307 19.4816 13.6251 19.4379 13.6282C19.278 13.6392 19.1176 13.6186 18.9657 13.5674C18.8139 13.5163 18.6736 13.4357 18.553 13.3302C18.4324 13.2247 18.3338 13.0964 18.2629 12.9527C18.192 12.809 18.1502 12.6527 18.1399 12.4928C18.1322 12.4052 18.0909 12.324 18.0247 12.2662C17.9584 12.2084 17.8724 12.1785 17.7846 12.1828C17.7409 12.1858 17.6982 12.1973 17.659 12.2168C17.6197 12.2363 17.5847 12.2633 17.5559 12.2963C17.5271 12.3293 17.5051 12.3676 17.4912 12.4091C17.4772 12.4506 17.4716 12.4945 17.4746 12.5382C17.5019 12.9315 17.6519 13.2862 17.8799 13.5748C17.3439 14.2055 16.6419 14.3848 16.2506 14.4308C15.9046 14.4722 15.6019 14.4368 15.2519 14.3955C14.9312 14.3588 14.5686 14.3168 14.1199 14.3302L14.1166 14.3308C14.1032 14.1402 14.0579 13.8622 13.9132 13.6308C13.8635 13.5623 13.7896 13.5153 13.7065 13.4992C13.6234 13.483 13.5373 13.4991 13.4655 13.5441C13.3938 13.589 13.3418 13.6596 13.3201 13.7414C13.2984 13.8232 13.3086 13.9102 13.3486 13.9848C13.4379 14.1282 13.4546 14.3568 13.4546 14.4682C13.1186 14.5888 12.8279 14.7662 12.5652 14.9375C12.0959 15.2428 11.7259 15.4842 11.1692 15.3588C10.6652 15.2435 10.1606 15.2202 9.73256 15.2802C9.66589 15.1128 9.56056 14.9128 9.39789 14.7588C9.33362 14.6981 9.24785 14.6654 9.15946 14.6679C9.07107 14.6704 8.98729 14.7079 8.92656 14.7722C8.86582 14.8364 8.83311 14.9222 8.83561 15.0106C8.83811 15.099 8.87562 15.1828 8.93989 15.2435C8.99722 15.2975 9.04256 15.3762 9.07922 15.4548C8.34389 15.7575 7.97522 16.2635 7.95789 16.2882C7.92252 16.3379 7.90154 16.3965 7.89724 16.4574C7.89294 16.5183 7.90549 16.5792 7.93351 16.6335C7.96154 16.6877 8.00395 16.7332 8.05611 16.765C8.10827 16.7967 8.16816 16.8135 8.22922 16.8135C8.28193 16.8137 8.33394 16.8015 8.38099 16.7777C8.42805 16.754 8.46879 16.7194 8.49989 16.6768C8.50322 16.6715 8.86922 16.1815 9.59122 15.9835C9.96456 15.8808 10.4999 15.8895 11.0219 16.0082C11.1679 16.0415 11.3032 16.0528 11.4346 16.0548C11.4966 16.2002 11.5206 16.3728 11.5239 16.4368C11.5287 16.5218 11.5658 16.6018 11.6276 16.6603C11.6895 16.7188 11.7714 16.7515 11.8566 16.7515L11.8746 16.7508C11.9625 16.7462 12.0451 16.7069 12.1042 16.6415C12.1632 16.5762 12.1941 16.4901 12.1899 16.4022C12.1789 16.2469 12.1498 16.0934 12.1032 15.9448C12.4106 15.8335 12.6779 15.6595 12.9292 15.4962C13.3106 15.2475 13.6712 15.0122 14.1426 14.9968C14.5372 14.9828 14.8626 15.0208 15.1766 15.0575C15.4926 15.0942 15.8032 15.1182 16.1459 15.0982C16.2066 15.2668 16.2019 15.4922 16.1926 15.5675C16.1869 15.6144 16.1913 15.662 16.2053 15.7072C16.2194 15.7523 16.2428 15.794 16.2741 15.8294C16.3054 15.8649 16.3438 15.8933 16.3869 15.9128C16.4299 15.9324 16.4766 15.9426 16.5239 15.9428C16.6047 15.9427 16.6827 15.9132 16.7434 15.8599C16.8041 15.8065 16.8434 15.733 16.8539 15.6528C16.8781 15.4342 16.8648 15.213 16.8146 14.9988C17.4228 14.8374 17.9679 14.4955 18.3779 14.0182C18.7083 14.2226 19.0942 14.3188 19.4819 14.2935C19.5699 14.2875 19.6519 14.2469 19.71 14.1805C19.7681 14.1142 19.7976 14.0275 19.7919 13.9395Z" fill="#EA596E"/>
</svg>
