<svg width="40" height="10" viewBox="0 0 40 10" fill="none" xmlns="http://www.w3.org/2000/svg">
<g clip-path="url(#clip0_826_20046)">
<path d="M8.39622 9.32354H1.27715C0.810903 9.32354 0.355981 9.07715 0.139887 8.66285C-0.110191 8.18138 -0.0193314 7.61031 0.367309 7.24077L5.32575 2.35877H1.76614C0.788091 2.35877 0.003403 1.57492 0.003403 0.623077H6.56528C7.03153 0.623077 7.48637 0.869462 7.70247 1.28377C7.9527 1.76523 7.86168 2.33631 7.47504 2.70577L2.51668 7.58792H6.62215C7.60012 7.58792 8.39622 8.37177 8.39622 9.32354ZM36.5768 0.5C35.5533 0.5 34.6435 0.936692 34.0066 1.63092C33.3698 0.936692 32.46 0.5 31.4365 0.5C29.5487 0.5 28.0021 2.09 28.0021 3.94877V9.32354C28.98 9.32354 29.7647 8.53969 29.7647 7.58792V3.93762C29.7647 3.04177 30.4698 2.28038 31.3796 2.24685C32.3349 2.21323 33.1196 2.96338 33.1196 3.89277V7.58792C33.1196 8.55092 33.9157 9.32354 34.8823 9.32354V3.92638C34.8823 3.03062 35.5874 2.26915 36.4972 2.23562C37.4525 2.202 38.2372 2.95223 38.2372 3.88162V7.57669C38.2372 8.53977 39.0333 9.31231 39.9999 9.31231V3.93769C40.0112 2.09 38.4646 0.5 36.5768 0.5ZM17.3121 4.97892C17.3121 7.45354 15.2765 9.45785 12.7632 9.45785C10.2499 9.45785 8.21426 7.45354 8.21426 4.97892C8.21426 2.50431 10.2499 0.5 12.7632 0.5C15.2765 0.5 17.3121 2.50431 17.3121 4.97892ZM15.5493 4.97892C15.5493 3.46731 14.2984 2.23562 12.7632 2.23562C11.2279 2.23562 9.97692 3.46731 9.97692 4.97892C9.97692 6.49062 11.2279 7.72231 12.7632 7.72231C14.2984 7.72231 15.5493 6.49062 15.5493 4.97892ZM27.115 4.97892C27.115 7.45354 25.0793 9.45785 22.5661 9.45785C20.0528 9.45785 18.0172 7.45354 18.0172 4.97892C18.0172 2.50431 20.0528 0.5 22.5661 0.5C25.0793 0.5 27.115 2.50431 27.115 4.97892M25.3524 4.97892C25.3524 3.46731 24.1015 2.23562 22.5661 2.23562C21.031 2.23562 19.78 3.46731 19.78 4.97892C19.78 6.49062 21.0309 7.72231 22.5661 7.72231C24.1015 7.72231 25.3524 6.49062 25.3524 4.97892Z" fill="#0B5CFF"/>
</g>
<defs>
<clipPath id="clip0_826_20046">
<rect width="40" height="9" fill="white" transform="translate(0 0.5)"/>
</clipPath>
</defs>
</svg>
